Alegreya-Bold.ufo
<glyph name="quotesingle" format="2">
  <advance width="176"/>
  <unicode hex="0027"/>
  <outline>
    <contour>
      <point x="51" y="401" type="line"/>
      <point x="124" y="426" type="line"/>
      <point x="150" y="538"/>
      <point x="166" y="647"/>
      <point x="166" y="647" type="curve"/>
      <point x="157" y="659" type="line"/>
      <point x="23" y="645" type="line"/>
      <point x="23" y="645"/>
      <point x="34" y="527"/>
      <point x="32" y="407" type="curve"/>
    </contour>
  </outline>
</glyph>
<glyph name="hyphen" format="2">
  <advance width="324"/>
  <unicode hex="002D"/>
  <outline>
    <contour>
      <point x="46" y="176" type="line"/>
      <point x="278" y="202" type="line"/>
      <point x="291" y="310" type="line"/>
      <point x="279" y="328" type="line"/>
      <point x="279" y="328"/>
      <point x="260" y="324"/>
      <point x="196" y="317" type="curve" smooth="yes"/>
      <point x="43" y="300" type="line"/>
      <point x="33" y="194" type="line"/>
    </contour>
  </outline>
</glyph>
<glyph name="six" format="2">
  <advance width="473"/>
  <unicode hex="0036"/>
  <outline>
    <contour>
      <point x="225" y="-12" type="curve" smooth="yes"/>
      <point x="371" y="-12"/>
      <point x="461" y="70"/>
      <point x="461" y="203" type="curve" smooth="yes"/>
      <point x="461" y="311"/>
      <point x="397" y="379"/>
      <point x="297" y="379" type="curve"/>
      <point x="278" y="373"/>
      <point x="258" y="366"/>
      <point x="239" y="358" type="curve"/>
      <point x="225" y="383" type="line"/>
      <point x="152" y="222" type="line"/>
      <point x="188" y="247"/>
      <point x="218" y="259"/>
      <point x="240" y="259" type="curve" smooth="yes"/>
      <point x="275" y="259"/>
      <point x="293" y="232"/>
      <point x="293" y="177" type="curve" smooth="yes"/>
      <point x="293" y="126"/>
      <point x="277" y="105"/>
      <point x="239" y="105" type="curve" smooth="yes"/>
      <point x="202" y="105"/>
      <point x="182" y="139"/>
      <point x="182" y="202" type="curve" smooth="yes"/>
      <point x="182" y="338"/>
      <point x="260" y="439"/>
      <point x="421" y="511" type="curve"/>
      <point x="391" y="592" type="line"/>
      <point x="378" y="599" type="line"/>
      <point x="168" y="550"/>
      <point x="15" y="387"/>
      <point x="15" y="211" type="curve" smooth="yes"/>
      <point x="15" y="75"/>
      <point x="97" y="-12"/>
    </contour>
  </outline>
</glyph>
<glyph name="nine" format="2">
  <advance width="473"/>
  <unicode hex="0039"/>
  <outline>
    <contour>
      <point x="95" y="-96" type="line"/>
      <point x="305" y="-47"/>
      <point x="458" y="116"/>
      <point x="458" y="292" type="curve" smooth="yes"/>
      <point x="458" y="428"/>
      <point x="376" y="515"/>
      <point x="248" y="515" type="curve" smooth="yes"/>
      <point x="102" y="515"/>
      <point x="12" y="433"/>
      <point x="12" y="300" type="curve" smooth="yes"/>
      <point x="12" y="192"/>
      <point x="76" y="124"/>
      <point x="176" y="124" type="curve"/>
      <point x="195" y="130"/>
      <point x="215" y="137"/>
      <point x="234" y="145" type="curve"/>
      <point x="248" y="120" type="line"/>
      <point x="321" y="281" type="line"/>
      <point x="285" y="256"/>
      <point x="255" y="244"/>
      <point x="233" y="244" type="curve" smooth="yes"/>
      <point x="198" y="244"/>
      <point x="180" y="271"/>
      <point x="180" y="326" type="curve" smooth="yes"/>
      <point x="180" y="377"/>
      <point x="196" y="398"/>
      <point x="234" y="398" type="curve" smooth="yes"/>
      <point x="271" y="398"/>
      <point x="291" y="364"/>
      <point x="291" y="301" type="curve" smooth="yes"/>
      <point x="291" y="165"/>
      <point x="213" y="64"/>
      <point x="52" y="-8" type="curve"/>
      <point x="82" y="-89" type="line"/>
    </contour>
  </outline>
</glyph>
<glyph name="C" format="2">
  <advance width="603"/>
  <unicode hex="0043"/>
  <anchor x="314" y="0" name="bottom"/>
  <anchor x="335" y="647" name="top"/>
  <outline>
    <contour>
      <point x="310" y="-11" type="curve" smooth="yes"/>
      <point x="439" y="-11"/>
      <point x="547" y="27"/>
      <point x="547" y="27" type="curve"/>
      <point x="560" y="43" type="line"/>
      <point x="560" y="139"/>
      <point x="572" y="256"/>
      <point x="572" y="256" type="curve"/>
      <point x="419" y="246" type="line"/>
      <point x="412" y="161"/>
      <point x="391" y="130"/>
      <point x="340" y="130" type="curve" smooth="yes"/>
      <point x="273" y="130"/>
      <point x="243" y="198"/>
      <point x="243" y="347" type="curve" smooth="yes"/>
      <point x="243" y="479"/>
      <point x="265" y="521"/>
      <point x="335" y="521" type="curve" smooth="yes"/>
      <point x="385" y="521"/>
      <point x="404" y="501"/>
      <point x="404" y="447" type="curve" smooth="yes"/>
      <point x="404" y="416"/>
      <point x="402" y="390"/>
      <point x="402" y="390" type="curve"/>
      <point x="556" y="399" type="line"/>
      <point x="563" y="521"/>
      <point x="584" y="613"/>
      <point x="584" y="613" type="curve"/>
      <point x="576" y="633" type="line"/>
      <point x="576" y="633"/>
      <point x="452" y="659"/>
      <point x="366" y="659" type="curve" smooth="yes"/>
      <point x="140" y="659"/>
      <point x="15" y="535"/>
      <point x="15" y="311" type="curve" smooth="yes"/>
      <point x="15" y="108"/>
      <point x="124" y="-11"/>
    </contour>
  </outline>
</glyph>
<glyph name="K" format="2">
  <advance width="693"/>
  <unicode hex="004B"/>
  <anchor x="372" y="0" name="bottom"/>
  <anchor x="376" y="647" name="top"/>
  <outline>
    <contour>
      <point x="299" y="347" type="line"/>
      <point x="294" y="317" type="line"/>
      <point x="420" y="65" type="line" smooth="yes"/>
      <point x="451" y="4"/>
      <point x="478" y="-16"/>
      <point x="530" y="-16" type="curve" smooth="yes"/>
      <point x="555" y="-16"/>
      <point x="683" y="-5"/>
      <point x="683" y="-5" type="curve"/>
      <point x="694" y="69" type="line"/>
      <point x="684" y="84" type="line"/>
      <point x="642" y="90"/>
      <point x="616" y="116"/>
      <point x="586" y="174" type="curve" smooth="yes"/>
      <point x="492" y="356" type="line"/>
      <point x="534" y="415" type="line" smooth="yes"/>
      <point x="587" y="489"/>
      <point x="632" y="534"/>
      <point x="681" y="562" type="curve"/>
      <point x="690" y="637" type="line"/>
      <point x="681" y="652" type="line"/>
      <point x="681" y="652"/>
      <point x="573" y="647"/>
      <point x="537" y="647" type="curve" smooth="yes"/>
      <point x="491" y="647"/>
      <point x="394" y="650"/>
      <point x="394" y="650" type="curve"/>
      <point x="385" y="568" type="line"/>
      <point x="391" y="558" type="line"/>
      <point x="422" y="556"/>
      <point x="432" y="548"/>
      <point x="432" y="526" type="curve" smooth="yes"/>
      <point x="432" y="511"/>
      <point x="424" y="493"/>
      <point x="411" y="480" type="curve" smooth="yes"/>
    </contour>
    <contour>
      <point x="88" y="508" type="curve" smooth="yes"/>
      <point x="88" y="162" type="line" smooth="yes"/>
      <point x="88" y="106"/>
      <point x="76" y="91"/>
      <point x="23" y="80" type="curve"/>
      <point x="15" y="-5" type="line"/>
      <point x="15" y="-5"/>
      <point x="118" y="0"/>
      <point x="181" y="0" type="curve" smooth="yes"/>
      <point x="223" y="0"/>
      <point x="348" y="-4"/>
      <point x="348" y="-4" type="curve"/>
      <point x="357" y="80" type="line"/>
      <point x="349" y="90" type="line"/>
      <point x="349" y="90"/>
      <point x="338" y="87"/>
      <point x="317" y="87" type="curve" smooth="yes"/>
      <point x="291" y="87"/>
      <point x="284" y="100"/>
      <point x="285" y="156" type="curve" smooth="yes"/>
      <point x="292" y="506" type="line" smooth="yes"/>
      <point x="293" y="541"/>
      <point x="303" y="550"/>
      <point x="352" y="562" type="curve"/>
      <point x="359" y="652" type="line"/>
      <point x="359" y="652"/>
      <point x="230" y="647"/>
      <point x="187" y="647" type="curve" smooth="yes"/>
      <point x="169" y="647"/>
      <point x="27" y="648"/>
      <point x="27" y="648" type="curve"/>
      <point x="18" y="572" type="line"/>
      <point x="27" y="558" type="line"/>
      <point x="27" y="558"/>
      <point x="42" y="559"/>
      <point x="53" y="559" type="curve" smooth="yes"/>
      <point x="81" y="559"/>
      <point x="88" y="549"/>
    </contour>
  </outline>
</glyph>
<glyph name="L" format="2">
  <advance width="557"/>
  <unicode hex="004C"/>
  <anchor x="287" y="0" name="bottom"/>
  <anchor x="190" y="647" name="top"/>
  <outline>
    <contour>
      <point x="13" y="-10" type="line"/>
      <point x="13" y="-10"/>
      <point x="121" y="0"/>
      <point x="224" y="0" type="curve" smooth="yes"/>
      <point x="367" y="0"/>
      <point x="518" y="-7"/>
      <point x="518" y="-7" type="curve"/>
      <point x="533" y="9" type="line"/>
      <point x="542" y="148"/>
      <point x="557" y="276"/>
      <point x="557" y="276" type="curve"/>
      <point x="545" y="291" type="line"/>
      <point x="417" y="278" type="line"/>
      <point x="410" y="144"/>
      <point x="392" y="115"/>
      <point x="321" y="115" type="curve" smooth="yes"/>
      <point x="294" y="115"/>
      <point x="284" y="127"/>
      <point x="284" y="158" type="curve" smooth="yes"/>
      <point x="284" y="310"/>
      <point x="288" y="412"/>
      <point x="294" y="502" type="curve" smooth="yes"/>
      <point x="296" y="537"/>
      <point x="313" y="547"/>
      <point x="382" y="554" type="curve"/>
      <point x="393" y="652" type="line"/>
      <point x="393" y="652"/>
      <point x="234" y="647"/>
      <point x="186" y="647" type="curve" smooth="yes"/>
      <point x="132" y="647"/>
      <point x="79" y="647"/>
      <point x="25" y="647" type="curve"/>
      <point x="17" y="572" type="line"/>
      <point x="26" y="558" type="line"/>
      <point x="26" y="558"/>
      <point x="41" y="559"/>
      <point x="52" y="559" type="curve" smooth="yes"/>
      <point x="80" y="559"/>
      <point x="87" y="549"/>
      <point x="87" y="508" type="curve" smooth="yes"/>
      <point x="87" y="170" type="line" smooth="yes"/>
      <point x="87" y="110"/>
      <point x="72" y="90"/>
      <point x="22" y="82" type="curve"/>
    </contour>
  </outline>
</glyph>
<glyph name="P" format="2">
  <advance width="606"/>
  <unicode hex="0050"/>
  <anchor x="200" y="0" name="bottom"/>
  <anchor x="317" y="647" name="top"/>
  <outline>
    <contour>
      <point x="14" y="-9" type="line"/>
      <point x="14" y="-9"/>
      <point x="154" y="0"/>
      <point x="200" y="0" type="curve" smooth="yes"/>
      <point x="242" y="0"/>
      <point x="363" y="-4"/>
      <point x="363" y="-4" type="curve"/>
      <point x="373" y="82" type="line"/>
      <point x="368" y="90" type="line"/>
      <point x="368" y="90"/>
      <point x="349" y="88"/>
      <point x="335" y="88" type="curve" smooth="yes"/>
      <point x="294" y="88"/>
      <point x="285" y="106"/>
      <point x="285" y="160" type="curve"/>
      <point x="285" y="208" type="line"/>
      <point x="371" y="208" type="line" smooth="yes"/>
      <point x="505" y="208"/>
      <point x="621" y="318"/>
      <point x="621" y="445" type="curve" smooth="yes"/>
      <point x="621" y="523"/>
      <point x="589" y="653"/>
      <point x="350" y="653" type="curve" smooth="yes"/>
      <point x="350" y="653"/>
      <point x="215" y="647"/>
      <point x="170" y="647" type="curve" smooth="yes"/>
      <point x="121" y="647"/>
      <point x="75" y="647"/>
      <point x="27" y="647" type="curve"/>
      <point x="17" y="569" type="line"/>
      <point x="27" y="557" type="line"/>
      <point x="27" y="557"/>
      <point x="47" y="559"/>
      <point x="62" y="559" type="curve" smooth="yes"/>
      <point x="82" y="559"/>
      <point x="88" y="546"/>
      <point x="88" y="505" type="curve" smooth="yes"/>
      <point x="88" y="168" type="line" smooth="yes"/>
      <point x="88" y="112"/>
      <point x="72" y="91"/>
      <point x="23" y="83" type="curve"/>
    </contour>
    <contour>
      <point x="356" y="321" type="curve"/>
      <point x="287" y="331" type="line"/>
      <point x="289" y="394"/>
      <point x="292" y="455"/>
      <point x="295" y="506" type="curve" smooth="yes"/>
      <point x="296" y="525"/>
      <point x="298" y="528"/>
      <point x="312" y="528" type="curve" smooth="yes"/>
      <point x="383" y="528"/>
      <point x="415" y="500"/>
      <point x="415" y="435" type="curve" smooth="yes"/>
      <point x="415" y="371"/>
      <point x="396" y="335"/>
    </contour>
  </outline>
</glyph>
<glyph name="Q" format="2">
  <advance width="659"/>
  <unicode hex="0051"/>
  <anchor x="423" y="0" name="bottom"/>
  <anchor x="333" y="647" name="top"/>
  <outline>
    <contour>
      <point x="653" y="-242" type="curve" smooth="yes"/>
      <point x="690" y="-242"/>
      <point x="829" y="-141"/>
      <point x="829" y="-141" type="curve"/>
      <point x="812" y="-73" type="line"/>
      <point x="800" y="-62" type="line"/>
      <point x="800" y="-62"/>
      <point x="754" y="-72"/>
      <point x="709" y="-72" type="curve" smooth="yes"/>
      <point x="644" y="-72"/>
      <point x="557" y="-37"/>
      <point x="485" y="18" type="curve"/>
      <point x="485" y="32" type="line"/>
      <point x="581" y="90"/>
      <point x="640" y="199"/>
      <point x="640" y="340" type="curve" smooth="yes"/>
      <point x="640" y="551"/>
      <point x="540" y="659"/>
      <point x="342" y="659" type="curve" smooth="yes"/>
      <point x="130" y="659"/>
      <point x="15" y="536"/>
      <point x="15" y="312" type="curve" smooth="yes"/>
      <point x="15" y="103"/>
      <point x="120" y="-12"/>
      <point x="313" y="-12" type="curve"/>
      <point x="519" y="-207"/>
      <point x="571" y="-242"/>
    </contour>
    <contour>
      <point x="332" y="114" type="curve" smooth="yes"/>
      <point x="267" y="114"/>
      <point x="244" y="179"/>
      <point x="244" y="361" type="curve" smooth="yes"/>
      <point x="244" y="478"/>
      <point x="265" y="522"/>
      <point x="321" y="522" type="curve" smooth="yes"/>
      <point x="388" y="522"/>
      <point x="411" y="459"/>
      <point x="411" y="277" type="curve" smooth="yes"/>
      <point x="411" y="159"/>
      <point x="389" y="114"/>
    </contour>
  </outline>
</glyph>
<glyph name="U" format="2">
  <advance width="627"/>
  <unicode hex="0055"/>
  <anchor x="314" y="0" name="bottom"/>
  <anchor x="564" y="10" name="ogonek"/>
  <anchor x="314" y="647" name="top"/>
  <anchor x="607" y="647" name="topright"/>
  <outline>
    <contour>
      <point x="305" y="-12" type="curve" smooth="yes"/>
      <point x="481" y="-12"/>
      <point x="572" y="72"/>
      <point x="572" y="234" type="curve" smooth="yes"/>
      <point x="572" y="516" type="line" smooth="yes"/>
      <point x="572" y="540"/>
      <point x="578" y="546"/>
      <point x="620" y="560" type="curve"/>
      <point x="628" y="650" type="line"/>
      <point x="628" y="650"/>
      <point x="545" y="647"/>
      <point x="484" y="647" type="curve" smooth="yes"/>
      <point x="447" y="647"/>
      <point x="364" y="650"/>
      <point x="364" y="650" type="curve"/>
      <point x="353" y="561" type="line"/>
      <point x="356" y="557" type="line"/>
      <point x="356" y="557"/>
      <point x="369" y="559"/>
      <point x="379" y="559" type="curve" smooth="yes"/>
      <point x="399" y="559"/>
      <point x="405" y="546"/>
      <point x="405" y="505" type="curve" smooth="yes"/>
      <point x="405" y="505"/>
      <point x="406" y="265"/>
      <point x="406" y="203" type="curve" smooth="yes"/>
      <point x="406" y="141"/>
      <point x="384" y="115"/>
      <point x="334" y="115" type="curve" smooth="yes"/>
      <point x="284" y="115"/>
      <point x="257" y="156"/>
      <point x="257" y="220" type="curve"/>
      <point x="263" y="509" type="line" smooth="yes"/>
      <point x="264" y="540"/>
      <point x="276" y="555"/>
      <point x="311" y="558" type="curve"/>
      <point x="321" y="651" type="line"/>
      <point x="321" y="651"/>
      <point x="226" y="647"/>
      <point x="187" y="647" type="curve" smooth="yes"/>
      <point x="108" y="647"/>
      <point x="10" y="650"/>
      <point x="10" y="650" type="curve"/>
      <point x="0" y="561" type="line"/>
      <point x="2" y="557" type="line"/>
      <point x="2" y="557"/>
      <point x="21" y="559"/>
      <point x="31" y="559" type="curve" smooth="yes"/>
      <point x="54" y="559"/>
      <point x="59" y="549"/>
      <point x="59" y="505" type="curve" smooth="yes"/>
      <point x="59" y="199" type="line" smooth="yes"/>
      <point x="59" y="52"/>
      <point x="134" y="-12"/>
    </contour>
  </outline>
</glyph>
<glyph name="Y" format="2">
  <advance width="663"/>
  <unicode hex="0059"/>
  <anchor x="332" y="0" name="bottom"/>
  <anchor x="336" y="201" name="center"/>
  <anchor x="352" y="647" name="top"/>
  <anchor x="20" y="647" name="topleft"/>
  <outline>
    <contour>
      <point x="127" y="-9" type="line"/>
      <point x="127" y="-9"/>
      <point x="264" y="0"/>
      <point x="328" y="0" type="curve" smooth="yes"/>
      <point x="386" y="0"/>
      <point x="535" y="-6"/>
      <point x="535" y="-6" type="curve"/>
      <point x="544" y="88" type="line"/>
      <point x="539" y="94" type="line"/>
      <point x="539" y="94"/>
      <point x="513" y="91"/>
      <point x="488" y="91" type="curve" smooth="yes"/>
      <point x="450" y="91"/>
      <point x="438" y="107"/>
      <point x="438" y="154" type="curve" smooth="yes"/>
      <point x="438" y="188"/>
      <point x="438" y="212"/>
      <point x="453" y="247" type="curve" smooth="yes"/>
      <point x="544" y="429" type="line" smooth="yes"/>
      <point x="572" y="485"/>
      <point x="613" y="531"/>
      <point x="655" y="555" type="curve"/>
      <point x="663" y="642" type="line"/>
      <point x="659" y="650" type="line"/>
      <point x="659" y="650"/>
      <point x="598" y="646"/>
      <point x="546" y="646" type="curve" smooth="yes"/>
      <point x="493" y="646"/>
      <point x="441" y="646"/>
      <point x="388" y="646" type="curve"/>
      <point x="380" y="567" type="line"/>
      <point x="383" y="561" type="line"/>
      <point x="411" y="561"/>
      <point x="421" y="557"/>
      <point x="421" y="545" type="curve" smooth="yes"/>
      <point x="421" y="535"/>
      <point x="416" y="519"/>
      <point x="408" y="501" type="curve" smooth="yes"/>
      <point x="367" y="387" type="line"/>
      <point x="353" y="387" type="line"/>
      <point x="333" y="437"/>
      <point x="297" y="519"/>
      <point x="297" y="535" type="curve" smooth="yes"/>
      <point x="297" y="552"/>
      <point x="310" y="560"/>
      <point x="338" y="560" type="curve"/>
      <point x="347" y="642" type="line"/>
      <point x="340" y="653" type="line"/>
      <point x="340" y="653"/>
      <point x="206" y="646"/>
      <point x="160" y="646" type="curve" smooth="yes"/>
      <point x="127" y="646"/>
      <point x="10" y="648"/>
      <point x="10" y="648" type="curve"/>
      <point x="0" y="557" type="line"/>
      <point x="4" y="551" type="line"/>
      <point x="49" y="532"/>
      <point x="83" y="504"/>
      <point x="103" y="467" type="curve" smooth="yes"/>
      <point x="210" y="268" type="line" smooth="yes"/>
      <point x="231" y="229"/>
      <point x="238" y="207"/>
      <point x="238" y="178" type="curve" smooth="yes"/>
      <point x="238" y="162" type="line" smooth="yes"/>
      <point x="238" y="103"/>
      <point x="220" y="89"/>
      <point x="135" y="83" type="curve"/>
    </contour>
  </outline>
</glyph>
<glyph name="underscore" format="2">
  <advance width="448"/>
  <unicode hex="005F"/>
  <outline>
    <contour>
      <point x="-1" y="-219" type="line"/>
      <point x="147" y="-219"/>
      <point x="298" y="-218"/>
      <point x="447" y="-218" type="curve"/>
      <point x="461" y="-112" type="line"/>
      <point x="451" y="-93" type="line"/>
      <point x="451" y="-93"/>
      <point x="428" y="-95"/>
      <point x="364" y="-95" type="curve" smooth="yes"/>
      <point x="323" y="-95"/>
      <point x="283" y="-95"/>
      <point x="242" y="-95" type="curve" smooth="yes"/>
      <point x="161" y="-95"/>
      <point x="80" y="-95"/>
      <point x="-1" y="-95" type="curve"/>
      <point x="-12" y="-200" type="line"/>
    </contour>
  </outline>
</glyph>
<glyph name="d" format="2">
  <advance width="536"/>
  <unicode hex="0064"/>
  <anchor x="264" y="0" name="bottom"/>
  <anchor x="376" y="236" name="center"/>
  <anchor x="390" y="730" name="top"/>
  <outline>
    <contour>
      <point x="426" y="-12" type="curve"/>
      <point x="491" y="12"/>
      <point x="541" y="109"/>
      <point x="541" y="109" type="curve"/>
      <point x="524" y="136" type="line"/>
      <point x="524" y="136"/>
      <point x="509" y="128"/>
      <point x="494" y="128" type="curve" smooth="yes"/>
      <point x="481" y="128"/>
      <point x="472" y="142"/>
      <point x="472" y="163" type="curve" smooth="yes"/>
      <point x="472" y="465"/>
      <point x="486" y="691"/>
      <point x="507" y="720" type="curve"/>
      <point x="495" y="742" type="line"/>
      <point x="495" y="742"/>
      <point x="362" y="719"/>
      <point x="238" y="705" type="curve"/>
      <point x="229" y="618" type="line"/>
      <point x="229" y="618"/>
      <point x="245" y="620"/>
      <point x="252" y="620" type="curve" smooth="yes"/>
      <point x="291" y="620"/>
      <point x="300" y="609"/>
      <point x="300" y="561" type="curve" smooth="yes"/>
      <point x="300" y="478" type="line"/>
      <point x="293" y="479"/>
      <point x="284" y="479"/>
      <point x="270" y="479" type="curve" smooth="yes"/>
      <point x="112" y="479"/>
      <point x="14" y="380"/>
      <point x="14" y="221" type="curve" smooth="yes"/>
      <point x="14" y="76"/>
      <point x="82" y="-7"/>
      <point x="201" y="-7" type="curve" smooth="yes"/>
      <point x="211" y="-7"/>
      <point x="249" y="18"/>
      <point x="307" y="63" type="curve"/>
      <point x="313" y="61" type="line"/>
      <point x="320" y="13"/>
      <point x="359" y="-12"/>
    </contour>
    <contour>
      <point x="262" y="119" type="curve" smooth="yes"/>
      <point x="221" y="119"/>
      <point x="202" y="164"/>
      <point x="202" y="262" type="curve" smooth="yes"/>
      <point x="202" y="332"/>
      <point x="219" y="366"/>
      <point x="254" y="366" type="curve" smooth="yes"/>
      <point x="279" y="366"/>
      <point x="300" y="356"/>
      <point x="300" y="356" type="curve"/>
      <point x="300" y="129" type="line"/>
      <point x="300" y="129"/>
      <point x="287" y="119"/>
    </contour>
  </outline>
</glyph>
<glyph name="h" format="2">
  <advance width="554"/>
  <unicode hex="0068"/>
  <anchor x="267" y="0" name="bottom"/>
  <anchor x="277" y="236" name="center"/>
  <anchor x="148" y="700" name="top"/>
  <outline>
    <contour>
      <point x="14" y="81" type="curve"/>
      <point x="3" y="-5" type="line"/>
      <point x="46" y="-2"/>
      <point x="97" y="0"/>
      <point x="129" y="0" type="curve" smooth="yes"/>
      <point x="160" y="0"/>
      <point x="218" y="-2"/>
      <point x="257" y="-4" type="curve"/>
      <point x="268" y="78" type="line"/>
      <point x="265" y="85" type="line"/>
      <point x="262" y="85"/>
      <point x="255" y="84"/>
      <point x="251" y="84" type="curve" smooth="yes"/>
      <point x="234" y="84"/>
      <point x="228" y="92"/>
      <point x="228" y="116" type="curve" smooth="yes"/>
      <point x="228" y="244"/>
      <point x="228" y="274"/>
      <point x="229" y="313" type="curve"/>
      <point x="251" y="330"/>
      <point x="269" y="339"/>
      <point x="281" y="339" type="curve" smooth="yes"/>
      <point x="314" y="339"/>
      <point x="325" y="322"/>
      <point x="324" y="271" type="curve" smooth="yes"/>
      <point x="322" y="130" type="line" smooth="yes"/>
      <point x="321" y="100"/>
      <point x="311" y="87"/>
      <point x="287" y="84" type="curve"/>
      <point x="279" y="-3" type="line"/>
      <point x="316" y="-2"/>
      <point x="375" y="0"/>
      <point x="401" y="0" type="curve" smooth="yes"/>
      <point x="429" y="0"/>
      <point x="490" y="-2"/>
      <point x="531" y="-4" type="curve"/>
      <point x="542" y="80" type="line"/>
      <point x="540" y="84" type="line"/>
      <point x="534" y="84"/>
      <point x="522" y="83"/>
      <point x="515" y="83" type="curve" smooth="yes"/>
      <point x="495" y="83"/>
      <point x="488" y="92"/>
      <point x="488" y="120" type="curve" smooth="yes"/>
      <point x="488" y="160"/>
      <point x="510" y="310"/>
      <point x="510" y="354" type="curve" smooth="yes"/>
      <point x="510" y="439"/>
      <point x="452" y="484"/>
      <point x="344" y="484" type="curve" smooth="yes"/>
      <point x="328" y="484"/>
      <point x="291" y="453"/>
      <point x="230" y="389" type="curve"/>
      <point x="235" y="591"/>
      <point x="246" y="700"/>
      <point x="263" y="716" type="curve"/>
      <point x="254" y="742" type="line"/>
      <point x="178" y="731"/>
      <point x="60" y="716"/>
      <point x="-14" y="706" type="curve"/>
      <point x="-22" y="631" type="line"/>
      <point x="-17" y="624" type="line"/>
      <point x="8" y="624" type="line"/>
      <point x="47" y="624"/>
      <point x="56" y="613"/>
      <point x="56" y="565" type="curve" smooth="yes"/>
      <point x="56" y="133" type="line"/>
      <point x="56" y="97"/>
      <point x="47" y="85"/>
    </contour>
  </outline>
</glyph>
<glyph name="l" format="2">
  <advance width="287"/>
  <unicode hex="006C"/>
  <anchor x="140" y="0" name="bottom"/>
  <anchor x="146" y="720" name="top"/>
  <anchor x="267" y="472" name="topright"/>
  <outline>
    <contour>
      <point x="3" y="-5" type="line"/>
      <point x="46" y="-2"/>
      <point x="97" y="0"/>
      <point x="129" y="0" type="curve" smooth="yes"/>
      <point x="165" y="0"/>
      <point x="221" y="-2"/>
      <point x="273" y="-4" type="curve"/>
      <point x="286" y="76" type="line"/>
      <point x="283" y="83" type="line"/>
      <point x="251" y="82" type="line"/>
      <point x="234" y="82"/>
      <point x="228" y="90"/>
      <point x="228" y="114" type="curve" smooth="yes"/>
      <point x="228" y="467"/>
      <point x="238" y="643"/>
      <point x="263" y="716" type="curve"/>
      <point x="254" y="742" type="line"/>
      <point x="165" y="729"/>
      <point x="75" y="717"/>
      <point x="-14" y="706" type="curve"/>
      <point x="-22" y="631" type="line"/>
      <point x="-17" y="624" type="line"/>
      <point x="49" y="624"/>
      <point x="56" y="618"/>
      <point x="56" y="565" type="curve" smooth="yes"/>
      <point x="56" y="133" type="line" smooth="yes"/>
      <point x="56" y="97"/>
      <point x="47" y="85"/>
      <point x="14" y="81" type="curve"/>
    </contour>
  </outline>
</glyph>
<glyph name="p" format="2">
  <advance width="548"/>
  <unicode hex="0070"/>
  <anchor x="380" y="0" name="bottom"/>
  <anchor x="291" y="472" name="top"/>
  <outline>
    <contour>
      <point x="11" y="-235" type="line"/>
      <point x="11" y="-235"/>
      <point x="96" y="-230"/>
      <point x="150" y="-230" type="curve" smooth="yes"/>
      <point x="195" y="-230"/>
      <point x="302" y="-234"/>
      <point x="302" y="-234" type="curve"/>
      <point x="316" y="-146" type="line"/>
      <point x="313" y="-141" type="line"/>
      <point x="313" y="-141"/>
      <point x="284" y="-144"/>
      <point x="265" y="-144" type="curve" smooth="yes"/>
      <point x="240" y="-144"/>
      <point x="241" y="-127"/>
      <point x="241" y="-86" type="curve" smooth="yes"/>
      <point x="241" y="-59"/>
      <point x="242" y="-32"/>
      <point x="242" y="-6" type="curve" smooth="yes"/>
      <point x="242" y="-6"/>
      <point x="245" y="-7"/>
      <point x="250" y="-7" type="curve" smooth="yes"/>
      <point x="426" y="-7"/>
      <point x="534" y="78"/>
      <point x="534" y="251" type="curve" smooth="yes"/>
      <point x="534" y="389"/>
      <point x="453" y="479"/>
      <point x="329" y="479" type="curve" smooth="yes"/>
      <point x="320" y="479"/>
      <point x="292" y="451"/>
      <point x="247" y="397" type="curve"/>
      <point x="243" y="399" type="line"/>
      <point x="247" y="432"/>
      <point x="255" y="472"/>
      <point x="255" y="472" type="curve"/>
      <point x="243" y="484" type="line"/>
      <point x="243" y="484"/>
      <point x="126" y="463"/>
      <point x="10" y="447" type="curve"/>
      <point x="2" y="372" type="line"/>
      <point x="7" y="365" type="line"/>
      <point x="23" y="365" type="line" smooth="yes"/>
      <point x="62" y="365"/>
      <point x="71" y="354"/>
      <point x="71" y="307" type="curve" smooth="yes"/>
      <point x="71" y="43" type="line" smooth="yes"/>
      <point x="71" y="-3"/>
      <point x="67" y="-50"/>
      <point x="64" y="-96" type="curve" smooth="yes"/>
      <point x="61" y="-135"/>
      <point x="55" y="-146"/>
      <point x="23" y="-148" type="curve"/>
    </contour>
    <contour>
      <point x="294" y="106" type="curve" smooth="yes"/>
      <point x="269" y="106"/>
      <point x="248" y="115"/>
      <point x="248" y="115" type="curve"/>
      <point x="248" y="174"/>
      <point x="250" y="264"/>
      <point x="252" y="338" type="curve"/>
      <point x="263" y="343"/>
      <point x="275" y="346"/>
      <point x="286" y="346" type="curve" smooth="yes"/>
      <point x="328" y="346"/>
      <point x="346" y="306"/>
      <point x="346" y="210" type="curve" smooth="yes"/>
      <point x="346" y="139"/>
      <point x="329" y="106"/>
    </contour>
  </outline>
</glyph>
<glyph name="twosuperior" format="2">
  <advance width="377"/>
  <unicode hex="00B2"/>
  <outline>
    <contour>
      <point x="19" y="396" type="line"/>
      <point x="26" y="323" type="line"/>
      <point x="95" y="327" type="line"/>
      <point x="168" y="327"/>
      <point x="332" y="319"/>
      <point x="332" y="319" type="curve"/>
      <point x="345" y="332" type="line"/>
      <point x="348" y="393"/>
      <point x="363" y="486"/>
      <point x="363" y="486" type="curve"/>
      <point x="276" y="480" type="line"/>
      <point x="273" y="435"/>
      <point x="259" y="419"/>
      <point x="225" y="419" type="curve" smooth="yes"/>
      <point x="194" y="419" type="line"/>
      <point x="191" y="425" type="line"/>
      <point x="283" y="514"/>
      <point x="314" y="565"/>
      <point x="314" y="626" type="curve" smooth="yes"/>
      <point x="314" y="687"/>
      <point x="259" y="728"/>
      <point x="179" y="728" type="curve" smooth="yes"/>
      <point x="125" y="728"/>
      <point x="67" y="699"/>
      <point x="27" y="652" type="curve"/>
      <point x="45" y="566" type="line"/>
      <point x="58" y="566" type="line"/>
      <point x="85" y="595"/>
      <point x="113" y="610"/>
      <point x="138" y="610" type="curve" smooth="yes"/>
      <point x="158" y="610"/>
      <point x="170" y="601"/>
      <point x="170" y="583" type="curve" smooth="yes"/>
      <point x="171" y="562"/>
      <point x="156" y="539"/>
      <point x="113" y="493" type="curve" smooth="yes"/>
    </contour>
  </outline>
</glyph>
<glyph name="Oslash" format="2">
  <advance width="655"/>
  <unicode hex="00D8"/>
  <anchor x="328" y="647" name="top"/>
  <outline>
    <contour>
      <point x="264" y="112" type="line"/>
      <point x="516" y="488" type="line"/>
      <point x="421" y="559" type="line"/>
      <point x="171" y="182" type="line"/>
    </contour>
    <contour>
      <point x="115" y="-117" type="line"/>
      <point x="264" y="112" type="line"/>
      <point x="171" y="182" type="line"/>
      <point x="16" y="-52" type="line"/>
      <point x="20" y="-62" type="line"/>
    </contour>
    <contour>
      <point x="516" y="488" type="line"/>
      <point x="649" y="685" type="line"/>
      <point x="647" y="698" type="line"/>
      <point x="550" y="752" type="line"/>
      <point x="421" y="559" type="line"/>
    </contour>
    <component base="O"/>
  </outline>
</glyph>
<glyph name="eth" format="2">
  <advance width="508"/>
  <unicode hex="00F0"/>
  <outline>
    <contour>
      <point x="245" y="-12" type="curve" smooth="yes"/>
      <point x="402" y="-12"/>
      <point x="495" y="89"/>
      <point x="495" y="258" type="curve" smooth="yes"/>
      <point x="495" y="382"/>
      <point x="433" y="501"/>
      <point x="322" y="599" type="curve"/>
      <point x="413" y="645" type="line"/>
      <point x="382" y="738" type="line"/>
      <point x="373" y="742" type="line"/>
      <point x="229" y="668" type="line"/>
      <point x="186" y="695"/>
      <point x="138" y="720"/>
      <point x="86" y="742" type="curve"/>
      <point x="70" y="734" type="line"/>
      <point x="19" y="653" type="line"/>
      <point x="47" y="634"/>
      <point x="73" y="617"/>
      <point x="96" y="600" type="curve"/>
      <point x="17" y="559" type="line"/>
      <point x="48" y="465" type="line"/>
      <point x="58" y="463" type="line"/>
      <point x="183" y="527" type="line"/>
      <point x="206" y="505"/>
      <point x="225" y="483"/>
      <point x="240" y="460" type="curve"/>
      <point x="236" y="451" type="line"/>
      <point x="223" y="455"/>
      <point x="209" y="459"/>
      <point x="196" y="463" type="curve" smooth="yes"/>
      <point x="78" y="463"/>
      <point x="13" y="360"/>
      <point x="13" y="234" type="curve" smooth="yes"/>
      <point x="13" y="70"/>
      <point x="97" y="-12"/>
    </contour>
    <contour>
      <point x="261" y="95" type="curve" smooth="yes"/>
      <point x="217" y="95"/>
      <point x="204" y="126"/>
      <point x="204" y="230" type="curve" smooth="yes"/>
      <point x="204" y="335"/>
      <point x="210" y="349"/>
      <point x="253" y="349" type="curve" smooth="yes"/>
      <point x="269" y="349"/>
      <point x="280" y="345"/>
      <point x="289" y="339" type="curve"/>
      <point x="297" y="299"/>
      <point x="301" y="254"/>
      <point x="301" y="202" type="curve" smooth="yes"/>
      <point x="301" y="122"/>
      <point x="291" y="95"/>
    </contour>
  </outline>
</glyph>
<glyph name="thorn" format="2">
  <advance width="516"/>
  <unicode hex="00FE"/>
  <anchor x="217" y="0" name="bottom"/>
  <anchor x="217" y="463" name="top"/>
  <outline>
    <contour>
      <point x="-14" y="-235" type="line"/>
      <point x="42" y="-232"/>
      <point x="99" y="-230"/>
      <point x="130" y="-230" type="curve" smooth="yes"/>
      <point x="162" y="-230"/>
      <point x="239" y="-232"/>
      <point x="290" y="-234" type="curve"/>
      <point x="304" y="-146" type="line"/>
      <point x="301" y="-141" type="line"/>
      <point x="231" y="-150"/>
      <point x="219" y="-144"/>
      <point x="219" y="-96" type="curve" smooth="yes"/>
      <point x="220" y="-6" type="line"/>
      <point x="252" y="-7" type="line"/>
      <point x="410" y="-7"/>
      <point x="508" y="92"/>
      <point x="508" y="251" type="curve" smooth="yes"/>
      <point x="508" y="396"/>
      <point x="440" y="479"/>
      <point x="321" y="479" type="curve" smooth="yes"/>
      <point x="309" y="479"/>
      <point x="263" y="446"/>
      <point x="226" y="420" type="curve"/>
      <point x="231" y="605"/>
      <point x="241" y="701"/>
      <point x="257" y="716" type="curve"/>
      <point x="248" y="742" type="line"/>
      <point x="172" y="731"/>
      <point x="54" y="716"/>
      <point x="-20" y="706" type="curve"/>
      <point x="-29" y="624" type="line"/>
      <point x="40" y="627"/>
      <point x="50" y="620"/>
      <point x="50" y="565" type="curve" smooth="yes"/>
      <point x="50" y="55" type="line"/>
      <point x="44" y="-96" type="line" smooth="yes"/>
      <point x="42" y="-137"/>
      <point x="34" y="-146"/>
      <point x="-2" y="-148" type="curve"/>
    </contour>
    <contour>
      <point x="268" y="106" type="curve"/>
      <point x="222" y="115" type="line"/>
      <point x="222" y="343" type="line"/>
      <point x="228" y="349"/>
      <point x="244" y="353"/>
      <point x="260" y="353" type="curve" smooth="yes"/>
      <point x="301" y="353"/>
      <point x="320" y="308"/>
      <point x="320" y="210" type="curve" smooth="yes"/>
      <point x="320" y="140"/>
      <point x="303" y="106"/>
    </contour>
  </outline>
</glyph>
<glyph name="aogonek" format="2">
  <advance width="494"/>
  <unicode hex="0105"/>
  <outline>
    <contour>
      <point x="384" y="-242" type="curve"/>
      <point x="413" y="-238"/>
      <point x="449" y="-214"/>
      <point x="497" y="-167" type="curve"/>
      <point x="464" y="-115" type="line"/>
      <point x="443" y="-129"/>
      <point x="421" y="-138"/>
      <point x="405" y="-138" type="curve" smooth="yes"/>
      <point x="391" y="-138"/>
      <point x="383" y="-130"/>
      <point x="383" y="-116" type="curve" smooth="yes"/>
      <point x="383" y="-64"/>
      <point x="476" y="60"/>
      <point x="502" y="109" type="curve"/>
      <point x="485" y="136" type="line"/>
      <point x="477" y="133"/>
      <point x="463" y="128"/>
      <point x="451" y="128" type="curve" smooth="yes"/>
      <point x="434" y="128"/>
      <point x="422" y="142"/>
      <point x="422" y="162" type="curve" smooth="yes"/>
      <point x="422" y="190"/>
      <point x="444" y="307"/>
      <point x="444" y="339" type="curve" smooth="yes"/>
      <point x="444" y="412"/>
      <point x="397" y="484"/>
      <point x="245" y="484" type="curve" smooth="yes"/>
      <point x="207" y="484"/>
      <point x="104" y="437"/>
      <point x="37" y="401" type="curve"/>
      <point x="62" y="321" type="line"/>
      <point x="74" y="315" type="line"/>
      <point x="101" y="333"/>
      <point x="151" y="358"/>
      <point x="189" y="358" type="curve" smooth="yes"/>
      <point x="240" y="358"/>
      <point x="271" y="331"/>
      <point x="271" y="286" type="curve" smooth="yes"/>
      <point x="271" y="285" type="line"/>
      <point x="75" y="249" type="line" smooth="yes"/>
      <point x="37" y="241"/>
      <point x="11" y="206"/>
      <point x="11" y="162" type="curve" smooth="yes"/>
      <point x="11" y="67"/>
      <point x="76" y="-8"/>
      <point x="158" y="-8" type="curve" smooth="yes"/>
      <point x="189" y="-8"/>
      <point x="238" y="34"/>
      <point x="269" y="66" type="curve"/>
      <point x="281" y="61" type="line"/>
      <point x="285.015" y="29.547"/>
      <point x="304.705" y="7.5"/>
      <point x="337.071" y="-3.645" type="curve"/>
      <point x="271.37" y="-81.903"/>
      <point x="259" y="-105.586"/>
      <point x="259" y="-138" type="curve" smooth="yes"/>
      <point x="259" y="-199"/>
      <point x="311" y="-242"/>
    </contour>
    <contour>
      <point x="219" y="120" type="curve" smooth="yes"/>
      <point x="194" y="120"/>
      <point x="179" y="143"/>
      <point x="179" y="174" type="curve" smooth="yes"/>
      <point x="179" y="188"/>
      <point x="183" y="193"/>
      <point x="197" y="196" type="curve" smooth="yes"/>
      <point x="269" y="212" type="line"/>
      <point x="268" y="126" type="line"/>
      <point x="254" y="123"/>
      <point x="234" y="120"/>
    </contour>
  </outline>
</glyph>
<glyph name="dcaron" format="2">
  <advance width="663"/>
  <unicode hex="010F"/>
  <outline>
    <contour>
      <point x="558" y="435" type="line"/>
      <point x="631" y="460" type="line"/>
      <point x="657" y="572"/>
      <point x="673" y="681"/>
      <point x="673" y="681" type="curve"/>
      <point x="664" y="693" type="line"/>
      <point x="530" y="679" type="line"/>
      <point x="530" y="679"/>
      <point x="541" y="561"/>
      <point x="539" y="441" type="curve"/>
    </contour>
    <component base="d"/>
  </outline>
</glyph>
<glyph name="eogonek" format="2">
  <advance width="479"/>
  <unicode hex="0119"/>
  <outline>
    <contour>
      <point x="259" y="-12" type="curve" smooth="yes"/>
      <point x="346" y="-12"/>
      <point x="451" y="72"/>
      <point x="451" y="72" type="curve"/>
      <point x="429" y="143" type="line"/>
      <point x="420" y="148" type="line"/>
      <point x="420" y="148"/>
      <point x="366" y="119"/>
      <point x="302" y="119" type="curve" smooth="yes"/>
      <point x="244" y="119"/>
      <point x="212" y="143"/>
      <point x="203" y="206" type="curve" smooth="yes"/>
      <point x="203" y="208" type="line"/>
      <point x="440" y="208" type="line"/>
      <point x="451" y="218" type="line"/>
      <point x="451" y="218"/>
      <point x="459" y="251"/>
      <point x="459" y="284" type="curve" smooth="yes"/>
      <point x="459" y="418"/>
      <point x="396" y="484"/>
      <point x="269" y="484" type="curve" smooth="yes"/>
      <point x="114" y="484"/>
      <point x="14" y="384"/>
      <point x="14" y="230" type="curve" smooth="yes"/>
      <point x="14" y="75"/>
      <point x="102" y="-12"/>
    </contour>
    <contour>
      <point x="356" y="-242" type="curve"/>
      <point x="385" y="-238"/>
      <point x="421" y="-214"/>
      <point x="469" y="-167" type="curve"/>
      <point x="436" y="-115" type="line"/>
      <point x="415" y="-129"/>
      <point x="393" y="-138"/>
      <point x="377" y="-138" type="curve" smooth="yes"/>
      <point x="363" y="-138"/>
      <point x="355" y="-130"/>
      <point x="355" y="-116" type="curve" smooth="yes"/>
      <point x="355" y="-88"/>
      <point x="378" y="-40"/>
      <point x="451" y="72" type="curve"/>
      <point x="348" y="42" type="line"/>
      <point x="248" y="-74"/>
      <point x="231" y="-100"/>
      <point x="231" y="-138" type="curve" smooth="yes"/>
      <point x="231" y="-199"/>
      <point x="283" y="-242"/>
    </contour>
    <contour>
      <point x="198" y="284" type="line"/>
      <point x="198" y="348"/>
      <point x="213" y="373"/>
      <point x="253" y="373" type="curve" smooth="yes"/>
      <point x="280" y="373"/>
      <point x="293" y="352"/>
      <point x="293" y="308" type="curve" smooth="yes"/>
      <point x="293" y="294"/>
      <point x="291" y="291"/>
      <point x="281" y="290" type="curve" smooth="yes"/>
    </contour>
  </outline>
</glyph>
<glyph name="hbar" format="2">
  <advance width="558"/>
  <unicode hex="0127"/>
  <outline>
    <contour>
      <point x="-24" y="508" type="line"/>
      <point x="-24" y="508"/>
      <point x="80" y="509"/>
      <point x="156" y="509" type="curve" smooth="yes"/>
      <point x="353" y="509" type="line"/>
      <point x="358" y="564" type="line"/>
      <point x="343" y="579" type="line"/>
      <point x="343" y="579"/>
      <point x="238" y="575"/>
      <point x="182" y="575" type="curve" smooth="yes"/>
      <point x="99" y="575"/>
      <point x="-27" y="576"/>
      <point x="-27" y="576" type="curve"/>
      <point x="-35" y="518" type="line"/>
    </contour>
    <component base="h" xOffset="4"/>
  </outline>
</glyph>
<glyph name="kgreenlandic" format="2">
  <advance width="564"/>
  <unicode hex="0138"/>
  <outline>
    <contour>
      <point x="255" y="233" type="line"/>
      <point x="335" y="65" type="line" smooth="yes"/>
      <point x="362" y="7"/>
      <point x="386" y="-12"/>
      <point x="435" y="-16" type="curve" smooth="yes"/>
      <point x="444" y="-16"/>
      <point x="466" y="-14"/>
      <point x="489" y="-12" type="curve" smooth="yes"/>
      <point x="524" y="-9"/>
      <point x="561" y="-5"/>
      <point x="561" y="-5" type="curve"/>
      <point x="570" y="69" type="line"/>
      <point x="564" y="80" type="line"/>
      <point x="528" y="87"/>
      <point x="502" y="108"/>
      <point x="484" y="146" type="curve" smooth="yes"/>
      <point x="422" y="270" type="line"/>
      <point x="463" y="311"/>
      <point x="506" y="358"/>
      <point x="559" y="385" type="curve"/>
      <point x="569" y="470" type="line"/>
      <point x="566" y="475" type="line"/>
      <point x="566" y="475"/>
      <point x="500" y="472"/>
      <point x="445" y="472" type="curve" smooth="yes"/>
      <point x="379" y="472"/>
      <point x="301" y="474"/>
      <point x="301" y="474" type="curve"/>
      <point x="292" y="401" type="line"/>
      <point x="295" y="396" type="line"/>
      <point x="331" y="396"/>
      <point x="344" y="391"/>
      <point x="344" y="376" type="curve" smooth="yes"/>
      <point x="344" y="366"/>
      <point x="340" y="358"/>
      <point x="327" y="344" type="curve" smooth="yes"/>
      <point x="258" y="265" type="line"/>
    </contour>
    <contour>
      <point x="26" y="81" type="curve"/>
      <point x="15" y="-5" type="line"/>
      <point x="15" y="-5"/>
      <point x="93" y="0"/>
      <point x="151" y="0" type="curve" smooth="yes"/>
      <point x="193" y="0"/>
      <point x="279" y="-6"/>
      <point x="279" y="-6" type="curve"/>
      <point x="292" y="76" type="line"/>
      <point x="289" y="83" type="line"/>
      <point x="289" y="83"/>
      <point x="277" y="82"/>
      <point x="273" y="82" type="curve" smooth="yes"/>
      <point x="256" y="82"/>
      <point x="250" y="90"/>
      <point x="250" y="114" type="curve" smooth="yes"/>
      <point x="250" y="414"/>
      <point x="257" y="446"/>
      <point x="265" y="472" type="curve"/>
      <point x="254" y="484" type="line"/>
      <point x="254" y="484"/>
      <point x="127" y="466"/>
      <point x="15" y="458" type="curve"/>
      <point x="7" y="383" type="line"/>
      <point x="12" y="376" type="line"/>
      <point x="69" y="375"/>
      <point x="78" y="364"/>
      <point x="78" y="317" type="curve" smooth="yes"/>
      <point x="78" y="133" type="line" smooth="yes"/>
      <point x="78" y="97"/>
      <point x="59" y="85"/>
    </contour>
  </outline>
</glyph>
<glyph name="lcaron" format="2">
  <advance width="418"/>
  <unicode hex="013E"/>
  <outline>
    <contour>
      <point x="313" y="427" type="line"/>
      <point x="386" y="452" type="line"/>
      <point x="412" y="564"/>
      <point x="428" y="673"/>
      <point x="428" y="673" type="curve"/>
      <point x="419" y="685" type="line"/>
      <point x="285" y="671" type="line"/>
      <point x="285" y="671"/>
      <point x="296" y="553"/>
      <point x="294" y="433" type="curve"/>
    </contour>
    <component base="l"/>
  </outline>
</glyph>
<glyph name="Lslash" format="2">
  <advance width="582"/>
  <unicode hex="0141"/>
  <outline>
    <contour>
      <point x="56" y="210" type="line"/>
      <point x="217" y="290" type="line"/>
      <point x="217" y="268" type="line"/>
      <point x="437" y="378" type="line"/>
      <point x="406" y="471" type="line"/>
      <point x="397" y="475" type="line"/>
      <point x="217" y="385" type="line"/>
      <point x="217" y="407" type="line"/>
      <point x="15" y="306" type="line"/>
      <point x="46" y="212" type="line"/>
    </contour>
    <component base="L" xOffset="25"/>
  </outline>
</glyph>
<glyph name="lslash" format="2">
  <advance width="346"/>
  <unicode hex="0142"/>
  <outline>
    <contour>
      <point x="35" y="242" type="line"/>
      <point x="196" y="322" type="line"/>
      <point x="196" y="300" type="line"/>
      <point x="353" y="379" type="line"/>
      <point x="322" y="472" type="line"/>
      <point x="313" y="476" type="line"/>
      <point x="196" y="417" type="line"/>
      <point x="196" y="439" type="line"/>
      <point x="-6" y="338" type="line"/>
      <point x="25" y="244" type="line"/>
    </contour>
    <component base="l" xOffset="30"/>
  </outline>
</glyph>
<glyph name="Eng" format="2">
  <advance width="736"/>
  <unicode hex="014A"/>
  <outline>
    <contour>
      <point x="427" y="-172" type="line"/>
      <point x="589" y="-127"/>
      <point x="657" y="-49"/>
      <point x="661" y="85" type="curve" smooth="yes"/>
      <point x="672" y="501" type="line" smooth="yes"/>
      <point x="673" y="542"/>
      <point x="687" y="558"/>
      <point x="731" y="564" type="curve"/>
      <point x="736" y="651" type="line"/>
      <point x="736" y="651"/>
      <point x="649" y="648"/>
      <point x="603" y="647" type="curve" smooth="yes"/>
      <point x="573" y="647"/>
      <point x="439" y="651"/>
      <point x="439" y="651" type="curve"/>
      <point x="434" y="572" type="line"/>
      <point x="439" y="562" type="line"/>
      <point x="439" y="562"/>
      <point x="463" y="563"/>
      <point x="470" y="563" type="curve" smooth="yes"/>
      <point x="494" y="563"/>
      <point x="503" y="553"/>
      <point x="503" y="520" type="curve" smooth="yes"/>
      <point x="507" y="318" type="line"/>
      <point x="493" y="318" type="line" smooth="yes"/>
      <point x="493" y="318"/>
      <point x="383" y="484"/>
      <point x="289" y="651" type="curve"/>
      <point x="289" y="651"/>
      <point x="219" y="647"/>
      <point x="168" y="647" type="curve" smooth="yes"/>
      <point x="114" y="647"/>
      <point x="23" y="652"/>
      <point x="23" y="652" type="curve"/>
      <point x="17" y="575" type="line"/>
      <point x="28" y="561" type="line"/>
      <point x="93" y="554"/>
      <point x="104" y="541"/>
      <point x="104" y="499" type="curve" smooth="yes"/>
      <point x="92" y="143" type="line" smooth="yes"/>
      <point x="91" y="101"/>
      <point x="74" y="83"/>
      <point x="35" y="78" type="curve"/>
      <point x="25" y="-8" type="line"/>
      <point x="25" y="-8"/>
      <point x="105" y="0"/>
      <point x="145" y="0" type="curve" smooth="yes"/>
      <point x="224" y="0"/>
      <point x="325" y="-4"/>
      <point x="325" y="-4" type="curve"/>
      <point x="335" y="78" type="line"/>
      <point x="327" y="86" type="line"/>
      <point x="327" y="86"/>
      <point x="303" y="83"/>
      <point x="292" y="83" type="curve" smooth="yes"/>
      <point x="263" y="83"/>
      <point x="254" y="95"/>
      <point x="253" y="133" type="curve" smooth="yes"/>
      <point x="251" y="331" type="line"/>
      <point x="265" y="331" type="line"/>
      <point x="265" y="331"/>
      <point x="360" y="188"/>
      <point x="474" y="0" type="curve"/>
      <point x="462" y="-42"/>
      <point x="440" y="-72"/>
      <point x="391" y="-111" type="curve"/>
      <point x="389" y="-126" type="line"/>
    </contour>
  </outline>
</glyph>
<glyph name="oe" format="2">
  <advance width="770"/>
  <unicode hex="0153"/>
  <anchor x="405" y="472" name="top"/>
  <outline>
    <contour>
      <point x="244" y="-12" type="curve" smooth="yes"/>
      <point x="324" y="-12"/>
      <point x="397" y="54"/>
      <point x="397" y="54" type="curve"/>
      <point x="397" y="54"/>
      <point x="459" y="-12"/>
      <point x="550" y="-12" type="curve" smooth="yes"/>
      <point x="637" y="-12"/>
      <point x="742" y="69"/>
      <point x="742" y="69" type="curve"/>
      <point x="720" y="143" type="line"/>
      <point x="711" y="148" type="line"/>
      <point x="711" y="148"/>
      <point x="657" y="119"/>
      <point x="593" y="119" type="curve" smooth="yes"/>
      <point x="535" y="119"/>
      <point x="505" y="142"/>
      <point x="494" y="205" type="curve" smooth="yes"/>
      <point x="494" y="208" type="line"/>
      <point x="731" y="208" type="line"/>
      <point x="742" y="218" type="line"/>
      <point x="742" y="218"/>
      <point x="750" y="251"/>
      <point x="750" y="284" type="curve" smooth="yes"/>
      <point x="750" y="399"/>
      <point x="705" y="484"/>
      <point x="560" y="484" type="curve" smooth="yes"/>
      <point x="478" y="484"/>
      <point x="410" y="421"/>
      <point x="410" y="421" type="curve"/>
      <point x="410" y="421"/>
      <point x="343" y="484"/>
      <point x="266" y="484" type="curve" smooth="yes"/>
      <point x="108" y="484"/>
      <point x="14" y="388"/>
      <point x="14" y="225" type="curve" smooth="yes"/>
      <point x="14" y="78"/>
      <point x="102" y="-12"/>
    </contour>
    <contour>
      <point x="256" y="95" type="curve" smooth="yes"/>
      <point x="216" y="95"/>
      <point x="204" y="135"/>
      <point x="204" y="271" type="curve" smooth="yes"/>
      <point x="204" y="342"/>
      <point x="215" y="364"/>
      <point x="250" y="364" type="curve" smooth="yes"/>
      <point x="290" y="364"/>
      <point x="302" y="325"/>
      <point x="302" y="191" type="curve" smooth="yes"/>
      <point x="302" y="117"/>
      <point x="291" y="95"/>
    </contour>
    <contour>
      <point x="489" y="282" type="line"/>
      <point x="489" y="347"/>
      <point x="503" y="373"/>
      <point x="544" y="373" type="curve" smooth="yes"/>
      <point x="571" y="373"/>
      <point x="584" y="352"/>
      <point x="584" y="308" type="curve" smooth="yes"/>
      <point x="584" y="294"/>
      <point x="582" y="291"/>
      <point x="572" y="290" type="curve" smooth="yes"/>
    </contour>
  </outline>
</glyph>
<glyph name="tbar" format="2">
  <advance width="357"/>
  <unicode hex="0167"/>
  <outline>
    <contour>
      <point x="0" y="211" type="line"/>
      <point x="0" y="211"/>
      <point x="94" y="212"/>
      <point x="170" y="212" type="curve" smooth="yes"/>
      <point x="337" y="212" type="line"/>
      <point x="342" y="267" type="line"/>
      <point x="327" y="282" type="line"/>
      <point x="327" y="282"/>
      <point x="252" y="278"/>
      <point x="196" y="278" type="curve" smooth="yes"/>
      <point x="113" y="278"/>
      <point x="-3" y="279"/>
      <point x="-3" y="279" type="curve"/>
      <point x="-11" y="221" type="line"/>
    </contour>
    <component base="t" xOffset="14"/>
  </outline>
</glyph>
<glyph name="Schwa" format="2">
  <advance width="642"/>
  <unicode hex="018F"/>
  <anchor x="317" y="0" name="bottom"/>
  <anchor x="317" y="647" name="top"/>
  <outline>
    <contour>
      <point x="301" y="-12" type="curve" smooth="yes"/>
      <point x="505" y="-12"/>
      <point x="629" y="116"/>
      <point x="629" y="325" type="curve" smooth="yes"/>
      <point x="629" y="529"/>
      <point x="506" y="659"/>
      <point x="312" y="659" type="curve" smooth="yes"/>
      <point x="219" y="659"/>
      <point x="145" y="632"/>
      <point x="31" y="555" type="curve"/>
      <point x="55" y="477" type="line"/>
      <point x="67" y="472" type="line"/>
      <point x="119" y="496"/>
      <point x="192" y="512"/>
      <point x="249" y="512" type="curve" smooth="yes"/>
      <point x="363" y="512"/>
      <point x="402" y="457"/>
      <point x="402" y="294" type="curve" smooth="yes"/>
      <point x="402" y="167"/>
      <point x="378" y="114"/>
      <point x="321" y="114" type="curve" smooth="yes"/>
      <point x="262" y="114"/>
      <point x="237" y="169"/>
      <point x="234" y="307" type="curve"/>
      <point x="4" y="314" type="line"/>
      <point x="6" y="100"/>
      <point x="108" y="-12"/>
    </contour>
    <contour>
      <point x="46" y="237" type="line"/>
      <point x="503" y="256" type="line"/>
      <point x="503" y="336" type="line"/>
      <point x="15" y="336" type="line"/>
      <point x="4" y="314" type="line"/>
    </contour>
  </outline>
</glyph>
<glyph name="Uhorn" format="2">
  <advance width="667"/>
  <unicode hex="01AF"/>
  <anchor x="341" y="647" name="top"/>
  <outline>
    <contour>
      <point x="305" y="-12" type="curve" smooth="yes"/>
      <point x="481" y="-12"/>
      <point x="572" y="72"/>
      <point x="572" y="234" type="curve" smooth="yes"/>
      <point x="572" y="516" type="line" smooth="yes"/>
      <point x="572" y="554"/>
      <point x="577" y="568"/>
      <point x="637" y="604" type="curve" smooth="yes"/>
      <point x="686" y="637"/>
      <point x="708" y="669"/>
      <point x="708" y="731" type="curve" smooth="yes"/>
      <point x="708" y="786"/>
      <point x="674" y="822"/>
      <point x="623" y="822" type="curve" smooth="yes"/>
      <point x="597" y="822"/>
      <point x="562" y="805"/>
      <point x="531" y="778" type="curve"/>
      <point x="528" y="764" type="line"/>
      <point x="546" y="747"/>
      <point x="557" y="722"/>
      <point x="557" y="698" type="curve" smooth="yes"/>
      <point x="557" y="663"/>
      <point x="540" y="647"/>
      <point x="500" y="647" type="curve" smooth="yes"/>
      <point x="455" y="647"/>
      <point x="364" y="650"/>
      <point x="364" y="650" type="curve"/>
      <point x="353" y="561" type="line"/>
      <point x="356" y="557" type="line"/>
      <point x="356" y="557"/>
      <point x="369" y="559"/>
      <point x="379" y="559" type="curve" smooth="yes"/>
      <point x="399" y="559"/>
      <point x="405" y="546"/>
      <point x="405" y="505" type="curve"/>
      <point x="405" y="505"/>
      <point x="406" y="265"/>
      <point x="406" y="203" type="curve" smooth="yes"/>
      <point x="406" y="141"/>
      <point x="384" y="115"/>
      <point x="334" y="115" type="curve" smooth="yes"/>
      <point x="286" y="115"/>
      <point x="257" y="154"/>
      <point x="257" y="220" type="curve"/>
      <point x="263" y="509" type="line"/>
      <point x="264" y="541"/>
      <point x="277" y="554"/>
      <point x="311" y="558" type="curve"/>
      <point x="321" y="651" type="line"/>
      <point x="321" y="651"/>
      <point x="226" y="647"/>
      <point x="187" y="647" type="curve" smooth="yes"/>
      <point x="108" y="647"/>
      <point x="10" y="650"/>
      <point x="10" y="650" type="curve"/>
      <point x="0" y="561" type="line"/>
      <point x="2" y="557" type="line"/>
      <point x="2" y="557"/>
      <point x="21" y="559"/>
      <point x="31" y="559" type="curve" smooth="yes"/>
      <point x="54" y="559"/>
      <point x="59" y="549"/>
      <point x="59" y="505" type="curve" smooth="yes"/>
      <point x="59" y="199" type="line" smooth="yes"/>
      <point x="59" y="52"/>
      <point x="134" y="-12"/>
    </contour>
  </outline>
</glyph>
<glyph name="uhorn" format="2">
  <advance width="573"/>
  <unicode hex="01B0"/>
  <anchor x="287" y="0" name="bottom"/>
  <anchor x="287" y="472" name="top"/>
  <outline>
    <contour>
      <point x="56" y="325" type="curve"/>
      <point x="47" y="126" type="line"/>
      <point x="47" y="37"/>
      <point x="110" y="-10"/>
      <point x="229" y="-10" type="curve" smooth="yes"/>
      <point x="242" y="-10"/>
      <point x="272" y="19"/>
      <point x="310" y="67" type="curve"/>
      <point x="321" y="61" type="line"/>
      <point x="330" y="12"/>
      <point x="369" y="-12"/>
      <point x="438" y="-12" type="curve"/>
      <point x="502" y="12"/>
      <point x="561" y="110"/>
      <point x="561" y="110" type="curve"/>
      <point x="544" y="136" type="line"/>
      <point x="544" y="136"/>
      <point x="527" y="128"/>
      <point x="511" y="128" type="curve" smooth="yes"/>
      <point x="494" y="128"/>
      <point x="482" y="142"/>
      <point x="482" y="163" type="curve" smooth="yes"/>
      <point x="482" y="260"/>
      <point x="488" y="347"/>
      <point x="499" y="404" type="curve"/>
      <point x="549" y="426"/>
      <point x="589" y="483"/>
      <point x="589" y="531" type="curve" smooth="yes"/>
      <point x="589" y="571"/>
      <point x="571" y="603"/>
      <point x="539" y="616" type="curve" smooth="yes"/>
      <point x="529" y="620"/>
      <point x="517" y="622"/>
      <point x="504" y="622" type="curve" smooth="yes"/>
      <point x="478" y="622"/>
      <point x="443" y="605"/>
      <point x="412" y="578" type="curve"/>
      <point x="409" y="564" type="line"/>
      <point x="427" y="549"/>
      <point x="438" y="527"/>
      <point x="438" y="508" type="curve" smooth="yes"/>
      <point x="438" y="481"/>
      <point x="426" y="468"/>
      <point x="394" y="464" type="curve" smooth="yes"/>
      <point x="340" y="456"/>
      <point x="278" y="448"/>
      <point x="278" y="448" type="curve"/>
      <point x="265" y="366" type="line"/>
      <point x="268" y="366"/>
      <point x="271" y="366"/>
      <point x="274" y="366" type="curve" smooth="yes"/>
      <point x="307" y="363"/>
      <point x="310" y="359"/>
      <point x="310" y="323" type="curve" smooth="yes"/>
      <point x="310" y="150" type="line"/>
      <point x="292" y="140"/>
      <point x="275" y="134"/>
      <point x="264" y="134" type="curve" smooth="yes"/>
      <point x="235" y="134"/>
      <point x="221" y="154"/>
      <point x="221" y="196" type="curve" smooth="yes"/>
      <point x="221" y="316"/>
      <point x="233" y="431"/>
      <point x="249" y="462" type="curve"/>
      <point x="236" y="484" type="line"/>
      <point x="236" y="484"/>
      <point x="118" y="462"/>
      <point x="9" y="449" type="curve"/>
      <point x="1" y="366" type="line"/>
      <point x="1" y="366"/>
      <point x="14" y="367"/>
      <point x="27" y="367" type="curve" smooth="yes"/>
      <point x="49" y="367"/>
      <point x="56" y="357"/>
    </contour>
  </outline>
</glyph>
<glyph name="jdotless" format="2">
  <advance width="301"/>
  <unicode hex="0237"/>
  <anchor x="151" y="0" name="bottom"/>
  <anchor x="151" y="472" name="top"/>
  <outline>
    <contour>
      <point x="45" y="-248" type="line"/>
      <point x="166" y="-197"/>
      <point x="244" y="-106"/>
      <point x="244" y="-14" type="curve" smooth="yes"/>
      <point x="244" y="262"/>
      <point x="253" y="421"/>
      <point x="271" y="462" type="curve"/>
      <point x="258" y="484" type="line"/>
      <point x="258" y="484"/>
      <point x="119" y="460"/>
      <point x="16" y="445" type="curve"/>
      <point x="8" y="364" type="line"/>
      <point x="8" y="364"/>
      <point x="24" y="367"/>
      <point x="40" y="367" type="curve" smooth="yes"/>
      <point x="65" y="367"/>
      <point x="73" y="353"/>
      <point x="73" y="309" type="curve" smooth="yes"/>
      <point x="73" y="33" type="line" smooth="yes"/>
      <point x="73" y="-86"/>
      <point x="57" y="-134"/>
      <point x="0" y="-190" type="curve"/>
      <point x="-2" y="-205" type="line"/>
    </contour>
  </outline>
</glyph>
<glyph name="ezh" format="2">
  <advance width="504"/>
  <unicode hex="0292"/>
  <anchor x="241" y="-223" name="bottom"/>
  <anchor x="252" y="469" name="top"/>
  <outline>
    <contour>
      <point x="187" y="-233" type="curve" smooth="yes"/>
      <point x="378" y="-233"/>
      <point x="495" y="-147"/>
      <point x="495" y="-7" type="curve" smooth="yes"/>
      <point x="495" y="116"/>
      <point x="404" y="180"/>
      <point x="221" y="186" type="curve"/>
      <point x="159" y="154" type="line"/>
      <point x="156" y="93" type="line"/>
      <point x="166" y="80" type="line"/>
      <point x="261" y="85"/>
      <point x="298" y="56"/>
      <point x="298" y="-22" type="curve" smooth="yes"/>
      <point x="298" y="-93"/>
      <point x="266" y="-129"/>
      <point x="203" y="-129" type="curve" smooth="yes"/>
      <point x="136" y="-129"/>
      <point x="110" y="-90"/>
      <point x="111" y="10" type="curve"/>
      <point x="31" y="3" type="line"/>
      <point x="18" y="-10" type="line"/>
      <point x="14" y="-188" type="line"/>
      <point x="25" y="-203" type="line"/>
      <point x="79" y="-224"/>
      <point x="126" y="-233"/>
    </contour>
    <contour>
      <point x="159" y="154" type="line"/>
      <point x="289" y="149" type="line"/>
      <point x="489" y="408" type="line"/>
      <point x="466" y="472" type="line"/>
      <point x="196" y="472" type="line"/>
      <point x="46" y="484" type="line"/>
      <point x="35" y="472" type="line"/>
      <point x="31" y="368"/>
      <point x="26" y="288"/>
      <point x="21" y="248" type="curve"/>
      <point x="117" y="255" type="line"/>
      <point x="125" y="331"/>
      <point x="136" y="346"/>
      <point x="184" y="347" type="curve" smooth="yes"/>
      <point x="363" y="352" type="line"/>
      <point x="374" y="433" type="line"/>
    </contour>
  </outline>
</glyph>
<glyph name="hmod" format="2">
  <advance width="404"/>
  <unicode hex="02B0"/>
  <anchor x="265" y="0" name="bottom"/>
  <anchor x="277" y="236" name="center"/>
  <anchor x="128" y="710" name="top"/>
  <outline>
    <contour>
      <point x="18" y="385" type="curve"/>
      <point x="10" y="323" type="line"/>
      <point x="10" y="323"/>
      <point x="58" y="327"/>
      <point x="99" y="327" type="curve" smooth="yes"/>
      <point x="131" y="327"/>
      <point x="191" y="324"/>
      <point x="191" y="324" type="curve"/>
      <point x="198" y="383" type="line"/>
      <point x="196" y="388" type="line"/>
      <point x="196" y="388"/>
      <point x="192" y="387"/>
      <point x="188" y="387" type="curve" smooth="yes"/>
      <point x="177" y="387"/>
      <point x="174" y="392"/>
      <point x="174" y="406" type="curve" smooth="yes"/>
      <point x="174" y="454"/>
      <point x="174" y="496"/>
      <point x="174" y="534" type="curve"/>
      <point x="184" y="541"/>
      <point x="195" y="549"/>
      <point x="204" y="549" type="curve" smooth="yes"/>
      <point x="225" y="549"/>
      <point x="231" y="539"/>
      <point x="230" y="507" type="curve" smooth="yes"/>
      <point x="229" y="417" type="line" smooth="yes"/>
      <point x="228" y="397"/>
      <point x="222" y="390"/>
      <point x="206" y="388" type="curve"/>
      <point x="201" y="326" type="line"/>
      <point x="201" y="326"/>
      <point x="262" y="327"/>
      <point x="286" y="327" type="curve" smooth="yes"/>
      <point x="314" y="327"/>
      <point x="380" y="324"/>
      <point x="380" y="324" type="curve"/>
      <point x="387" y="384" type="line"/>
      <point x="386" y="387" type="line"/>
      <point x="386" y="387"/>
      <point x="376" y="386"/>
      <point x="370" y="386" type="curve" smooth="yes"/>
      <point x="356" y="386"/>
      <point x="352" y="392"/>
      <point x="352" y="409" type="curve" smooth="yes"/>
      <point x="352" y="435"/>
      <point x="367" y="536"/>
      <point x="367" y="566" type="curve" smooth="yes"/>
      <point x="367" y="623"/>
      <point x="327" y="653"/>
      <point x="250" y="653" type="curve" smooth="yes"/>
      <point x="237" y="653"/>
      <point x="204" y="619"/>
      <point x="175" y="588" type="curve"/>
      <point x="178" y="723"/>
      <point x="186" y="795"/>
      <point x="198" y="806" type="curve"/>
      <point x="192" y="824" type="line"/>
      <point x="192" y="824"/>
      <point x="82" y="810"/>
      <point x="-3" y="799" type="curve"/>
      <point x="-9" y="745" type="line"/>
      <point x="-6" y="740" type="line"/>
      <point x="12" y="740" type="line"/>
      <point x="40" y="740"/>
      <point x="46" y="733"/>
      <point x="46" y="700" type="curve" smooth="yes"/>
      <point x="46" y="420" type="line"/>
      <point x="46" y="396"/>
      <point x="40" y="388"/>
    </contour>
  </outline>
</glyph>
<glyph name="jmod" format="2">
  <advance width="232"/>
  <unicode hex="02B2"/>
  <anchor x="243" y="0" name="bottom"/>
  <anchor x="125" y="463" name="top"/>
  <outline>
    <contour>
      <point x="42" y="160" type="line"/>
      <point x="129" y="194"/>
      <point x="186" y="256"/>
      <point x="186" y="318" type="curve" smooth="yes"/>
      <point x="186" y="502"/>
      <point x="192" y="608"/>
      <point x="205" y="637" type="curve"/>
      <point x="195" y="653" type="line"/>
      <point x="195" y="653"/>
      <point x="95" y="637"/>
      <point x="20" y="626" type="curve"/>
      <point x="14" y="568" type="line"/>
      <point x="14" y="568"/>
      <point x="25" y="570"/>
      <point x="37" y="570" type="curve" smooth="yes"/>
      <point x="53" y="570"/>
      <point x="59" y="560"/>
      <point x="59" y="530" type="curve" smooth="yes"/>
      <point x="59" y="349" type="line" smooth="yes"/>
      <point x="59" y="271"/>
      <point x="48" y="239"/>
      <point x="9" y="202" type="curve"/>
      <point x="7" y="191" type="line"/>
    </contour>
    <contour>
      <point x="125" y="685" type="curve" smooth="yes"/>
      <point x="171" y="685"/>
      <point x="199" y="714"/>
      <point x="199" y="759" type="curve" smooth="yes"/>
      <point x="199" y="802"/>
      <point x="174" y="827"/>
      <point x="131" y="827" type="curve" smooth="yes"/>
      <point x="85" y="827"/>
      <point x="57" y="799"/>
      <point x="57" y="753" type="curve" smooth="yes"/>
      <point x="57" y="709"/>
      <point x="80" y="685"/>
    </contour>
  </outline>
</glyph>
<glyph name="primemod" format="2">
  <advance width="176"/>
  <unicode hex="02B9"/>
  <outline>
    <contour>
      <point x="51" y="401" type="line"/>
      <point x="124" y="426" type="line"/>
      <point x="150" y="538"/>
      <point x="166" y="647"/>
      <point x="166" y="647" type="curve"/>
      <point x="157" y="659" type="line"/>
      <point x="23" y="645" type="line"/>
      <point x="23" y="645"/>
      <point x="34" y="527"/>
      <point x="32" y="407" type="curve"/>
    </contour>
  </outline>
</glyph>
<glyph name="ringhalfright" format="2">
  <advance width="307"/>
  <unicode hex="02BE"/>
  <outline>
    <contour>
      <point x="93" y="416" type="line"/>
      <point x="162" y="416"/>
      <point x="214" y="470"/>
      <point x="214" y="542" type="curve" smooth="yes"/>
      <point x="214" y="610"/>
      <point x="170" y="652"/>
      <point x="99" y="652" type="curve"/>
      <point x="93" y="571" type="line"/>
      <point x="120" y="571"/>
      <point x="136" y="556"/>
      <point x="136" y="532" type="curve" smooth="yes"/>
      <point x="136" y="509"/>
      <point x="120" y="495"/>
      <point x="93" y="495" type="curve"/>
    </contour>
  </outline>
</glyph>
<glyph name="tilde" format="2">
  <advance width="398"/>
  <unicode hex="02DC"/>
  <anchor x="200" y="472" name="_top"/>
  <outline>
    <contour>
      <point x="75" y="525" type="line"/>
      <point x="91" y="525" type="line"/>
      <point x="91" y="525"/>
      <point x="130" y="583"/>
      <point x="155" y="583" type="curve" smooth="yes"/>
      <point x="179" y="583"/>
      <point x="258" y="549"/>
      <point x="287" y="549" type="curve"/>
      <point x="304" y="553" type="line"/>
      <point x="382" y="668" type="line"/>
      <point x="382" y="684" type="line"/>
      <point x="323" y="738" type="line"/>
      <point x="307" y="738" type="line"/>
      <point x="307" y="738"/>
      <point x="267" y="680"/>
      <point x="243" y="680" type="curve" smooth="yes"/>
      <point x="219" y="680"/>
      <point x="140" y="714"/>
      <point x="111" y="714" type="curve"/>
      <point x="94" y="710" type="line"/>
      <point x="16" y="595" type="line"/>
      <point x="16" y="579" type="line"/>
    </contour>
  </outline>
</glyph>
<glyph name="brevecomb" format="2">
  <unicode hex="0306"/>
  <anchor x="199" y="472" name="_top"/>
  <anchor x="199" y="722" name="top"/>
  <outline>
    <contour>
      <point x="199" y="517" type="curve" smooth="yes"/>
      <point x="301" y="517"/>
      <point x="356" y="585"/>
      <point x="377" y="653" type="curve"/>
      <point x="337" y="715" type="line"/>
      <point x="310" y="722" type="line"/>
      <point x="290" y="675"/>
      <point x="248" y="652"/>
      <point x="199" y="652" type="curve" smooth="yes"/>
      <point x="150" y="652"/>
      <point x="108" y="675"/>
      <point x="88" y="722" type="curve"/>
      <point x="61" y="715" type="line"/>
      <point x="21" y="653" type="line"/>
      <point x="42" y="585"/>
      <point x="97" y="517"/>
    </contour>
  </outline>
</glyph>
<glyph name="hungarumlautcomb" format="2">
  <unicode hex="030B"/>
  <anchor x="166" y="472" name="_top"/>
  <anchor x="166" y="754" name="top"/>
  <outline>
    <contour>
      <point x="392" y="677" type="curve"/>
      <point x="389" y="691" type="line"/>
      <point x="305" y="754" type="line"/>
      <point x="291" y="749" type="line"/>
      <point x="291" y="749"/>
      <point x="238" y="656"/>
      <point x="183" y="566" type="curve"/>
      <point x="232" y="528" type="line"/>
      <point x="251" y="528" type="line"/>
      <point x="319" y="604"/>
      <point x="392" y="677"/>
    </contour>
    <contour>
      <point x="229" y="677" type="curve"/>
      <point x="226" y="691" type="line"/>
      <point x="142" y="754" type="line"/>
      <point x="128" y="749" type="line"/>
      <point x="128" y="749"/>
      <point x="75" y="656"/>
      <point x="20" y="566" type="curve"/>
      <point x="69" y="528" type="line"/>
      <point x="88" y="528" type="line"/>
      <point x="156" y="604"/>
      <point x="229" y="677"/>
    </contour>
  </outline>
</glyph>
<glyph name="dblgravecomb" format="2">
  <unicode hex="030F"/>
  <anchor x="210" y="472" name="_top"/>
  <anchor x="200" y="754" name="top"/>
  <outline>
    <contour>
      <point x="318" y="528" type="curve"/>
      <point x="337" y="528" type="line"/>
      <point x="386" y="566" type="line"/>
      <point x="331" y="656"/>
      <point x="278" y="749"/>
      <point x="278" y="749" type="curve"/>
      <point x="264" y="754" type="line"/>
      <point x="180" y="691" type="line"/>
      <point x="177" y="677" type="line"/>
      <point x="177" y="677"/>
      <point x="250" y="604"/>
    </contour>
    <contour>
      <point x="155" y="528" type="curve"/>
      <point x="174" y="528" type="line"/>
      <point x="223" y="566" type="line"/>
      <point x="168" y="656"/>
      <point x="115" y="749"/>
      <point x="115" y="749" type="curve"/>
      <point x="101" y="754" type="line"/>
      <point x="17" y="691" type="line"/>
      <point x="14" y="677" type="line"/>
      <point x="14" y="677"/>
      <point x="87" y="604"/>
    </contour>
  </outline>
</glyph>
<glyph name="ogonekcomb" format="2">
  <unicode hex="0328"/>
  <anchor x="234" y="40" name="_ogonek"/>
  <outline>
    <contour>
      <point x="198" y="-242" type="curve"/>
      <point x="227" y="-238"/>
      <point x="263" y="-214"/>
      <point x="311" y="-167" type="curve"/>
      <point x="278" y="-115" type="line"/>
      <point x="257" y="-129"/>
      <point x="235" y="-138"/>
      <point x="219" y="-138" type="curve" smooth="yes"/>
      <point x="205" y="-138"/>
      <point x="197" y="-130"/>
      <point x="197" y="-116" type="curve" smooth="yes"/>
      <point x="197" y="-92"/>
      <point x="215" y="-54"/>
      <point x="272" y="42" type="curve"/>
      <point x="190" y="42" type="line"/>
      <point x="90" y="-74"/>
      <point x="73" y="-100"/>
      <point x="73" y="-138" type="curve" smooth="yes"/>
      <point x="73" y="-199"/>
      <point x="125" y="-242"/>
    </contour>
  </outline>
</glyph>
<glyph name="ypogegrammenicomb" format="2">
  <unicode hex="0345"/>
  <anchor x="171" y="0" name="_bottom"/>
  <outline>
    <contour>
      <point x="222" y="-240" type="curve"/>
      <point x="232" y="-229" type="line"/>
      <point x="210" y="-33" type="line"/>
      <point x="123" y="-29" type="line"/>
      <point x="111" y="-42" type="line"/>
      <point x="83" y="-225" type="line"/>
      <point x="128" y="-236"/>
      <point x="175" y="-242"/>
    </contour>
  </outline>
</glyph>
<glyph name="tonos" format="2">
  <advance width="398"/>
  <unicode hex="0384"/>
  <anchor x="188" y="472" name="_top"/>
  <anchor x="254" y="759" name="_topleft"/>
  <outline>
    <contour>
      <point x="218" y="508" type="line"/>
      <point x="241" y="514" type="line"/>
      <point x="341" y="713" type="line"/>
      <point x="333" y="728" type="line"/>
      <point x="217" y="771" type="line"/>
      <point x="203" y="762" type="line"/>
      <point x="188" y="685"/>
      <point x="170" y="610"/>
      <point x="150" y="536" type="curve"/>
    </contour>
  </outline>
</glyph>
<glyph name="Lambda" format="2">
  <advance width="676"/>
  <unicode hex="039B"/>
  <outline>
    <contour>
      <point x="341" y="-6" type="line"/>
      <point x="341" y="-6"/>
      <point x="437" y="-1"/>
      <point x="532" y="-1" type="curve" smooth="yes"/>
      <point x="587" y="-1"/>
      <point x="673" y="-3"/>
      <point x="673" y="-3" type="curve"/>
      <point x="681" y="76" type="line"/>
      <point x="674" y="86" type="line"/>
      <point x="643" y="89"/>
      <point x="627" y="108"/>
      <point x="615" y="153" type="curve" smooth="yes"/>
      <point x="586" y="261"/>
      <point x="490" y="646"/>
      <point x="490" y="646" type="curve"/>
      <point x="475" y="658" type="line"/>
      <point x="212" y="642" type="line"/>
      <point x="53" y="140" type="line"/>
      <point x="43" y="109"/>
      <point x="26" y="91"/>
      <point x="2" y="85" type="curve"/>
      <point x="-5" y="-2" type="line"/>
      <point x="-5" y="-2"/>
      <point x="66" y="-1"/>
      <point x="128" y="-1" type="curve" smooth="yes"/>
      <point x="189" y="-1"/>
      <point x="282" y="-4"/>
      <point x="282" y="-4" type="curve"/>
      <point x="290" y="79" type="line"/>
      <point x="282" y="89" type="line"/>
      <point x="256" y="89" type="line"/>
      <point x="229" y="89"/>
      <point x="225" y="92"/>
      <point x="225" y="109" type="curve" smooth="yes"/>
      <point x="225" y="113"/>
      <point x="226" y="120"/>
      <point x="228" y="131" type="curve"/>
      <point x="317" y="478" type="line"/>
      <point x="339" y="478" type="line"/>
      <point x="401" y="139" type="line"/>
      <point x="402" y="131"/>
      <point x="403" y="125"/>
      <point x="403" y="121" type="curve" smooth="yes"/>
      <point x="403" y="95"/>
      <point x="400" y="94"/>
      <point x="339" y="87" type="curve"/>
      <point x="333" y="3" type="line"/>
    </contour>
  </outline>
</glyph>
<glyph name="Xi" format="2">
  <advance width="641"/>
  <unicode hex="039E"/>
  <outline>
    <contour>
      <point x="66" y="-3" type="line"/>
      <point x="328" y="1" type="line"/>
      <point x="569" y="-3" type="line"/>
      <point x="591" y="18" type="line"/>
      <point x="590" y="72"/>
      <point x="594" y="151"/>
      <point x="600" y="203" type="curve"/>
      <point x="594" y="210" type="line"/>
      <point x="474" y="201" type="line"/>
      <point x="464" y="170"/>
      <point x="439" y="157"/>
      <point x="389" y="157" type="curve" smooth="yes"/>
      <point x="247" y="157" type="line" smooth="yes"/>
      <point x="197" y="157"/>
      <point x="172" y="173"/>
      <point x="163" y="213" type="curve"/>
      <point x="43" y="203" type="line"/>
      <point x="37" y="197" type="line"/>
      <point x="42" y="136"/>
      <point x="46" y="62"/>
      <point x="46" y="18" type="curve"/>
    </contour>
    <contour>
      <point x="132" y="238" type="line"/>
      <point x="174" y="241"/>
      <point x="259" y="246"/>
      <point x="302" y="246" type="curve" smooth="yes"/>
      <point x="354" y="246"/>
      <point x="434" y="243"/>
      <point x="483" y="242" type="curve"/>
      <point x="501" y="396" type="line"/>
      <point x="487" y="415" type="line"/>
      <point x="446" y="411"/>
      <point x="361" y="406"/>
      <point x="316" y="406" type="curve" smooth="yes"/>
      <point x="265" y="406"/>
      <point x="184" y="408"/>
      <point x="136" y="410" type="curve"/>
      <point x="118" y="257" type="line"/>
    </contour>
    <contour>
      <point x="37" y="440" type="curve"/>
      <point x="165" y="445" type="line"/>
      <point x="180" y="483"/>
      <point x="194" y="491"/>
      <point x="252" y="491" type="curve" smooth="yes"/>
      <point x="362" y="491" type="line" smooth="yes"/>
      <point x="439" y="491"/>
      <point x="443" y="481"/>
      <point x="446" y="440" type="curve"/>
      <point x="585" y="449" type="line"/>
      <point x="590" y="523"/>
      <point x="596" y="580"/>
      <point x="606" y="642" type="curve"/>
      <point x="593" y="658" type="line"/>
      <point x="497" y="650"/>
      <point x="408" y="646"/>
      <point x="362" y="646" type="curve"/>
      <point x="71" y="650" type="line"/>
      <point x="50" y="629" type="line"/>
      <point x="48" y="566"/>
      <point x="44" y="514"/>
    </contour>
  </outline>
</glyph>
<glyph name="Pi" format="2">
  <advance width="738"/>
  <unicode hex="03A0"/>
  <anchor x="654" y="172" name="bottomright"/>
  <outline>
    <contour>
      <point x="15" y="-5" type="line"/>
      <point x="85" y="-2"/>
      <point x="149" y="0"/>
      <point x="181" y="0" type="curve" smooth="yes"/>
      <point x="209" y="0"/>
      <point x="288" y="-2"/>
      <point x="346" y="-4" type="curve"/>
      <point x="355" y="80" type="line"/>
      <point x="347" y="90" type="line"/>
      <point x="340" y="88"/>
      <point x="329" y="87"/>
      <point x="317" y="87" type="curve" smooth="yes"/>
      <point x="291" y="87"/>
      <point x="285" y="100"/>
      <point x="285" y="156" type="curve" smooth="yes"/>
      <point x="285" y="254"/>
      <point x="288" y="338"/>
      <point x="295" y="468" type="curve" smooth="yes"/>
      <point x="298" y="508"/>
      <point x="312" y="517"/>
      <point x="355" y="517" type="curve" smooth="yes"/>
      <point x="399" y="517" type="line" smooth="yes"/>
      <point x="444" y="517"/>
      <point x="456" y="509"/>
      <point x="456" y="466" type="curve" smooth="yes"/>
      <point x="456" y="159" type="line" smooth="yes"/>
      <point x="456" y="105"/>
      <point x="448" y="94"/>
      <point x="394" y="85" type="curve"/>
      <point x="386" y="0" type="line"/>
      <point x="549" y="0" type="line"/>
      <point x="577" y="0"/>
      <point x="658" y="-2"/>
      <point x="716" y="-4" type="curve"/>
      <point x="725" y="80" type="line"/>
      <point x="717" y="90" type="line"/>
      <point x="710" y="88"/>
      <point x="697" y="87"/>
      <point x="685" y="87" type="curve" smooth="yes"/>
      <point x="659" y="87"/>
      <point x="653" y="100"/>
      <point x="653" y="156" type="curve" smooth="yes"/>
      <point x="653" y="265"/>
      <point x="657" y="395"/>
      <point x="663" y="510" type="curve" smooth="yes"/>
      <point x="665" y="547"/>
      <point x="674" y="555"/>
      <point x="720" y="562" type="curve"/>
      <point x="727" y="652" type="line"/>
      <point x="629" y="649"/>
      <point x="576" y="647"/>
      <point x="555" y="647" type="curve" smooth="yes"/>
      <point x="187" y="647" type="line"/>
      <point x="133" y="647"/>
      <point x="80" y="647"/>
      <point x="26" y="648" type="curve"/>
      <point x="18" y="572" type="line"/>
      <point x="27" y="558" type="line"/>
      <point x="33" y="558"/>
      <point x="45" y="559"/>
      <point x="53" y="559" type="curve" smooth="yes"/>
      <point x="81" y="559"/>
      <point x="88" y="549"/>
      <point x="88" y="508" type="curve" smooth="yes"/>
      <point x="88" y="162" type="line" smooth="yes"/>
      <point x="88" y="107"/>
      <point x="77" y="92"/>
      <point x="23" y="80" type="curve"/>
    </contour>
  </outline>
</glyph>
<glyph name="Phi" format="2">
  <advance width="804"/>
  <unicode hex="03A6"/>
  <outline>
    <contour>
      <point x="230" y="-35" type="line"/>
      <point x="314" y="-32"/>
      <point x="368" y="-30"/>
      <point x="399" y="-30" type="curve" smooth="yes"/>
      <point x="421" y="-30"/>
      <point x="484" y="-31"/>
      <point x="561" y="-34" type="curve"/>
      <point x="570" y="49" type="line"/>
      <point x="562" y="59" type="line"/>
      <point x="557" y="57"/>
      <point x="546" y="56"/>
      <point x="535" y="56" type="curve" smooth="yes"/>
      <point x="500" y="56"/>
      <point x="497" y="65"/>
      <point x="497" y="137" type="curve" smooth="yes"/>
      <point x="497" y="240"/>
      <point x="503" y="482"/>
      <point x="507" y="541" type="curve" smooth="yes"/>
      <point x="510" y="579"/>
      <point x="517" y="585"/>
      <point x="564" y="593" type="curve"/>
      <point x="571" y="682" type="line"/>
      <point x="475" y="679"/>
      <point x="422" y="677"/>
      <point x="401" y="677" type="curve" smooth="yes"/>
      <point x="348" y="677"/>
      <point x="295" y="677"/>
      <point x="241" y="677" type="curve"/>
      <point x="233" y="603" type="line"/>
      <point x="242" y="589" type="line"/>
      <point x="248" y="589"/>
      <point x="261" y="590"/>
      <point x="269" y="590" type="curve" smooth="yes"/>
      <point x="297" y="590"/>
      <point x="303" y="580"/>
      <point x="303" y="539" type="curve" smooth="yes"/>
      <point x="303" y="131" type="line" smooth="yes"/>
      <point x="303" y="76"/>
      <point x="292" y="61"/>
      <point x="238" y="49" type="curve"/>
    </contour>
    <contour>
      <point x="274" y="101" type="curve"/>
      <point x="360" y="101" type="line"/>
      <point x="360" y="204" type="line"/>
      <point x="297" y="204" type="line"/>
      <point x="240" y="206"/>
      <point x="207" y="256"/>
      <point x="207" y="340" type="curve" smooth="yes"/>
      <point x="207" y="413"/>
      <point x="232" y="447"/>
      <point x="281" y="447" type="curve"/>
      <point x="360" y="447" type="line"/>
      <point x="360" y="551" type="line"/>
      <point x="302" y="551" type="line"/>
      <point x="120" y="545"/>
      <point x="9" y="461"/>
      <point x="9" y="319" type="curve" smooth="yes"/>
      <point x="9" y="184"/>
      <point x="110" y="101"/>
    </contour>
    <contour>
      <point x="444" y="102" type="line"/>
      <point x="501" y="102" type="line"/>
      <point x="683" y="108"/>
      <point x="795" y="192"/>
      <point x="795" y="334" type="curve" smooth="yes"/>
      <point x="795" y="469"/>
      <point x="694" y="552"/>
      <point x="530" y="552" type="curve"/>
      <point x="444" y="552" type="line"/>
      <point x="444" y="448" type="line"/>
      <point x="507" y="448" type="line"/>
      <point x="564" y="446"/>
      <point x="596" y="397"/>
      <point x="596" y="313" type="curve" smooth="yes"/>
      <point x="596" y="240"/>
      <point x="572" y="205"/>
      <point x="523" y="205" type="curve"/>
      <point x="444" y="205" type="line"/>
    </contour>
  </outline>
</glyph>
<glyph name="Omega" format="2">
  <advance width="748"/>
  <unicode hex="03A9"/>
  <anchor x="374" y="0" name="bottom"/>
  <anchor x="374" y="647" name="top"/>
  <anchor x="-23" y="647" name="topleft"/>
  <outline>
    <contour>
      <point x="65" y="-3" type="line"/>
      <point x="353" y="0" type="line"/>
      <point x="364" y="13" type="line"/>
      <point x="355" y="207" type="line"/>
      <point x="309" y="252"/>
      <point x="291" y="303"/>
      <point x="291" y="390" type="curve" smooth="yes"/>
      <point x="291" y="487"/>
      <point x="313" y="522"/>
      <point x="374" y="522" type="curve" smooth="yes"/>
      <point x="435" y="522"/>
      <point x="457" y="487"/>
      <point x="457" y="390" type="curve" smooth="yes"/>
      <point x="457" y="303"/>
      <point x="439" y="252"/>
      <point x="393" y="207" type="curve"/>
      <point x="384" y="13" type="line"/>
      <point x="395" y="0" type="line"/>
      <point x="683" y="-3" type="line"/>
      <point x="705" y="19" type="line"/>
      <point x="708" y="79"/>
      <point x="714" y="139"/>
      <point x="720" y="201" type="curve"/>
      <point x="609" y="195" type="line"/>
      <point x="591" y="149"/>
      <point x="581" y="142"/>
      <point x="539" y="142" type="curve" smooth="yes"/>
      <point x="505" y="142" type="line"/>
      <point x="505" y="154" type="line"/>
      <point x="626" y="205"/>
      <point x="686" y="287"/>
      <point x="686" y="401" type="curve" smooth="yes"/>
      <point x="686" y="561"/>
      <point x="567" y="659"/>
      <point x="374" y="659" type="curve" smooth="yes"/>
      <point x="181" y="659"/>
      <point x="62" y="561"/>
      <point x="62" y="403" type="curve" smooth="yes"/>
      <point x="62" y="290"/>
      <point x="123" y="206"/>
      <point x="243" y="154" type="curve"/>
      <point x="243" y="142" type="line"/>
      <point x="209" y="142" type="line" smooth="yes"/>
      <point x="165" y="142"/>
      <point x="158" y="149"/>
      <point x="139" y="195" type="curve"/>
      <point x="28" y="201" type="line"/>
      <point x="34" y="139"/>
      <point x="40" y="79"/>
      <point x="43" y="19" type="curve"/>
    </contour>
  </outline>
</glyph>
<glyph name="alpha" format="2">
  <advance width="519"/>
  <unicode hex="03B1"/>
  <anchor x="276" y="0" name="bottom"/>
  <anchor x="254" y="472" name="top"/>
  <outline>
    <contour>
      <point x="165" y="-2" type="curve" smooth="yes"/>
      <point x="245" y="-2"/>
      <point x="341" y="100"/>
      <point x="502" y="356" type="curve"/>
      <point x="472" y="413"/>
      <point x="441" y="452"/>
      <point x="402" y="481" type="curve"/>
      <point x="388" y="479" type="line"/>
      <point x="324" y="324"/>
      <point x="177" y="134"/>
      <point x="121" y="134" type="curve" smooth="yes"/>
      <point x="109" y="134"/>
      <point x="104" y="142"/>
      <point x="104" y="160" type="curve" smooth="yes"/>
      <point x="104" y="228"/>
      <point x="178" y="309"/>
      <point x="241" y="309" type="curve" smooth="yes"/>
      <point x="283" y="309"/>
      <point x="288" y="276"/>
      <point x="301" y="231" type="curve"/>
      <point x="418" y="358" type="line"/>
      <point x="316" y="357" type="line"/>
      <point x="292" y="417"/>
      <point x="251" y="457"/>
      <point x="193" y="475" type="curve"/>
      <point x="94" y="475"/>
      <point x="11" y="364"/>
      <point x="11" y="231" type="curve" smooth="yes"/>
      <point x="11" y="106"/>
      <point x="83" y="-2"/>
    </contour>
    <contour>
      <point x="424" y="-3" type="curve"/>
      <point x="471" y="27"/>
      <point x="502" y="79"/>
      <point x="515" y="149" type="curve"/>
      <point x="502" y="165" type="line"/>
      <point x="405" y="142"/>
      <point x="363" y="149"/>
      <point x="364" y="189" type="curve" smooth="yes"/>
      <point x="365" y="226" type="line"/>
      <point x="296" y="97" type="line"/>
      <point x="323" y="87" type="line"/>
      <point x="337" y="28"/>
      <point x="369" y="0"/>
    </contour>
  </outline>
</glyph>
<glyph name="gamma" format="2">
  <advance width="468"/>
  <unicode hex="03B3"/>
  <outline>
    <contour>
      <point x="206" y="-239" type="line"/>
      <point x="277" y="-224" type="line"/>
      <point x="280" y="-101"/>
      <point x="260" y="90"/>
      <point x="231" y="222" type="curve" smooth="yes"/>
      <point x="194" y="389"/>
      <point x="136" y="477"/>
      <point x="64" y="477" type="curve"/>
      <point x="26" y="430"/>
      <point x="2" y="378"/>
      <point x="-7" y="318" type="curve"/>
      <point x="12" y="298" type="line"/>
      <point x="117" y="304"/>
      <point x="127" y="298"/>
      <point x="154" y="204" type="curve" smooth="yes"/>
      <point x="165" y="167"/>
      <point x="175" y="98"/>
      <point x="179" y="28" type="curve"/>
      <point x="219" y="146" type="line"/>
      <point x="131" y="-38"/>
      <point x="110" y="-91"/>
      <point x="118" y="-196" type="curve"/>
      <point x="177" y="-235" type="line"/>
    </contour>
    <contour>
      <point x="253" y="-24" type="line"/>
      <point x="357" y="175"/>
      <point x="420" y="295"/>
      <point x="479" y="396" type="curve"/>
      <point x="434" y="435"/>
      <point x="393" y="462"/>
      <point x="344" y="480" type="curve"/>
      <point x="328" y="478" type="line"/>
      <point x="290" y="368"/>
      <point x="266" y="295"/>
      <point x="246" y="227" type="curve"/>
      <point x="208" y="231" type="line"/>
    </contour>
  </outline>
</glyph>
<glyph name="delta" format="2">
  <advance width="494"/>
  <unicode hex="03B4"/>
  <outline>
    <contour>
      <point x="243" y="-8" type="curve" smooth="yes"/>
      <point x="366" y="-8"/>
      <point x="463" y="100"/>
      <point x="463" y="230" type="curve" smooth="yes"/>
      <point x="463" y="418"/>
      <point x="230" y="570"/>
      <point x="230" y="592" type="curve" smooth="yes"/>
      <point x="230" y="594"/>
      <point x="231" y="596"/>
      <point x="236" y="596" type="curve" smooth="yes"/>
      <point x="266" y="596"/>
      <point x="394" y="543"/>
      <point x="483" y="496" type="curve"/>
      <point x="509" y="541" type="line"/>
      <point x="454" y="645"/>
      <point x="363" y="712"/>
      <point x="239" y="742" type="curve"/>
      <point x="177" y="728"/>
      <point x="129" y="675"/>
      <point x="129" y="623" type="curve" smooth="yes"/>
      <point x="131" y="510"/>
      <point x="329" y="371"/>
      <point x="329" y="287" type="curve" smooth="yes"/>
      <point x="329" y="228"/>
      <point x="241" y="147"/>
      <point x="173" y="147" type="curve" smooth="yes"/>
      <point x="148" y="147"/>
      <point x="136" y="160"/>
      <point x="136" y="185" type="curve" smooth="yes"/>
      <point x="136" y="247"/>
      <point x="220" y="304"/>
      <point x="315" y="308" type="curve" smooth="yes"/>
      <point x="337" y="308"/>
      <point x="345" y="308"/>
      <point x="355" y="305" type="curve"/>
      <point x="277" y="424" type="line"/>
      <point x="253" y="397" type="line"/>
      <point x="230" y="411"/>
      <point x="206" y="422"/>
      <point x="175" y="435" type="curve"/>
      <point x="74" y="435"/>
      <point x="6" y="355"/>
      <point x="6" y="246" type="curve" smooth="yes"/>
      <point x="6" y="108"/>
      <point x="115" y="-8"/>
    </contour>
  </outline>
</glyph>
<glyph name="epsilon" format="2">
  <advance width="434"/>
  <unicode hex="03B5"/>
  <anchor x="214" y="472" name="top"/>
  <outline>
    <contour>
      <point x="266" y="-7" type="curve"/>
      <point x="311" y="2"/>
      <point x="353" y="23"/>
      <point x="389" y="54" type="curve"/>
      <point x="405" y="94"/>
      <point x="415" y="134"/>
      <point x="419" y="172" type="curve"/>
      <point x="407" y="182" type="line"/>
      <point x="356" y="164"/>
      <point x="265" y="150"/>
      <point x="195" y="150" type="curve" smooth="yes"/>
      <point x="152" y="150"/>
      <point x="127" y="156"/>
      <point x="127" y="166" type="curve" smooth="yes"/>
      <point x="127" y="188"/>
      <point x="249" y="204"/>
      <point x="350" y="196" type="curve"/>
      <point x="356" y="230"/>
      <point x="358" y="261"/>
      <point x="355" y="291" type="curve"/>
      <point x="344" y="302" type="line"/>
      <point x="208" y="331"/>
      <point x="17" y="214"/>
      <point x="17" y="103" type="curve" smooth="yes"/>
      <point x="17" y="31"/>
      <point x="103" y="-7"/>
    </contour>
    <contour>
      <point x="282" y="185" type="curve" smooth="yes"/>
      <point x="308" y="185"/>
      <point x="329" y="188"/>
      <point x="350" y="196" type="curve"/>
      <point x="328" y="265" type="line"/>
      <point x="226" y="265"/>
      <point x="158" y="281"/>
      <point x="158" y="305" type="curve" smooth="yes"/>
      <point x="158" y="325"/>
      <point x="205" y="339"/>
      <point x="272" y="339" type="curve" smooth="yes"/>
      <point x="323" y="339"/>
      <point x="370" y="331"/>
      <point x="402" y="317" type="curve"/>
      <point x="412" y="324" type="line"/>
      <point x="406" y="366"/>
      <point x="395" y="405"/>
      <point x="379" y="447" type="curve"/>
      <point x="346" y="468"/>
      <point x="303" y="479"/>
      <point x="258" y="479" type="curve" smooth="yes"/>
      <point x="120" y="479"/>
      <point x="15" y="425"/>
      <point x="15" y="355" type="curve" smooth="yes"/>
      <point x="15" y="274"/>
      <point x="155" y="185"/>
    </contour>
  </outline>
</glyph>
<glyph name="zeta" format="2">
  <advance width="351"/>
  <unicode hex="03B6"/>
  <outline>
    <contour>
      <point x="162" y="-182" type="line"/>
      <point x="301" y="-95"/>
      <point x="344" y="-42"/>
      <point x="344" y="41" type="curve" smooth="yes"/>
      <point x="344" y="132"/>
      <point x="299" y="186"/>
      <point x="215" y="198" type="curve" smooth="yes"/>
      <point x="121" y="212"/>
      <point x="111" y="215"/>
      <point x="111" y="228" type="curve" smooth="yes"/>
      <point x="111" y="254"/>
      <point x="212" y="383"/>
      <point x="387" y="581" type="curve"/>
      <point x="387" y="596" type="line"/>
      <point x="345" y="640"/>
      <point x="295" y="676"/>
      <point x="237" y="704" type="curve"/>
      <point x="223" y="702" type="line"/>
      <point x="80" y="483"/>
      <point x="18" y="338"/>
      <point x="18" y="224" type="curve" smooth="yes"/>
      <point x="18" y="86"/>
      <point x="65" y="41"/>
      <point x="233" y="22" type="curve" smooth="yes"/>
      <point x="239" y="21"/>
      <point x="240" y="21"/>
      <point x="240" y="19" type="curve" smooth="yes"/>
      <point x="240" y="14"/>
      <point x="171" y="-6"/>
      <point x="103" y="-17" type="curve"/>
      <point x="90" y="-41" type="line"/>
    </contour>
    <contour>
      <point x="105" y="545" type="curve"/>
      <point x="135" y="554"/>
      <point x="159" y="562"/>
      <point x="215" y="581" type="curve"/>
      <point x="212" y="621" type="line"/>
      <point x="130" y="617"/>
      <point x="101" y="652"/>
      <point x="120" y="730" type="curve"/>
      <point x="98" y="740" type="line"/>
      <point x="40" y="727"/>
      <point x="2" y="688"/>
      <point x="2" y="642" type="curve" smooth="yes"/>
      <point x="2" y="586"/>
      <point x="45" y="545"/>
    </contour>
  </outline>
</glyph>
<glyph name="theta" format="2">
  <advance width="475"/>
  <unicode hex="03B8"/>
  <outline>
    <contour>
      <point x="230" y="-10" type="curve" smooth="yes"/>
      <point x="365" y="-10"/>
      <point x="453" y="149"/>
      <point x="453" y="389" type="curve" smooth="yes"/>
      <point x="453" y="593"/>
      <point x="367" y="738"/>
      <point x="250" y="738" type="curve" smooth="yes"/>
      <point x="113" y="738"/>
      <point x="24" y="579"/>
      <point x="24" y="345" type="curve" smooth="yes"/>
      <point x="24" y="138"/>
      <point x="109" y="-10"/>
    </contour>
    <contour>
      <point x="193" y="115" type="curve" smooth="yes"/>
      <point x="150" y="122"/>
      <point x="147" y="186"/>
      <point x="176" y="363" type="curve" smooth="yes"/>
      <point x="208" y="561"/>
      <point x="235" y="628"/>
      <point x="280" y="619" type="curve" smooth="yes"/>
      <point x="323" y="610"/>
      <point x="325" y="548"/>
      <point x="298" y="370" type="curve" smooth="yes"/>
      <point x="268" y="172"/>
      <point x="239" y="108"/>
    </contour>
    <contour>
      <point x="160" y="296" type="line"/>
      <point x="175" y="313" type="line"/>
      <point x="319" y="323" type="line"/>
      <point x="320" y="446" type="line"/>
      <point x="299" y="427" type="line"/>
      <point x="174" y="427" type="line"/>
    </contour>
  </outline>
</glyph>
<glyph name="lambda" format="2">
  <advance width="481"/>
  <unicode hex="03BB"/>
  <outline>
    <contour>
      <point x="412" y="-8" type="curve"/>
      <point x="448" y="30"/>
      <point x="477" y="83"/>
      <point x="492" y="137" type="curve"/>
      <point x="477" y="157" type="line"/>
      <point x="388" y="155"/>
      <point x="367" y="168"/>
      <point x="350" y="234" type="curve" smooth="yes"/>
      <point x="270" y="552" type="line" smooth="yes"/>
      <point x="238" y="679"/>
      <point x="178" y="737"/>
      <point x="80" y="737" type="curve"/>
      <point x="41" y="687"/>
      <point x="19" y="626"/>
      <point x="15" y="557" type="curve"/>
      <point x="34" y="536" type="line"/>
      <point x="118" y="564"/>
      <point x="164" y="556"/>
      <point x="176" y="510" type="curve" smooth="yes"/>
      <point x="288" y="97" type="line" smooth="yes"/>
      <point x="309" y="19"/>
      <point x="341" y="-8"/>
    </contour>
    <contour>
      <point x="106" y="-11" type="line"/>
      <point x="121" y="-9" type="line"/>
      <point x="160" y="69"/>
      <point x="197" y="152"/>
      <point x="235" y="244" type="curve"/>
      <point x="288" y="244" type="line"/>
      <point x="193" y="475" type="line"/>
      <point x="126" y="335"/>
      <point x="59" y="196"/>
      <point x="-12" y="61" type="curve"/>
      <point x="-10" y="47" type="line"/>
    </contour>
  </outline>
</glyph>
<glyph name="tau" format="2">
  <advance width="431"/>
  <unicode hex="03C4"/>
  <outline>
    <contour>
      <point x="247" y="-10" type="curve"/>
      <point x="319" y="27"/>
      <point x="364" y="84"/>
      <point x="383" y="160" type="curve"/>
      <point x="371" y="179" type="line"/>
      <point x="252" y="166"/>
      <point x="231" y="178"/>
      <point x="250" y="250" type="curve" smooth="yes"/>
      <point x="299" y="432" type="line"/>
      <point x="141" y="432" type="line"/>
      <point x="138" y="122" type="line" smooth="yes"/>
      <point x="137" y="43"/>
      <point x="169" y="4"/>
    </contour>
    <contour>
      <point x="26" y="241" type="line"/>
      <point x="33" y="241" type="line"/>
      <point x="73" y="288"/>
      <point x="89" y="294"/>
      <point x="182" y="294" type="curve" smooth="yes"/>
      <point x="361" y="294" type="line"/>
      <point x="373" y="303" type="line"/>
      <point x="402" y="349"/>
      <point x="422" y="404"/>
      <point x="436" y="470" type="curve"/>
      <point x="423" y="484" type="line"/>
      <point x="397" y="476"/>
      <point x="352" y="472"/>
      <point x="290" y="472" type="curve" smooth="yes"/>
      <point x="188" y="472" type="line" smooth="yes"/>
      <point x="58" y="472"/>
      <point x="1" y="410"/>
      <point x="-4" y="261" type="curve"/>
      <point x="-1" y="254" type="line"/>
    </contour>
  </outline>
</glyph>
<glyph name="phi" format="2">
  <advance width="566"/>
  <unicode hex="03C6"/>
  <outline>
    <contour>
      <point x="286" y="-12" type="curve" smooth="yes"/>
      <point x="442" y="-12"/>
      <point x="555" y="88"/>
      <point x="555" y="232" type="curve" smooth="yes"/>
      <point x="555" y="376"/>
      <point x="440" y="481"/>
      <point x="281" y="481" type="curve" smooth="yes"/>
      <point x="124" y="481"/>
      <point x="12" y="381"/>
      <point x="12" y="236" type="curve" smooth="yes"/>
      <point x="12" y="92"/>
      <point x="125" y="-12"/>
    </contour>
    <contour>
      <point x="308" y="-241" type="curve"/>
      <point x="320" y="-230" type="line"/>
      <point x="307" y="29"/>
      <point x="318" y="427"/>
      <point x="343" y="642" type="curve"/>
      <point x="308" y="652"/>
      <point x="287" y="657"/>
      <point x="262" y="660" type="curve"/>
      <point x="250" y="649" type="line"/>
      <point x="227" y="-223" type="line"/>
      <point x="247" y="-231"/>
      <point x="271" y="-236"/>
    </contour>
    <contour>
      <point x="209" y="128" type="curve" smooth="yes"/>
      <point x="152" y="128"/>
      <point x="115" y="153"/>
      <point x="115" y="187" type="curve" smooth="yes"/>
      <point x="115" y="257"/>
      <point x="255" y="339"/>
      <point x="358" y="339" type="curve" smooth="yes"/>
      <point x="413" y="339"/>
      <point x="449" y="315"/>
      <point x="449" y="281" type="curve" smooth="yes"/>
      <point x="449" y="210"/>
      <point x="314" y="128"/>
    </contour>
  </outline>
</glyph>
<glyph name="psi" format="2">
  <advance width="598"/>
  <unicode hex="03C8"/>
  <outline>
    <contour>
      <point x="278" y="-6" type="curve" smooth="yes"/>
      <point x="502" y="-6"/>
      <point x="594" y="123"/>
      <point x="579" y="414" type="curve"/>
      <point x="536" y="451"/>
      <point x="491" y="472"/>
      <point x="435" y="484" type="curve"/>
      <point x="416" y="459" type="line"/>
      <point x="432" y="425"/>
      <point x="443" y="384"/>
      <point x="461" y="332" type="curve"/>
      <point x="441" y="209"/>
      <point x="402" y="171"/>
      <point x="292" y="171" type="curve" smooth="yes"/>
      <point x="194" y="171"/>
      <point x="167" y="199"/>
      <point x="181" y="277" type="curve" smooth="yes"/>
      <point x="198" y="374" type="line" smooth="yes"/>
      <point x="208" y="435"/>
      <point x="177" y="470"/>
      <point x="99" y="481" type="curve"/>
      <point x="48" y="450"/>
      <point x="10" y="395"/>
      <point x="-9" y="332" type="curve"/>
      <point x="6" y="309" type="line"/>
      <point x="90" y="310"/>
      <point x="97" y="305"/>
      <point x="91" y="239" type="curve" smooth="yes"/>
      <point x="82" y="142" type="line" smooth="yes"/>
      <point x="72" y="37"/>
      <point x="129" y="-6"/>
    </contour>
    <contour>
      <point x="340" y="-241" type="curve"/>
      <point x="352" y="-230" type="line"/>
      <point x="339" y="29"/>
      <point x="350" y="427"/>
      <point x="375" y="642" type="curve"/>
      <point x="340" y="652"/>
      <point x="319" y="657"/>
      <point x="294" y="660" type="curve"/>
      <point x="282" y="649" type="line"/>
      <point x="259" y="-223" type="line"/>
      <point x="279" y="-231"/>
      <point x="303" y="-236"/>
    </contour>
  </outline>
</glyph>
<glyph name="Dje-cy" format="2">
  <advance width="759"/>
  <unicode hex="0402"/>
  <outline>
    <contour>
      <point x="108" y="-5" type="line"/>
      <point x="158" y="-1"/>
      <point x="206" y="0"/>
      <point x="291" y="0" type="curve" smooth="yes"/>
      <point x="356" y="0"/>
      <point x="408" y="-1"/>
      <point x="446" y="-4" type="curve"/>
      <point x="455" y="82" type="line"/>
      <point x="447" y="92" type="line"/>
      <point x="403" y="91"/>
      <point x="395" y="99"/>
      <point x="395" y="148" type="curve" smooth="yes"/>
      <point x="395" y="267"/>
      <point x="397" y="425"/>
      <point x="400" y="526" type="curve"/>
      <point x="500" y="526"/>
      <point x="509" y="535"/>
      <point x="519" y="402" type="curve"/>
      <point x="643" y="410" type="line"/>
      <point x="641" y="470"/>
      <point x="639" y="563"/>
      <point x="638" y="644" type="curve"/>
      <point x="625" y="658" type="line"/>
      <point x="504" y="647" type="line"/>
      <point x="140" y="647" type="line"/>
      <point x="21" y="658" type="line"/>
      <point x="8" y="644" type="line"/>
      <point x="7" y="543"/>
      <point x="4" y="443"/>
      <point x="0" y="382" type="curve"/>
      <point x="124" y="390" type="line"/>
      <point x="133" y="506"/>
      <point x="144" y="526"/>
      <point x="197" y="526" type="curve"/>
      <point x="198" y="169" type="line" smooth="yes"/>
      <point x="198" y="112"/>
      <point x="183" y="97"/>
      <point x="117" y="88" type="curve"/>
    </contour>
    <contour>
      <point x="453" y="-217" type="line"/>
      <point x="629" y="-147"/>
      <point x="745" y="7"/>
      <point x="745" y="169" type="curve" smooth="yes"/>
      <point x="745" y="304"/>
      <point x="660" y="376"/>
      <point x="524" y="376" type="curve" smooth="yes"/>
      <point x="457" y="376"/>
      <point x="378" y="361"/>
      <point x="291" y="328" type="curve"/>
      <point x="291" y="224" type="line"/>
      <point x="463" y="255" type="line"/>
      <point x="521" y="240"/>
      <point x="540" y="212"/>
      <point x="540" y="142" type="curve" smooth="yes"/>
      <point x="540" y="42"/>
      <point x="490" y="-70"/>
      <point x="403" y="-165" type="curve"/>
      <point x="440" y="-210" type="line"/>
    </contour>
  </outline>
</glyph>
<glyph name="El-cy" format="2">
  <advance width="691"/>
  <unicode hex="041B"/>
  <outline>
    <contour>
      <point x="114" y="-27" type="curve"/>
      <point x="237" y="15"/>
      <point x="272" y="83"/>
      <point x="323" y="376" type="curve" smooth="yes"/>
      <point x="357" y="572" type="line"/>
      <point x="252" y="517" type="line"/>
      <point x="370" y="517" type="line" smooth="yes"/>
      <point x="404" y="517"/>
      <point x="409" y="510"/>
      <point x="409" y="472" type="curve" smooth="yes"/>
      <point x="409" y="159" type="line" smooth="yes"/>
      <point x="409" y="104"/>
      <point x="400" y="94"/>
      <point x="347" y="85" type="curve"/>
      <point x="339" y="0" type="line"/>
      <point x="502" y="0" type="line" smooth="yes"/>
      <point x="590" y="0"/>
      <point x="632" y="-1"/>
      <point x="669" y="-4" type="curve"/>
      <point x="678" y="80" type="line"/>
      <point x="670" y="90" type="line"/>
      <point x="664" y="88"/>
      <point x="653" y="87"/>
      <point x="638" y="87" type="curve" smooth="yes"/>
      <point x="612" y="87"/>
      <point x="606" y="100"/>
      <point x="606" y="156" type="curve" smooth="yes"/>
      <point x="606" y="324"/>
      <point x="609" y="433"/>
      <point x="616" y="510" type="curve"/>
      <point x="619" y="547"/>
      <point x="627" y="555"/>
      <point x="673" y="562" type="curve"/>
      <point x="680" y="652" type="line"/>
      <point x="640" y="648"/>
      <point x="602" y="647"/>
      <point x="508" y="647" type="curve" smooth="yes"/>
      <point x="73" y="647" type="line"/>
      <point x="65" y="565" type="line"/>
      <point x="74" y="549" type="line"/>
      <point x="178" y="548"/>
      <point x="200" y="529"/>
      <point x="184" y="455" type="curve" smooth="yes"/>
      <point x="175" y="413" type="line" smooth="yes"/>
      <point x="136" y="229"/>
      <point x="104" y="177"/>
      <point x="10" y="144" type="curve"/>
      <point x="-3" y="114" type="line"/>
      <point x="25" y="60"/>
      <point x="67" y="10"/>
    </contour>
  </outline>
</glyph>
<glyph name="Che-cy" format="2">
  <advance width="686"/>
  <unicode hex="0427"/>
  <anchor x="598" y="172" name="bottomright"/>
  <anchor x="346" y="647" name="top"/>
  <outline>
    <contour>
      <point x="664" y="-2" type="curve"/>
      <point x="673" y="81" type="line"/>
      <point x="665" y="92" type="line"/>
      <point x="659" y="91"/>
      <point x="648" y="89"/>
      <point x="637" y="89" type="curve" smooth="yes"/>
      <point x="608" y="89"/>
      <point x="598" y="106"/>
      <point x="598" y="172" type="curve" smooth="yes"/>
      <point x="598" y="287"/>
      <point x="602" y="431"/>
      <point x="608" y="510" type="curve" smooth="yes"/>
      <point x="611" y="548"/>
      <point x="620" y="556"/>
      <point x="668" y="564" type="curve"/>
      <point x="675" y="652" type="line"/>
      <point x="581" y="649"/>
      <point x="521" y="647"/>
      <point x="499" y="647" type="curve" smooth="yes"/>
      <point x="460" y="647"/>
      <point x="390" y="647"/>
      <point x="344" y="647" type="curve"/>
      <point x="336" y="572" type="line"/>
      <point x="345" y="558" type="line"/>
      <point x="352" y="558"/>
      <point x="364" y="559"/>
      <point x="372" y="559" type="curve" smooth="yes"/>
      <point x="396" y="559"/>
      <point x="401" y="549"/>
      <point x="401" y="508" type="curve" smooth="yes"/>
      <point x="401" y="162" type="line" smooth="yes"/>
      <point x="401" y="108"/>
      <point x="383" y="87"/>
      <point x="335" y="86" type="curve"/>
      <point x="327" y="-1" type="line"/>
      <point x="379" y="-1"/>
      <point x="459" y="0"/>
      <point x="493" y="0" type="curve" smooth="yes"/>
      <point x="547" y="0"/>
      <point x="621" y="-1"/>
    </contour>
    <contour>
      <point x="502" y="264" type="curve"/>
      <point x="502" y="368" type="line"/>
      <point x="340" y="337" type="line"/>
      <point x="283" y="347"/>
      <point x="259" y="378"/>
      <point x="261" y="441" type="curve" smooth="yes"/>
      <point x="263" y="510" type="line" smooth="yes"/>
      <point x="264" y="546"/>
      <point x="270" y="554"/>
      <point x="306" y="562" type="curve"/>
      <point x="313" y="652" type="line"/>
      <point x="222" y="649"/>
      <point x="153" y="647"/>
      <point x="124" y="647" type="curve" smooth="yes"/>
      <point x="10" y="647" type="line"/>
      <point x="2" y="572" type="line"/>
      <point x="11" y="558" type="line"/>
      <point x="16" y="558"/>
      <point x="27" y="559"/>
      <point x="34" y="559" type="curve" smooth="yes"/>
      <point x="49" y="559"/>
      <point x="57" y="549"/>
      <point x="57" y="523" type="curve" smooth="yes"/>
      <point x="57" y="423" type="line" smooth="yes"/>
      <point x="57" y="231"/>
      <point x="249" y="162"/>
    </contour>
  </outline>
</glyph>
<glyph name="Sha-cy" format="2">
  <advance width="1096"/>
  <unicode hex="0428"/>
  <anchor x="1007" y="172" name="serif"/>
  <outline>
    <contour>
      <point x="15" y="-5" type="line"/>
      <point x="113" y="-2"/>
      <point x="165" y="0"/>
      <point x="186" y="0" type="curve" smooth="yes"/>
      <point x="918" y="0" type="line" smooth="yes"/>
      <point x="1039" y="0"/>
      <point x="1049" y="0"/>
      <point x="1077" y="-1" type="curve"/>
      <point x="1085" y="75" type="line"/>
      <point x="1076" y="89" type="line"/>
      <point x="1070" y="89"/>
      <point x="1059" y="88"/>
      <point x="1051" y="88" type="curve" smooth="yes"/>
      <point x="1016" y="88"/>
      <point x="1007" y="101"/>
      <point x="1007" y="172" type="curve" smooth="yes"/>
      <point x="1007" y="289"/>
      <point x="1013" y="433"/>
      <point x="1017" y="510" type="curve" smooth="yes"/>
      <point x="1019" y="547"/>
      <point x="1029" y="556"/>
      <point x="1076" y="564" type="curve"/>
      <point x="1083" y="652" type="line"/>
      <point x="973" y="646"/>
      <point x="864" y="645"/>
      <point x="758" y="647" type="curve"/>
      <point x="750" y="572" type="line"/>
      <point x="759" y="558" type="line"/>
      <point x="806" y="561"/>
      <point x="811" y="556"/>
      <point x="811" y="514" type="curve" smooth="yes"/>
      <point x="811" y="163" type="line" smooth="yes"/>
      <point x="811" y="126"/>
      <point x="796" y="114"/>
      <point x="750" y="114" type="curve" smooth="yes"/>
      <point x="702" y="114" type="line" smooth="yes"/>
      <point x="656" y="114"/>
      <point x="646" y="123"/>
      <point x="646" y="165" type="curve" smooth="yes"/>
      <point x="646" y="265"/>
      <point x="650" y="421"/>
      <point x="655" y="510" type="curve" smooth="yes"/>
      <point x="657" y="546"/>
      <point x="662" y="554"/>
      <point x="700" y="562" type="curve"/>
      <point x="707" y="652" type="line"/>
      <point x="601" y="646"/>
      <point x="496" y="645"/>
      <point x="391" y="647" type="curve"/>
      <point x="383" y="572" type="line"/>
      <point x="392" y="558" type="line"/>
      <point x="398" y="558"/>
      <point x="409" y="559"/>
      <point x="417" y="559" type="curve" smooth="yes"/>
      <point x="442" y="559"/>
      <point x="448" y="549"/>
      <point x="449" y="508" type="curve" smooth="yes"/>
      <point x="450" y="163" type="line" smooth="yes"/>
      <point x="450" y="126"/>
      <point x="435" y="114"/>
      <point x="389" y="114" type="curve" smooth="yes"/>
      <point x="342" y="114" type="line" smooth="yes"/>
      <point x="295" y="114"/>
      <point x="285" y="123"/>
      <point x="285" y="165" type="curve" smooth="yes"/>
      <point x="285" y="265"/>
      <point x="290" y="421"/>
      <point x="295" y="510" type="curve" smooth="yes"/>
      <point x="297" y="546"/>
      <point x="301" y="554"/>
      <point x="339" y="562" type="curve"/>
      <point x="346" y="652" type="line"/>
      <point x="239" y="646"/>
      <point x="133" y="645"/>
      <point x="26" y="647" type="curve"/>
      <point x="18" y="572" type="line"/>
      <point x="27" y="558" type="line"/>
      <point x="33" y="558"/>
      <point x="44" y="559"/>
      <point x="52" y="559" type="curve" smooth="yes"/>
      <point x="80" y="559"/>
      <point x="88" y="549"/>
      <point x="88" y="508" type="curve" smooth="yes"/>
      <point x="88" y="162" type="line" smooth="yes"/>
      <point x="88" y="108"/>
      <point x="75" y="95"/>
      <point x="22" y="85" type="curve"/>
    </contour>
  </outline>
</glyph>
<glyph name="Softsign-cy" format="2">
  <advance width="645"/>
  <unicode hex="042C"/>
  <outline>
    <contour>
      <point x="370" y="-11" type="curve" smooth="yes"/>
      <point x="533" y="-11"/>
      <point x="637" y="73"/>
      <point x="637" y="204" type="curve" smooth="yes"/>
      <point x="637" y="331"/>
      <point x="553" y="396"/>
      <point x="392" y="396" type="curve" smooth="yes"/>
      <point x="290" y="396" type="line"/>
      <point x="296" y="499" type="line" smooth="yes"/>
      <point x="298" y="546"/>
      <point x="310" y="555"/>
      <point x="370" y="562" type="curve"/>
      <point x="377" y="652" type="line"/>
      <point x="263" y="648"/>
      <point x="148" y="646"/>
      <point x="28" y="647" type="curve"/>
      <point x="20" y="572" type="line"/>
      <point x="29" y="558" type="line"/>
      <point x="35" y="558"/>
      <point x="47" y="559"/>
      <point x="55" y="559" type="curve" smooth="yes"/>
      <point x="83" y="559"/>
      <point x="90" y="549"/>
      <point x="90" y="508" type="curve" smooth="yes"/>
      <point x="89" y="156" type="line" smooth="yes"/>
      <point x="89" y="108"/>
      <point x="74" y="92"/>
      <point x="24" y="83" type="curve"/>
      <point x="15" y="-7" type="line"/>
      <point x="80" y="-3"/>
      <point x="153" y="0"/>
      <point x="185" y="0" type="curve" smooth="yes"/>
      <point x="241" y="0"/>
      <point x="311" y="-11"/>
    </contour>
    <contour>
      <point x="344" y="114" type="curve" smooth="yes"/>
      <point x="305" y="114"/>
      <point x="285" y="130"/>
      <point x="285" y="160" type="curve" smooth="yes"/>
      <point x="286" y="271" type="line"/>
      <point x="345" y="276" type="line"/>
      <point x="398" y="271"/>
      <point x="422" y="245"/>
      <point x="422" y="190" type="curve" smooth="yes"/>
      <point x="422" y="141"/>
      <point x="394" y="114"/>
    </contour>
  </outline>
</glyph>
<glyph name="de-cy" format="2">
  <advance width="548"/>
  <unicode hex="0434"/>
  <outline>
    <contour>
      <point x="105" y="-130" type="line"/>
      <point x="121" y="-61" type="line" smooth="yes"/>
      <point x="131" y="-16"/>
      <point x="155" y="0"/>
      <point x="211" y="0" type="curve" smooth="yes"/>
      <point x="319" y="0" type="line" smooth="yes"/>
      <point x="376" y="0"/>
      <point x="398" y="-14"/>
      <point x="408" y="-57" type="curve" smooth="yes"/>
      <point x="427" y="-138" type="line"/>
      <point x="534" y="-130" type="line"/>
      <point x="528" y="-47"/>
      <point x="525" y="14"/>
      <point x="526" y="70" type="curve"/>
      <point x="520" y="81" type="line"/>
      <point x="499" y="82" type="line" smooth="yes"/>
      <point x="471" y="83"/>
      <point x="465" y="92"/>
      <point x="465" y="131" type="curve" smooth="yes"/>
      <point x="465" y="211"/>
      <point x="467" y="264"/>
      <point x="472" y="351" type="curve" smooth="yes"/>
      <point x="474" y="378"/>
      <point x="479" y="383"/>
      <point x="513" y="388" type="curve"/>
      <point x="519" y="476" type="line"/>
      <point x="472" y="473"/>
      <point x="434" y="472"/>
      <point x="384" y="472" type="curve" smooth="yes"/>
      <point x="48" y="472" type="line"/>
      <point x="42" y="398" type="line"/>
      <point x="49" y="384" type="line"/>
      <point x="128" y="384"/>
      <point x="145" y="368"/>
      <point x="132" y="309" type="curve" smooth="yes"/>
      <point x="122" y="264" type="line" smooth="yes"/>
      <point x="100" y="167"/>
      <point x="84" y="141"/>
      <point x="10" y="81" type="curve"/>
      <point x="3" y="70" type="line"/>
      <point x="4" y="-11"/>
      <point x="2" y="-74"/>
      <point x="-4" y="-138" type="curve"/>
    </contour>
    <contour>
      <point x="184" y="75" type="line"/>
      <point x="179" y="99" type="line"/>
      <point x="212" y="129"/>
      <point x="231" y="173"/>
      <point x="244" y="249" type="curve" smooth="yes"/>
      <point x="276" y="429" type="line"/>
      <point x="210" y="367" type="line"/>
      <point x="276" y="367" type="line" smooth="yes"/>
      <point x="301" y="367"/>
      <point x="305" y="361"/>
      <point x="305" y="330" type="curve" smooth="yes"/>
      <point x="305" y="118" type="line" smooth="yes"/>
      <point x="305" y="101"/>
      <point x="291" y="92"/>
      <point x="267" y="92" type="curve" smooth="yes"/>
      <point x="96" y="92" type="line"/>
    </contour>
  </outline>
</glyph>
<glyph name="pe-cy" format="2">
  <advance width="587"/>
  <unicode hex="043F"/>
  <anchor x="511" y="134" name="bottomright"/>
  <outline>
    <contour>
      <point x="23" y="-3" type="line"/>
      <point x="78" y="-1"/>
      <point x="127" y="0"/>
      <point x="150" y="0" type="curve" smooth="yes"/>
      <point x="171" y="0"/>
      <point x="231" y="-1"/>
      <point x="275" y="-3" type="curve"/>
      <point x="282" y="80" type="line"/>
      <point x="275" y="88" type="line"/>
      <point x="271" y="87"/>
      <point x="265" y="86"/>
      <point x="256" y="86" type="curve" smooth="yes"/>
      <point x="239" y="86"/>
      <point x="234" y="95"/>
      <point x="234" y="136" type="curve" smooth="yes"/>
      <point x="234" y="210"/>
      <point x="237" y="241"/>
      <point x="242" y="331" type="curve" smooth="yes"/>
      <point x="244" y="360"/>
      <point x="252" y="367"/>
      <point x="282" y="367" type="curve" smooth="yes"/>
      <point x="307" y="367" type="line" smooth="yes"/>
      <point x="342" y="367"/>
      <point x="351" y="361"/>
      <point x="351" y="330" type="curve" smooth="yes"/>
      <point x="351" y="138" type="line" smooth="yes"/>
      <point x="351" y="99"/>
      <point x="346" y="92"/>
      <point x="307" y="84" type="curve"/>
      <point x="301" y="0" type="line"/>
      <point x="427" y="0" type="line"/>
      <point x="446" y="0"/>
      <point x="508" y="-1"/>
      <point x="553" y="-3" type="curve"/>
      <point x="560" y="73" type="line"/>
      <point x="554" y="81" type="line"/>
      <point x="549" y="81"/>
      <point x="540" y="81"/>
      <point x="533" y="81" type="curve" smooth="yes"/>
      <point x="515" y="81"/>
      <point x="511" y="90"/>
      <point x="511" y="131" type="curve" smooth="yes"/>
      <point x="511" y="214"/>
      <point x="514" y="271"/>
      <point x="517" y="350" type="curve" smooth="yes"/>
      <point x="518" y="377"/>
      <point x="524" y="382"/>
      <point x="557" y="387" type="curve"/>
      <point x="563" y="475" type="line"/>
      <point x="484" y="474"/>
      <point x="445" y="472"/>
      <point x="429" y="472" type="curve" smooth="yes"/>
      <point x="154" y="472" type="line"/>
      <point x="111" y="472"/>
      <point x="72" y="472"/>
      <point x="31" y="473" type="curve"/>
      <point x="25" y="394" type="line"/>
      <point x="32" y="383" type="line"/>
      <point x="35" y="383"/>
      <point x="43" y="383"/>
      <point x="49" y="383" type="curve" smooth="yes"/>
      <point x="69" y="383"/>
      <point x="75" y="377"/>
      <point x="75" y="347" type="curve" smooth="yes"/>
      <point x="75" y="141" type="line" smooth="yes"/>
      <point x="75" y="101"/>
      <point x="68" y="90"/>
      <point x="29" y="81" type="curve"/>
    </contour>
  </outline>
</glyph>
<glyph name="tse-cy" format="2">
  <advance width="585"/>
  <unicode hex="0446"/>
  <outline>
    <contour>
      <point x="482" y="0" type="line"/>
      <point x="502" y="134" type="line"/>
      <point x="502" y="237"/>
      <point x="507" y="305"/>
      <point x="510" y="350" type="curve" smooth="yes"/>
      <point x="512" y="377"/>
      <point x="518" y="383"/>
      <point x="552" y="389" type="curve"/>
      <point x="558" y="475" type="line"/>
      <point x="470" y="471"/>
      <point x="385" y="471"/>
      <point x="303" y="472" type="curve"/>
      <point x="296" y="396" type="line"/>
      <point x="304" y="385" type="line"/>
      <point x="339" y="386"/>
      <point x="343" y="383"/>
      <point x="343" y="354" type="curve" smooth="yes"/>
      <point x="344" y="120" type="line" smooth="yes"/>
      <point x="344" y="100"/>
      <point x="333" y="92"/>
      <point x="303" y="92" type="curve" smooth="yes"/>
      <point x="278" y="92" type="line" smooth="yes"/>
      <point x="242" y="92"/>
      <point x="236" y="97"/>
      <point x="236" y="128" type="curve" smooth="yes"/>
      <point x="236" y="203"/>
      <point x="239" y="296"/>
      <point x="242" y="354" type="curve" smooth="yes"/>
      <point x="243" y="375"/>
      <point x="245" y="381"/>
      <point x="273" y="387" type="curve"/>
      <point x="278" y="475" type="line"/>
      <point x="195" y="471"/>
      <point x="114" y="471"/>
      <point x="31" y="472" type="curve"/>
      <point x="25" y="396" type="line"/>
      <point x="32" y="385" type="line"/>
      <point x="73" y="383"/>
      <point x="75" y="381"/>
      <point x="75" y="349" type="curve" smooth="yes"/>
      <point x="75" y="135" type="line" smooth="yes"/>
      <point x="75" y="97"/>
      <point x="66" y="88"/>
      <point x="29" y="80" type="curve"/>
      <point x="23" y="-3" type="line"/>
      <point x="102" y="-1"/>
      <point x="140" y="0"/>
      <point x="156" y="0" type="curve" smooth="yes"/>
    </contour>
    <contour>
      <point x="461" y="-138" type="line"/>
      <point x="570" y="-130" type="line"/>
      <point x="563" y="-63"/>
      <point x="561" y="1"/>
      <point x="562" y="70" type="curve"/>
      <point x="556" y="81" type="line"/>
      <point x="536" y="82" type="line" smooth="yes"/>
      <point x="507" y="84"/>
      <point x="502" y="92"/>
      <point x="502" y="134" type="curve"/>
      <point x="357" y="0" type="line"/>
      <point x="413" y="0"/>
      <point x="435" y="-14"/>
      <point x="444" y="-57" type="curve" smooth="yes"/>
    </contour>
  </outline>
</glyph>
<glyph name="shcha-cy" format="2">
  <advance width="854"/>
  <unicode hex="0449"/>
  <anchor x="771" y="134" name="_bottomright"/>
  <outline>
    <contour>
      <point x="22" y="-3" type="line"/>
      <point x="101" y="-1"/>
      <point x="139" y="0"/>
      <point x="155" y="0" type="curve" smooth="yes"/>
      <point x="699" y="0" type="line"/>
      <point x="771" y="134" type="line"/>
      <point x="771" y="230"/>
      <point x="775" y="301"/>
      <point x="778" y="349" type="curve" smooth="yes"/>
      <point x="780" y="376"/>
      <point x="786" y="382"/>
      <point x="820" y="388" type="curve"/>
      <point x="826" y="475" type="line"/>
      <point x="741" y="471"/>
      <point x="652" y="471"/>
      <point x="571" y="472" type="curve"/>
      <point x="565" y="395" type="line"/>
      <point x="572" y="384" type="line"/>
      <point x="605" y="385"/>
      <point x="611" y="382"/>
      <point x="611" y="353" type="curve" smooth="yes"/>
      <point x="612" y="120" type="line" smooth="yes"/>
      <point x="612" y="100"/>
      <point x="601" y="92"/>
      <point x="570" y="92" type="curve" smooth="yes"/>
      <point x="545" y="92" type="line" smooth="yes"/>
      <point x="510" y="92"/>
      <point x="503" y="97"/>
      <point x="503" y="128" type="curve" smooth="yes"/>
      <point x="503" y="203"/>
      <point x="507" y="294"/>
      <point x="510" y="353" type="curve" smooth="yes"/>
      <point x="511" y="374"/>
      <point x="516" y="380"/>
      <point x="540" y="386" type="curve"/>
      <point x="546" y="475" type="line"/>
      <point x="464" y="471"/>
      <point x="382" y="471"/>
      <point x="302" y="472" type="curve"/>
      <point x="295" y="395" type="line"/>
      <point x="303" y="384" type="line"/>
      <point x="339" y="384"/>
      <point x="343" y="381"/>
      <point x="343" y="348" type="curve" smooth="yes"/>
      <point x="344" y="121" type="line" smooth="yes"/>
      <point x="344" y="100"/>
      <point x="333" y="92"/>
      <point x="303" y="92" type="curve" smooth="yes"/>
      <point x="277" y="92" type="line" smooth="yes"/>
      <point x="242" y="92"/>
      <point x="235" y="97"/>
      <point x="235" y="128" type="curve" smooth="yes"/>
      <point x="235" y="203"/>
      <point x="239" y="295"/>
      <point x="242" y="353" type="curve" smooth="yes"/>
      <point x="243" y="374"/>
      <point x="246" y="380"/>
      <point x="271" y="386" type="curve"/>
      <point x="277" y="475" type="line"/>
      <point x="194" y="471"/>
      <point x="112" y="471"/>
      <point x="30" y="472" type="curve"/>
      <point x="24" y="395" type="line"/>
      <point x="31" y="384" type="line"/>
      <point x="70" y="384"/>
      <point x="75" y="381"/>
      <point x="75" y="348" type="curve" smooth="yes"/>
      <point x="75" y="137" type="line" smooth="yes"/>
      <point x="75" y="98"/>
      <point x="65" y="89"/>
      <point x="28" y="81" type="curve"/>
    </contour>
    <contour>
      <point x="732" y="-138" type="line"/>
      <point x="840" y="-130" type="line"/>
      <point x="833" y="-63"/>
      <point x="831" y="1"/>
      <point x="832" y="70" type="curve"/>
      <point x="827" y="81" type="line"/>
      <point x="806" y="82" type="line" smooth="yes"/>
      <point x="777" y="83"/>
      <point x="771" y="92"/>
      <point x="771" y="134" type="curve"/>
      <point x="626" y="0" type="line"/>
      <point x="683" y="0"/>
      <point x="704" y="-14"/>
      <point x="714" y="-57" type="curve" smooth="yes"/>
    </contour>
  </outline>
</glyph>
<glyph name="ereversed-cy" format="2">
  <advance width="462"/>
  <unicode hex="044D"/>
  <anchor x="230" y="472" name="top"/>
  <outline>
    <contour>
      <point x="37" y="2" type="line"/>
      <point x="323" y="-39"/>
      <point x="449" y="34"/>
      <point x="449" y="243" type="curve" smooth="yes"/>
      <point x="449" y="451"/>
      <point x="323" y="519"/>
      <point x="49" y="461" type="curve"/>
      <point x="36" y="448" type="line"/>
      <point x="36" y="393"/>
      <point x="34" y="344"/>
      <point x="30" y="317" type="curve"/>
      <point x="138" y="323" type="line"/>
      <point x="142" y="363"/>
      <point x="145" y="365"/>
      <point x="204" y="365" type="curve" smooth="yes"/>
      <point x="251" y="365"/>
      <point x="268" y="325"/>
      <point x="268" y="211" type="curve" smooth="yes"/>
      <point x="268" y="115"/>
      <point x="256" y="97"/>
      <point x="201" y="97" type="curve" smooth="yes"/>
      <point x="153" y="97"/>
      <point x="143" y="109"/>
      <point x="145" y="162" type="curve"/>
      <point x="39" y="156" type="line"/>
      <point x="30" y="144" type="line"/>
      <point x="32" y="122"/>
      <point x="31" y="87"/>
      <point x="27" y="15" type="curve"/>
    </contour>
    <contour>
      <point x="123" y="189" type="line"/>
      <point x="202" y="192"/>
      <point x="229" y="193"/>
      <point x="294" y="192" type="curve"/>
      <point x="297" y="293" type="line"/>
      <point x="225" y="289"/>
      <point x="177" y="288"/>
      <point x="124" y="290" type="curve"/>
      <point x="114" y="200" type="line"/>
    </contour>
  </outline>
</glyph>
<glyph name="e-cy" format="2">
  <advance width="462"/>
  <unicode hex="0454"/>
  <outline>
    <contour>
      <point x="425" y="470" type="line"/>
      <point x="139" y="511"/>
      <point x="13" y="438"/>
      <point x="13" y="229" type="curve" smooth="yes"/>
      <point x="13" y="21"/>
      <point x="139" y="-47"/>
      <point x="413" y="11" type="curve"/>
      <point x="426" y="24" type="line"/>
      <point x="426" y="96"/>
      <point x="428" y="147"/>
      <point x="432" y="167" type="curve"/>
      <point x="325" y="161" type="line"/>
      <point x="320" y="114"/>
      <point x="313" y="107"/>
      <point x="278" y="107" type="curve" smooth="yes"/>
      <point x="212" y="107"/>
      <point x="194" y="131"/>
      <point x="194" y="258" type="curve" smooth="yes"/>
      <point x="194" y="358"/>
      <point x="205" y="375"/>
      <point x="263" y="375" type="curve" smooth="yes"/>
      <point x="307" y="375"/>
      <point x="319" y="365"/>
      <point x="317" y="322" type="curve"/>
      <point x="423" y="328" type="line"/>
      <point x="432" y="340" type="line"/>
      <point x="430" y="360"/>
      <point x="431" y="378"/>
      <point x="435" y="457" type="curve"/>
    </contour>
    <contour>
      <point x="339" y="292" type="line"/>
      <point x="248" y="289"/>
      <point x="225" y="288"/>
      <point x="168" y="289" type="curve"/>
      <point x="165" y="188" type="line"/>
      <point x="248" y="192"/>
      <point x="292" y="193"/>
      <point x="338" y="191" type="curve"/>
      <point x="348" y="281" type="line"/>
    </contour>
  </outline>
</glyph>
<glyph name="Fita-cy" format="2">
  <advance width="651"/>
  <unicode hex="0472"/>
  <outline>
    <contour>
      <point x="307" y="-12" type="curve" smooth="yes"/>
      <point x="510" y="-12"/>
      <point x="636" y="123"/>
      <point x="636" y="340" type="curve" smooth="yes"/>
      <point x="636" y="543"/>
      <point x="531" y="656"/>
      <point x="343" y="656" type="curve" smooth="yes"/>
      <point x="139" y="656"/>
      <point x="15" y="524"/>
      <point x="15" y="308" type="curve" smooth="yes"/>
      <point x="15" y="106"/>
      <point x="122" y="-12"/>
    </contour>
    <contour>
      <point x="330" y="102" type="curve" smooth="yes"/>
      <point x="240" y="102"/>
      <point x="194" y="180"/>
      <point x="194" y="352" type="curve" smooth="yes"/>
      <point x="194" y="473"/>
      <point x="237" y="532"/>
      <point x="317" y="532" type="curve" smooth="yes"/>
      <point x="410" y="532"/>
      <point x="456" y="455"/>
      <point x="456" y="283" type="curve" smooth="yes"/>
      <point x="456" y="162"/>
      <point x="412" y="102"/>
    </contour>
    <contour>
      <point x="106" y="256" type="line"/>
      <point x="245" y="256"/>
      <point x="389" y="257"/>
      <point x="532" y="257" type="curve"/>
      <point x="534" y="382" type="line"/>
      <point x="336" y="379" type="line"/>
      <point x="106" y="380" type="line"/>
    </contour>
  </outline>
</glyph>
<glyph name="izhitsa-cy" format="2">
  <advance width="487"/>
  <unicode hex="0475"/>
  <anchor x="244" y="472" name="top"/>
  <outline>
    <contour>
      <point x="135" y="-13" type="curve"/>
      <point x="351" y="0" type="line"/>
      <point x="426" y="293" type="line" smooth="yes"/>
      <point x="436" y="330"/>
      <point x="447" y="338"/>
      <point x="478" y="338" type="curve"/>
      <point x="493" y="354" type="line"/>
      <point x="492" y="396"/>
      <point x="481" y="439"/>
      <point x="460" y="481" type="curve"/>
      <point x="362" y="472"/>
      <point x="328" y="443"/>
      <point x="310" y="355" type="curve" smooth="yes"/>
      <point x="270" y="145" type="line"/>
      <point x="253" y="145" type="line"/>
      <point x="232" y="263"/>
      <point x="218" y="349"/>
      <point x="218" y="360" type="curve" smooth="yes"/>
      <point x="218" y="378"/>
      <point x="219" y="379"/>
      <point x="255" y="386" type="curve"/>
      <point x="266" y="474" type="line"/>
      <point x="264" y="479" type="line"/>
      <point x="218" y="474"/>
      <point x="164" y="472"/>
      <point x="109" y="472" type="curve"/>
      <point x="1" y="474" type="line"/>
      <point x="-7" y="390" type="line"/>
      <point x="-5" y="385" type="line"/>
      <point x="24" y="384"/>
      <point x="41" y="368"/>
      <point x="51" y="334" type="curve" smooth="yes"/>
      <point x="63" y="297"/>
      <point x="101" y="140"/>
    </contour>
  </outline>
</glyph>
<glyph name="gheupturn-cy" format="2">
  <advance width="425"/>
  <unicode hex="0491"/>
  <outline>
    <contour>
      <point x="337" y="592" type="line"/>
      <point x="322" y="525" type="line" smooth="yes"/>
      <point x="311" y="477"/>
      <point x="301" y="472"/>
      <point x="220" y="472" type="curve" smooth="yes"/>
      <point x="166" y="472"/>
      <point x="83" y="474"/>
      <point x="34" y="475" type="curve"/>
      <point x="27" y="394" type="line"/>
      <point x="37" y="383" type="line"/>
      <point x="40" y="384"/>
      <point x="46" y="384"/>
      <point x="56" y="384" type="curve" smooth="yes"/>
      <point x="72" y="384"/>
      <point x="76" y="377"/>
      <point x="76" y="345" type="curve" smooth="yes"/>
      <point x="75" y="137" type="line" smooth="yes"/>
      <point x="75" y="98"/>
      <point x="68" y="89"/>
      <point x="27" y="83" type="curve"/>
      <point x="20" y="-7" type="line"/>
      <point x="72" y="-3"/>
      <point x="141" y="0"/>
      <point x="184" y="0" type="curve" smooth="yes"/>
      <point x="211" y="0"/>
      <point x="270" y="-1"/>
      <point x="311" y="-2" type="curve"/>
      <point x="321" y="85" type="line"/>
      <point x="308" y="100" type="line"/>
      <point x="292" y="95"/>
      <point x="278" y="93"/>
      <point x="266" y="93" type="curve" smooth="yes"/>
      <point x="241" y="93"/>
      <point x="234" y="101"/>
      <point x="234" y="134" type="curve"/>
      <point x="242" y="351" type="line" smooth="yes"/>
      <point x="243" y="367"/>
      <point x="251" y="374"/>
      <point x="268" y="375" type="curve" smooth="yes"/>
      <point x="295" y="376"/>
      <point x="353" y="373"/>
      <point x="412" y="368" type="curve"/>
      <point x="423" y="379" type="line"/>
      <point x="427" y="457"/>
      <point x="432" y="537"/>
      <point x="436" y="586" type="curve"/>
    </contour>
  </outline>
</glyph>
<glyph name="ghemiddlehook-cy" format="2">
  <advance width="520"/>
  <unicode hex="0495"/>
  <outline>
    <contour>
      <point x="20" y="-7" type="line"/>
      <point x="104" y="1"/>
      <point x="187" y="2"/>
      <point x="271" y="-2" type="curve"/>
      <point x="281" y="80" type="line"/>
      <point x="273" y="91" type="line"/>
      <point x="241" y="91"/>
      <point x="234" y="99"/>
      <point x="234" y="134" type="curve"/>
      <point x="243" y="358" type="line" smooth="yes"/>
      <point x="244" y="373"/>
      <point x="251" y="376"/>
      <point x="289" y="376" type="curve" smooth="yes"/>
      <point x="338" y="376"/>
      <point x="349" y="369"/>
      <point x="349" y="339" type="curve" smooth="yes"/>
      <point x="349" y="332"/>
      <point x="348" y="310"/>
      <point x="347" y="302" type="curve"/>
      <point x="459" y="308" type="line"/>
      <point x="461" y="360"/>
      <point x="465" y="420"/>
      <point x="472" y="468" type="curve"/>
      <point x="462" y="481" type="line"/>
      <point x="423" y="476"/>
      <point x="322" y="472"/>
      <point x="230" y="472" type="curve" smooth="yes"/>
      <point x="176" y="472"/>
      <point x="83" y="474"/>
      <point x="34" y="475" type="curve"/>
      <point x="27" y="394" type="line"/>
      <point x="37" y="383" type="line"/>
      <point x="39" y="384"/>
      <point x="40" y="384"/>
      <point x="56" y="384" type="curve" smooth="yes"/>
      <point x="72" y="384"/>
      <point x="76" y="377"/>
      <point x="76" y="345" type="curve" smooth="yes"/>
      <point x="75" y="137" type="line" smooth="yes"/>
      <point x="75" y="98"/>
      <point x="68" y="89"/>
      <point x="27" y="83" type="curve"/>
    </contour>
    <contour>
      <point x="275" y="-163" type="line"/>
      <point x="407" y="-114"/>
      <point x="498" y="-6"/>
      <point x="498" y="122" type="curve" smooth="yes"/>
      <point x="498" y="220"/>
      <point x="436" y="276"/>
      <point x="330" y="276" type="curve" smooth="yes"/>
      <point x="275" y="276"/>
      <point x="211" y="263"/>
      <point x="146" y="238" type="curve"/>
      <point x="146" y="155" type="line"/>
      <point x="281" y="178" type="line"/>
      <point x="321" y="165"/>
      <point x="332" y="148"/>
      <point x="332" y="102" type="curve" smooth="yes"/>
      <point x="332" y="25"/>
      <point x="296" y="-57"/>
      <point x="235" y="-121" type="curve"/>
      <point x="265" y="-158" type="line"/>
    </contour>
  </outline>
</glyph>
<glyph name="ustrait-cy" format="2">
  <advance width="500"/>
  <unicode hex="04AF"/>
  <anchor x="232" y="-3" name="center"/>
  <outline>
    <contour>
      <point x="163" y="-52" type="curve"/>
      <point x="302" y="-52" type="line"/>
      <point x="454" y="348" type="line"/>
      <point x="463" y="377"/>
      <point x="468" y="381"/>
      <point x="499" y="385" type="curve"/>
      <point x="508" y="473" type="line"/>
      <point x="484" y="473"/>
      <point x="440" y="472"/>
      <point x="407" y="472" type="curve" smooth="yes"/>
      <point x="390" y="472"/>
      <point x="357" y="473"/>
      <point x="293" y="474" type="curve"/>
      <point x="282" y="390" type="line"/>
      <point x="286" y="383" type="line"/>
      <point x="302" y="383" type="line"/>
      <point x="320" y="383"/>
      <point x="323" y="381"/>
      <point x="323" y="369" type="curve" smooth="yes"/>
      <point x="323" y="356"/>
      <point x="303" y="281"/>
      <point x="269" y="167" type="curve"/>
      <point x="252" y="167" type="line"/>
      <point x="228" y="292"/>
      <point x="217" y="351"/>
      <point x="217" y="362" type="curve" smooth="yes"/>
      <point x="217" y="379"/>
      <point x="218" y="380"/>
      <point x="254" y="386" type="curve"/>
      <point x="265" y="474" type="line"/>
      <point x="263" y="479" type="line"/>
      <point x="203" y="475"/>
      <point x="143" y="472"/>
      <point x="108" y="472" type="curve" smooth="yes"/>
      <point x="90" y="472"/>
      <point x="57" y="473"/>
      <point x="0" y="474" type="curve"/>
      <point x="-8" y="390" type="line"/>
      <point x="-6" y="385" type="line"/>
      <point x="23" y="384"/>
      <point x="40" y="370"/>
      <point x="50" y="337" type="curve" smooth="yes"/>
      <point x="79" y="245"/>
      <point x="134" y="56"/>
    </contour>
    <contour>
      <point x="68" y="-235" type="line"/>
      <point x="169" y="-231"/>
      <point x="203" y="-230"/>
      <point x="229" y="-230" type="curve" smooth="yes"/>
      <point x="253" y="-230"/>
      <point x="315" y="-232"/>
      <point x="381" y="-234" type="curve"/>
      <point x="395" y="-146" type="line"/>
      <point x="392" y="-141" type="line"/>
      <point x="380" y="-142"/>
      <point x="358" y="-144"/>
      <point x="344" y="-144" type="curve" smooth="yes"/>
      <point x="325" y="-144"/>
      <point x="320" y="-137"/>
      <point x="320" y="-107" type="curve"/>
      <point x="321" y="56" type="line"/>
      <point x="150" y="56" type="line"/>
      <point x="146" y="-91" type="line" smooth="yes"/>
      <point x="145" y="-132"/>
      <point x="128" y="-146"/>
      <point x="80" y="-148" type="curve"/>
    </contour>
  </outline>
</glyph>
<glyph name="hadescender-cy" format="2">
  <advance width="566"/>
  <unicode hex="04B3"/>
  <anchor x="198" y="0" name="bottom"/>
  <anchor x="215" y="463" name="top"/>
  <outline>
    <contour>
      <point x="441" y="-138" type="line"/>
      <point x="549" y="-130" type="line"/>
      <point x="544" y="-63"/>
      <point x="543" y="5"/>
      <point x="545" y="72" type="curve"/>
      <point x="538" y="81" type="line"/>
      <point x="494" y="87"/>
      <point x="483" y="94"/>
      <point x="448" y="138" type="curve" smooth="yes"/>
      <point x="388" y="213" type="line"/>
      <point x="460" y="317" type="line" smooth="yes"/>
      <point x="477" y="342"/>
      <point x="501" y="362"/>
      <point x="548" y="391" type="curve"/>
      <point x="553" y="469" type="line"/>
      <point x="550" y="475" type="line"/>
      <point x="527" y="474"/>
      <point x="484" y="472"/>
      <point x="451" y="472" type="curve" smooth="yes"/>
      <point x="343" y="472" type="line"/>
      <point x="337" y="400" type="line"/>
      <point x="339" y="396" type="line"/>
      <point x="360" y="396"/>
      <point x="367" y="392"/>
      <point x="367" y="381" type="curve" smooth="yes"/>
      <point x="367" y="373"/>
      <point x="367" y="373"/>
      <point x="350" y="345" type="curve"/>
      <point x="319" y="300" type="line"/>
      <point x="293" y="333" type="line" smooth="yes"/>
      <point x="278" y="351"/>
      <point x="273" y="361"/>
      <point x="273" y="376" type="curve" smooth="yes"/>
      <point x="273" y="389"/>
      <point x="283" y="395"/>
      <point x="303" y="395" type="curve"/>
      <point x="310" y="469" type="line"/>
      <point x="305" y="477" type="line"/>
      <point x="254" y="474"/>
      <point x="195" y="472"/>
      <point x="158" y="472" type="curve" smooth="yes"/>
      <point x="94" y="472"/>
      <point x="44" y="473"/>
      <point x="24" y="473" type="curve"/>
      <point x="17" y="393" type="line"/>
      <point x="20" y="388" type="line"/>
      <point x="66" y="378"/>
      <point x="90" y="363"/>
      <point x="117" y="327" type="curve" smooth="yes"/>
      <point x="175" y="250" type="line"/>
      <point x="101" y="160" type="line" smooth="yes"/>
      <point x="47" y="94"/>
      <point x="33" y="80"/>
      <point x="17" y="73" type="curve"/>
      <point x="8" y="6" type="line"/>
      <point x="12" y="-4" type="line"/>
      <point x="54" y="-2"/>
      <point x="91" y="0"/>
      <point x="109" y="0" type="curve" smooth="yes"/>
      <point x="133" y="0"/>
      <point x="192" y="-2"/>
      <point x="224" y="-4" type="curve"/>
      <point x="232" y="63" type="line"/>
      <point x="228" y="71" type="line"/>
      <point x="208" y="71"/>
      <point x="199" y="78"/>
      <point x="199" y="93" type="curve" smooth="yes"/>
      <point x="199" y="104"/>
      <point x="207" y="117"/>
      <point x="241" y="162" type="curve"/>
      <point x="285" y="104" type="line"/>
      <point x="292" y="92"/>
      <point x="293" y="90"/>
      <point x="293" y="85" type="curve" smooth="yes"/>
      <point x="293" y="75"/>
      <point x="284" y="71"/>
      <point x="262" y="70" type="curve"/>
      <point x="253" y="0" type="line"/>
      <point x="258" y="-5" type="line"/>
      <point x="311" y="-2"/>
      <point x="337" y="0"/>
      <point x="347" y="0" type="curve" smooth="yes"/>
      <point x="398" y="0"/>
      <point x="417" y="-14"/>
      <point x="425" y="-57" type="curve" smooth="yes"/>
    </contour>
  </outline>
</glyph>
<glyph name="Cheverticalstroke-cy" format="2">
  <advance width="727"/>
  <unicode hex="04B8"/>
  <anchor x="355" y="306" name="_center"/>
  <outline>
    <contour>
      <point x="705" y="-2" type="curve"/>
      <point x="714" y="81" type="line"/>
      <point x="706" y="92" type="line"/>
      <point x="700" y="91"/>
      <point x="689" y="89"/>
      <point x="678" y="89" type="curve" smooth="yes"/>
      <point x="649" y="89"/>
      <point x="639" y="106"/>
      <point x="639" y="172" type="curve" smooth="yes"/>
      <point x="639" y="287"/>
      <point x="643" y="431"/>
      <point x="649" y="510" type="curve" smooth="yes"/>
      <point x="652" y="548"/>
      <point x="661" y="556"/>
      <point x="709" y="564" type="curve"/>
      <point x="716" y="652" type="line"/>
      <point x="622" y="649"/>
      <point x="562" y="647"/>
      <point x="540" y="647" type="curve" smooth="yes"/>
      <point x="501" y="647"/>
      <point x="431" y="647"/>
      <point x="385" y="647" type="curve"/>
      <point x="377" y="572" type="line"/>
      <point x="386" y="558" type="line"/>
      <point x="393" y="558"/>
      <point x="405" y="559"/>
      <point x="413" y="559" type="curve" smooth="yes"/>
      <point x="437" y="559"/>
      <point x="442" y="549"/>
      <point x="442" y="508" type="curve" smooth="yes"/>
      <point x="442" y="162" type="line" smooth="yes"/>
      <point x="442" y="108"/>
      <point x="424" y="87"/>
      <point x="376" y="86" type="curve"/>
      <point x="368" y="-1" type="line"/>
      <point x="420" y="-1"/>
      <point x="500" y="0"/>
      <point x="534" y="0" type="curve" smooth="yes"/>
      <point x="588" y="0"/>
      <point x="662" y="-1"/>
    </contour>
    <contour>
      <point x="539" y="264" type="curve"/>
      <point x="539" y="368" type="line"/>
      <point x="366" y="337" type="line"/>
      <point x="292" y="347"/>
      <point x="258" y="378"/>
      <point x="260" y="441" type="curve" smooth="yes"/>
      <point x="262" y="510" type="line" smooth="yes"/>
      <point x="263" y="546"/>
      <point x="271" y="554"/>
      <point x="317" y="562" type="curve"/>
      <point x="324" y="652" type="line"/>
      <point x="232" y="649"/>
      <point x="159" y="647"/>
      <point x="128" y="647" type="curve" smooth="yes"/>
      <point x="10" y="647" type="line"/>
      <point x="2" y="572" type="line"/>
      <point x="11" y="558" type="line"/>
      <point x="19" y="559"/>
      <point x="24" y="559"/>
      <point x="32" y="559" type="curve" smooth="yes"/>
      <point x="51" y="559"/>
      <point x="56" y="549"/>
      <point x="56" y="523" type="curve" smooth="yes"/>
      <point x="56" y="423" type="line" smooth="yes"/>
      <point x="56" y="231"/>
      <point x="263" y="162"/>
    </contour>
    <contour>
      <point x="318" y="139" type="line"/>
      <point x="390" y="145" type="line"/>
      <point x="391" y="319" type="line"/>
      <point x="394" y="457" type="line"/>
      <point x="375" y="470" type="line"/>
      <point x="306" y="464" type="line"/>
      <point x="308" y="310" type="line"/>
      <point x="305" y="152" type="line"/>
    </contour>
  </outline>
</glyph>
<glyph name="Gedescender-cy" format="2">
  <advance width="579"/>
  <unicode hex="04F6"/>
  <outline>
    <contour>
      <point x="322" y="-162" type="line"/>
      <point x="454" y="-152" type="line"/>
      <point x="452" y="86" type="line"/>
      <point x="443" y="100" type="line"/>
      <point x="352" y="103" type="line" smooth="yes"/>
      <point x="298" y="105"/>
      <point x="289" y="114"/>
      <point x="289" y="170" type="curve"/>
      <point x="301" y="500" type="line"/>
      <point x="301" y="523"/>
      <point x="307" y="527"/>
      <point x="339" y="527" type="curve" smooth="yes"/>
      <point x="395" y="527"/>
      <point x="410" y="514"/>
      <point x="410" y="468" type="curve" smooth="yes"/>
      <point x="410" y="448"/>
      <point x="407" y="392"/>
      <point x="404" y="357" type="curve"/>
      <point x="542" y="365" type="line"/>
      <point x="545" y="454"/>
      <point x="554" y="571"/>
      <point x="564" y="643" type="curve"/>
      <point x="551" y="659" type="line"/>
      <point x="500" y="652"/>
      <point x="383" y="647"/>
      <point x="272" y="647" type="curve" smooth="yes"/>
      <point x="203" y="647"/>
      <point x="98" y="649"/>
      <point x="37" y="650" type="curve"/>
      <point x="28" y="571" type="line"/>
      <point x="40" y="557" type="line"/>
      <point x="46" y="558"/>
      <point x="59" y="559"/>
      <point x="66" y="559" type="curve" smooth="yes"/>
      <point x="88" y="559"/>
      <point x="93" y="549"/>
      <point x="93" y="505" type="curve" smooth="yes"/>
      <point x="92" y="170" type="line" smooth="yes"/>
      <point x="92" y="110"/>
      <point x="77" y="90"/>
      <point x="27" y="82" type="curve"/>
      <point x="18" y="-10" type="line"/>
      <point x="61" y="-3"/>
      <point x="110" y="0"/>
      <point x="165" y="0" type="curve" smooth="yes"/>
      <point x="270" y="0"/>
      <point x="293" y="-15"/>
      <point x="306" y="-80" type="curve" smooth="yes"/>
    </contour>
  </outline>
</glyph>
<glyph name="Germandbls" format="2">
  <advance width="853"/>
  <unicode hex="1E9E"/>
  <outline>
    <contour>
      <point x="570" y="-12" type="curve" smooth="yes"/>
      <point x="735" y="-12"/>
      <point x="843" y="81"/>
      <point x="843" y="225" type="curve" smooth="yes"/>
      <point x="843" y="337"/>
      <point x="765" y="422"/>
      <point x="659" y="422" type="curve" smooth="yes"/>
      <point x="640" y="422" type="line"/>
      <point x="804" y="602" type="line"/>
      <point x="777" y="655" type="line"/>
      <point x="777" y="655"/>
      <point x="488" y="647"/>
      <point x="359" y="647" type="curve" smooth="yes"/>
      <point x="268" y="647"/>
      <point x="32" y="650"/>
      <point x="32" y="650" type="curve"/>
      <point x="23" y="571" type="line"/>
      <point x="35" y="557" type="line"/>
      <point x="35" y="557"/>
      <point x="50" y="559"/>
      <point x="61" y="559" type="curve" smooth="yes"/>
      <point x="83" y="559"/>
      <point x="88" y="548"/>
      <point x="88" y="505" type="curve" smooth="yes"/>
      <point x="87" y="170" type="line" smooth="yes"/>
      <point x="87" y="110"/>
      <point x="72" y="90"/>
      <point x="22" y="82" type="curve"/>
      <point x="13" y="-10" type="line"/>
      <point x="13" y="-10"/>
      <point x="121" y="0"/>
      <point x="224" y="0" type="curve" smooth="yes"/>
      <point x="258" y="0"/>
      <point x="340" y="-3"/>
      <point x="340" y="-3" type="curve"/>
      <point x="352" y="98" type="line"/>
      <point x="336" y="116" type="line"/>
      <point x="336" y="116"/>
      <point x="326" y="115"/>
      <point x="312" y="115" type="curve" smooth="yes"/>
      <point x="289" y="115"/>
      <point x="284" y="127"/>
      <point x="284" y="175" type="curve"/>
      <point x="296" y="500" type="line" smooth="yes"/>
      <point x="297" y="522"/>
      <point x="303" y="527"/>
      <point x="330" y="527" type="curve" smooth="yes"/>
      <point x="546" y="527" type="line"/>
      <point x="383" y="335" type="line"/>
      <point x="424" y="276" type="line"/>
      <point x="424" y="276"/>
      <point x="479" y="290"/>
      <point x="524" y="290" type="curve" smooth="yes"/>
      <point x="594" y="290"/>
      <point x="632" y="259"/>
      <point x="632" y="203" type="curve" smooth="yes"/>
      <point x="632" y="150"/>
      <point x="610" y="121"/>
      <point x="570" y="121" type="curve" smooth="yes"/>
      <point x="528" y="121"/>
      <point x="508" y="151"/>
      <point x="508" y="213" type="curve"/>
      <point x="392" y="204" type="line"/>
      <point x="388" y="142"/>
      <point x="371" y="49"/>
      <point x="371" y="49" type="curve"/>
      <point x="383" y="31" type="line"/>
      <point x="383" y="31"/>
      <point x="459" y="-12"/>
    </contour>
  </outline>
</glyph>
<glyph name="dialytikaperispomeni" format="2">
  <advance width="458"/>
  <unicode hex="1FC1"/>
  <anchor x="226" y="472" name="_top"/>
  <outline>
    <contour>
      <point x="312" y="518" type="curve" smooth="yes"/>
      <point x="352" y="518"/>
      <point x="377" y="543"/>
      <point x="377" y="583" type="curve" smooth="yes"/>
      <point x="377" y="622"/>
      <point x="355" y="643"/>
      <point x="317" y="643" type="curve" smooth="yes"/>
      <point x="277" y="643"/>
      <point x="252" y="618"/>
      <point x="252" y="578" type="curve" smooth="yes"/>
      <point x="252" y="538"/>
      <point x="273" y="518"/>
    </contour>
    <contour>
      <point x="152" y="518" type="curve" smooth="yes"/>
      <point x="192" y="518"/>
      <point x="217" y="543"/>
      <point x="217" y="583" type="curve" smooth="yes"/>
      <point x="217" y="622"/>
      <point x="195" y="643"/>
      <point x="158" y="643" type="curve" smooth="yes"/>
      <point x="118" y="643"/>
      <point x="93" y="618"/>
      <point x="93" y="578" type="curve" smooth="yes"/>
      <point x="93" y="538"/>
      <point x="113" y="518"/>
    </contour>
    <component base="perispomeni" xyScale="0.036" yxScale="-0.032" yScale="0.899" xOffset="45" yOffset="178"/>
  </outline>
</glyph>
<glyph name="psilivaria" format="2">
  <advance width="458"/>
  <unicode hex="1FCD"/>
  <guideline x="272" y="771" angle="0"/>
  <guideline x="269" y="508" angle="0"/>
  <anchor x="226" y="472" name="_top"/>
  <anchor x="223" y="764" name="top"/>
  <outline>
    <contour>
      <point x="330" y="509" type="line"/>
      <point x="394" y="529" type="line"/>
      <point x="386" y="600"/>
      <point x="384" y="679"/>
      <point x="378" y="754" type="curve"/>
      <point x="366" y="764" type="line"/>
      <point x="249" y="735" type="line"/>
      <point x="241" y="721" type="line"/>
      <point x="309" y="518" type="line"/>
    </contour>
    <component base="psili" xScale="0.948" xyScale="0.083" yxScale="-0.083" yScale="0.948" yOffset="10"/>
  </outline>
</glyph>
<glyph name="psilioxia" format="2">
  <advance width="458"/>
  <unicode hex="1FCE"/>
  <guideline x="269" y="508" angle="0"/>
  <anchor x="226" y="472" name="_top"/>
  <anchor x="271" y="765" name="top"/>
  <outline>
    <contour>
      <point x="337" y="508" type="line"/>
      <point x="359" y="515" type="line"/>
      <point x="449" y="710" type="line"/>
      <point x="441" y="724" type="line"/>
      <point x="329" y="765" type="line"/>
      <point x="315" y="757" type="line"/>
      <point x="304" y="683"/>
      <point x="291" y="605"/>
      <point x="276" y="535" type="curve"/>
    </contour>
    <component base="psili" xScale="0.948" xyScale="0.083" yxScale="-0.083" yScale="0.948" xOffset="41" yOffset="12"/>
  </outline>
</glyph>
<glyph name="dasiavaria" format="2">
  <advance width="458"/>
  <unicode hex="1FDD"/>
  <anchor x="226" y="472" name="_top"/>
  <anchor x="223" y="764" name="top"/>
  <outline>
    <contour>
      <point x="333" y="509" type="line"/>
      <point x="397" y="529" type="line"/>
      <point x="389" y="600"/>
      <point x="385" y="679"/>
      <point x="381" y="754" type="curve"/>
      <point x="369" y="764" type="line"/>
      <point x="252" y="735" type="line"/>
      <point x="244" y="721" type="line"/>
      <point x="312" y="518" type="line"/>
    </contour>
    <component base="dasia" xOffset="-47" yOffset="-8"/>
  </outline>
</glyph>
<glyph name="dasiaperispomeni" format="2">
  <advance width="458"/>
  <unicode hex="1FDF"/>
  <anchor x="226" y="472" name="_top"/>
  <anchor x="230" y="883" name="top"/>
  <outline>
    <contour>
      <point x="269" y="495" type="curve"/>
      <point x="310" y="518" type="line"/>
      <point x="311" y="534" type="line"/>
      <point x="289" y="555"/>
      <point x="277" y="576"/>
      <point x="277" y="596" type="curve" smooth="yes"/>
      <point x="277" y="614"/>
      <point x="287" y="632"/>
      <point x="308" y="648" type="curve"/>
      <point x="307" y="656" type="line"/>
      <point x="289" y="675"/>
      <point x="251" y="692"/>
      <point x="231" y="692" type="curve" smooth="yes"/>
      <point x="195" y="692"/>
      <point x="168" y="667"/>
      <point x="168" y="630" type="curve" smooth="yes"/>
      <point x="168" y="584"/>
      <point x="208" y="533"/>
    </contour>
    <component base="perispomeni" xScale="0.899" xyScale="0.032" yxScale="-0.032" yScale="0.899" xOffset="76" yOffset="210"/>
  </outline>
</glyph>
<glyph name="dialytikaoxia" format="2">
  <advance width="398"/>
  <unicode hex="1FEE"/>
  <anchor x="180" y="472" name="_top"/>
  <outline>
    <contour>
      <point x="348" y="569" type="curve" smooth="yes"/>
      <point x="392" y="569"/>
      <point x="418" y="597"/>
      <point x="418" y="641" type="curve" smooth="yes"/>
      <point x="418" y="683"/>
      <point x="395" y="706"/>
      <point x="354" y="706" type="curve" smooth="yes"/>
      <point x="310" y="706"/>
      <point x="283" y="678"/>
      <point x="283" y="634" type="curve" smooth="yes"/>
      <point x="283" y="592"/>
      <point x="306" y="569"/>
    </contour>
    <contour>
      <point x="45" y="571" type="curve" smooth="yes"/>
      <point x="89" y="571"/>
      <point x="116" y="599"/>
      <point x="116" y="643" type="curve" smooth="yes"/>
      <point x="116" y="685"/>
      <point x="93" y="708"/>
      <point x="52" y="708" type="curve" smooth="yes"/>
      <point x="8" y="708"/>
      <point x="-19" y="680"/>
      <point x="-19" y="636" type="curve" smooth="yes"/>
      <point x="-19" y="594"/>
      <point x="3" y="571"/>
    </contour>
    <component base="tonos" xScale="0.934" xyScale="0.016" yxScale="-0.016" yScale="0.934" xOffset="-11" yOffset="44"/>
  </outline>
</glyph>
<glyph name="figuredash" format="2">
  <advance width="450"/>
  <unicode hex="2012"/>
  <outline>
    <contour>
      <point x="0" y="198" type="line"/>
      <point x="148" y="198"/>
      <point x="299" y="199"/>
      <point x="448" y="199" type="curve"/>
      <point x="462" y="305" type="line"/>
      <point x="452" y="324" type="line"/>
      <point x="452" y="324"/>
      <point x="429" y="322"/>
      <point x="365" y="322" type="curve" smooth="yes"/>
      <point x="324" y="322"/>
      <point x="284" y="322"/>
      <point x="243" y="322" type="curve" smooth="yes"/>
      <point x="162" y="322"/>
      <point x="81" y="322"/>
      <point x="0" y="322" type="curve"/>
      <point x="-11" y="217" type="line"/>
    </contour>
  </outline>
</glyph>
<glyph name="daggerdbl" format="2">
  <advance width="535"/>
  <unicode hex="2021"/>
  <outline>
    <contour>
      <point x="237" y="-93" type="line"/>
      <point x="299" y="-84" type="line"/>
      <point x="294" y="93" type="line"/>
      <point x="241" y="90" type="line"/>
      <point x="226" y="-85" type="line"/>
    </contour>
    <contour>
      <point x="63" y="101" type="line"/>
      <point x="224" y="116" type="line"/>
      <point x="227" y="169" type="line"/>
      <point x="64" y="174" type="line"/>
      <point x="55" y="112" type="line"/>
    </contour>
    <contour>
      <point x="63" y="346" type="line"/>
      <point x="224" y="361" type="line"/>
      <point x="227" y="414" type="line"/>
      <point x="64" y="419" type="line"/>
      <point x="55" y="357" type="line"/>
    </contour>
    <contour>
      <point x="241" y="185" type="line"/>
      <point x="296" y="189" type="line"/>
      <point x="296" y="339" type="line"/>
      <point x="241" y="335" type="line"/>
    </contour>
    <contour>
      <point x="477" y="111" type="line"/>
      <point x="486" y="173" type="line"/>
      <point x="478" y="182" type="line"/>
      <point x="314" y="169" type="line"/>
      <point x="312" y="116" type="line"/>
    </contour>
    <contour>
      <point x="241" y="428" type="line"/>
      <point x="294" y="431" type="line"/>
      <point x="309" y="590" type="line"/>
      <point x="298" y="598" type="line"/>
      <point x="236" y="589" type="line"/>
    </contour>
    <contour>
      <point x="477" y="356" type="line"/>
      <point x="486" y="418" type="line"/>
      <point x="478" y="427" type="line"/>
      <point x="314" y="414" type="line"/>
      <point x="312" y="361" type="line"/>
    </contour>
  </outline>
</glyph>
<glyph name="commercialMinusSign" format="2">
  <advance width="639"/>
  <unicode hex="2052"/>
  <outline>
    <contour>
      <point x="164" y="-35" type="line"/>
      <point x="197" y="20"/>
      <point x="260" y="122"/>
      <point x="312" y="207" type="curve" smooth="yes"/>
      <point x="362" y="284"/>
      <point x="470" y="451"/>
      <point x="582" y="623" type="curve"/>
      <point x="572" y="647" type="line"/>
      <point x="485" y="679" type="line"/>
      <point x="218" y="253" type="line" smooth="yes"/>
      <point x="181" y="192"/>
      <point x="117" y="93"/>
      <point x="65" y="17" type="curve"/>
      <point x="71" y="0" type="line"/>
    </contour>
    <contour>
      <point x="523" y="-3" type="curve" smooth="yes"/>
      <point x="585" y="-3"/>
      <point x="624" y="37"/>
      <point x="624" y="101" type="curve" smooth="yes"/>
      <point x="624" y="161"/>
      <point x="590" y="196"/>
      <point x="531" y="196" type="curve" smooth="yes"/>
      <point x="468" y="196"/>
      <point x="429" y="156"/>
      <point x="429" y="92" type="curve" smooth="yes"/>
      <point x="429" y="31"/>
      <point x="462" y="-3"/>
    </contour>
    <contour>
      <point x="117" y="451" type="curve" smooth="yes"/>
      <point x="179" y="451"/>
      <point x="218" y="491"/>
      <point x="218" y="555" type="curve" smooth="yes"/>
      <point x="218" y="615"/>
      <point x="184" y="650"/>
      <point x="125" y="650" type="curve" smooth="yes"/>
      <point x="62" y="650"/>
      <point x="23" y="610"/>
      <point x="23" y="546" type="curve" smooth="yes"/>
      <point x="23" y="485"/>
      <point x="56" y="451"/>
    </contour>
  </outline>
</glyph>
<glyph name="ninesuperior" format="2">
  <advance width="348"/>
  <unicode hex="2079"/>
  <outline>
    <contour>
      <point x="77" y="318" type="line"/>
      <point x="77" y="318"/>
      <point x="330" y="373"/>
      <point x="330" y="577" type="curve" smooth="yes"/>
      <point x="330" y="670"/>
      <point x="272" y="728"/>
      <point x="182" y="728" type="curve" smooth="yes"/>
      <point x="79" y="728"/>
      <point x="16" y="673"/>
      <point x="16" y="581" type="curve" smooth="yes"/>
      <point x="16" y="506"/>
      <point x="61" y="462"/>
      <point x="129" y="462" type="curve" smooth="yes"/>
      <point x="141" y="468"/>
      <point x="152" y="470"/>
      <point x="164" y="474" type="curve"/>
      <point x="168" y="466" type="line"/>
      <point x="117" y="406"/>
      <point x="45" y="382"/>
      <point x="45" y="382" type="curve"/>
      <point x="67" y="323" type="line"/>
    </contour>
    <contour>
      <point x="170" y="548" type="curve" smooth="yes"/>
      <point x="149" y="548"/>
      <point x="140" y="563"/>
      <point x="140" y="599" type="curve" smooth="yes"/>
      <point x="140" y="631"/>
      <point x="149" y="643"/>
      <point x="173" y="643" type="curve" smooth="yes"/>
      <point x="195" y="643"/>
      <point x="207" y="624"/>
      <point x="207" y="584" type="curve" smooth="yes"/>
      <point x="207" y="575"/>
      <point x="206" y="566"/>
      <point x="205" y="557" type="curve"/>
      <point x="197" y="553"/>
      <point x="185" y="548"/>
    </contour>
  </outline>
</glyph>
<glyph name="zeroinferior" format="2">
  <advance width="355"/>
  <unicode hex="2080"/>
  <outline>
    <contour>
      <point x="171" y="-128" type="curve" smooth="yes"/>
      <point x="273" y="-128"/>
      <point x="329" y="-53"/>
      <point x="329" y="84" type="curve" smooth="yes"/>
      <point x="329" y="215"/>
      <point x="281" y="281"/>
      <point x="186" y="281" type="curve" smooth="yes"/>
      <point x="84" y="281"/>
      <point x="26" y="204"/>
      <point x="26" y="67" type="curve" smooth="yes"/>
      <point x="26" y="-62"/>
      <point x="75" y="-128"/>
    </contour>
    <contour>
      <point x="181" y="7" type="curve" smooth="yes"/>
      <point x="134" y="7"/>
      <point x="113" y="27"/>
      <point x="113" y="75" type="curve" smooth="yes"/>
      <point x="113" y="124"/>
      <point x="130" y="142"/>
      <point x="173" y="142" type="curve" smooth="yes"/>
      <point x="221" y="142"/>
      <point x="242" y="122"/>
      <point x="242" y="72" type="curve" smooth="yes"/>
      <point x="242" y="24"/>
      <point x="226" y="7"/>
    </contour>
  </outline>
</glyph>
<glyph name="fourinferior" format="2">
  <advance width="365"/>
  <unicode hex="2084"/>
  <outline>
    <contour>
      <point x="166" y="-128" type="line"/>
      <point x="287" y="-120" type="line"/>
      <point x="296" y="-112" type="line"/>
      <point x="296" y="-112"/>
      <point x="293" y="-80"/>
      <point x="292" y="-41" type="curve"/>
      <point x="336" y="-42" type="line"/>
      <point x="344" y="39" type="line"/>
      <point x="336" y="49" type="line"/>
      <point x="291" y="49" type="line"/>
      <point x="291" y="272" type="line"/>
      <point x="185" y="281" type="line"/>
      <point x="178" y="279" type="line"/>
      <point x="9" y="37" type="line"/>
      <point x="8" y="-35" type="line"/>
      <point x="163" y="-37" type="line"/>
      <point x="162" y="-80"/>
      <point x="159" y="-120"/>
      <point x="159" y="-120" type="curve"/>
    </contour>
    <contour>
      <point x="105" y="49" type="line"/>
      <point x="156" y="130" type="line"/>
      <point x="164" y="130" type="line"/>
      <point x="164" y="49" type="line"/>
    </contour>
  </outline>
</glyph>
<glyph name="fiveinferior" format="2">
  <advance width="322"/>
  <unicode hex="2085"/>
  <outline>
    <contour>
      <point x="82" y="-128" type="curve" smooth="yes"/>
      <point x="194" y="-128"/>
      <point x="298" y="-61"/>
      <point x="298" y="12" type="curve" smooth="yes"/>
      <point x="298" y="79"/>
      <point x="255" y="113"/>
      <point x="140" y="135" type="curve"/>
      <point x="142" y="161" type="line"/>
      <point x="210" y="161"/>
      <point x="270" y="156"/>
      <point x="270" y="156" type="curve"/>
      <point x="284" y="170" type="line"/>
      <point x="304" y="295" type="line"/>
      <point x="246" y="292" type="line"/>
      <point x="239" y="272"/>
      <point x="229" y="265"/>
      <point x="203" y="265" type="curve" smooth="yes"/>
      <point x="57" y="261" type="line"/>
      <point x="52" y="256" type="line"/>
      <point x="52" y="256"/>
      <point x="48" y="150"/>
      <point x="39" y="50" type="curve"/>
      <point x="45" y="42" type="line"/>
      <point x="124" y="33"/>
      <point x="154" y="23"/>
      <point x="154" y="3" type="curve" smooth="yes"/>
      <point x="154" y="-16"/>
      <point x="130" y="-29"/>
      <point x="92" y="-29" type="curve" smooth="yes"/>
      <point x="65" y="-29"/>
      <point x="44" y="-24"/>
      <point x="27" y="-16" type="curve"/>
      <point x="10" y="-33" type="line"/>
      <point x="16" y="-103"/>
      <point x="34" y="-128"/>
    </contour>
  </outline>
</glyph>
<glyph name="seveninferior" format="2">
  <advance width="320"/>
  <unicode hex="2087"/>
  <outline>
    <contour>
      <point x="157" y="-127" type="line"/>
      <point x="178" y="-127" type="line"/>
      <point x="205" y="-26" type="line"/>
      <point x="248" y="81"/>
      <point x="263" y="114"/>
      <point x="314" y="223" type="curve"/>
      <point x="272" y="273" type="line"/>
      <point x="117" y="273" type="line" smooth="yes"/>
      <point x="74" y="273"/>
      <point x="33" y="276"/>
      <point x="33" y="276" type="curve"/>
      <point x="28" y="273" type="line"/>
      <point x="25" y="199"/>
      <point x="14" y="107"/>
      <point x="14" y="107" type="curve"/>
      <point x="76" y="111" type="line"/>
      <point x="83" y="154"/>
      <point x="91" y="160"/>
      <point x="131" y="165" type="curve" smooth="yes"/>
      <point x="188" y="171" type="line"/>
      <point x="58" y="-81" type="line"/>
      <point x="66" y="-100" type="line"/>
    </contour>
  </outline>
</glyph>
<glyph name="franc" format="2">
  <advance width="497"/>
  <unicode hex="20A3"/>
  <outline>
    <contour>
      <point x="31" y="-7" type="line"/>
      <point x="31" y="-7"/>
      <point x="76" y="-3"/>
      <point x="137" y="-1" type="curve" smooth="yes"/>
      <point x="157" y="0"/>
      <point x="180" y="0"/>
      <point x="203" y="0" type="curve" smooth="yes"/>
      <point x="241" y="0"/>
      <point x="350" y="-2"/>
      <point x="350" y="-2" type="curve"/>
      <point x="361" y="80" type="line"/>
      <point x="346" y="96" type="line"/>
      <point x="346" y="96"/>
      <point x="329" y="89"/>
      <point x="303" y="89" type="curve" smooth="yes"/>
      <point x="277" y="89"/>
      <point x="269" y="96"/>
      <point x="268" y="125" type="curve"/>
      <point x="290" y="125" type="line"/>
      <point x="378" y="125" type="line"/>
      <point x="381" y="185" type="line"/>
      <point x="376" y="191" type="line"/>
      <point x="376" y="191"/>
      <point x="323" y="189"/>
      <point x="270" y="189" type="curve"/>
      <point x="271" y="214" type="line"/>
      <point x="292" y="215"/>
      <point x="312" y="218"/>
      <point x="333" y="218" type="curve" smooth="yes"/>
      <point x="369" y="218"/>
      <point x="430" y="216"/>
      <point x="430" y="216" type="curve"/>
      <point x="439" y="306" type="line"/>
      <point x="428" y="318" type="line"/>
      <point x="428" y="318"/>
      <point x="365" y="314"/>
      <point x="341" y="314" type="curve" smooth="yes"/>
      <point x="319" y="314"/>
      <point x="297" y="315"/>
      <point x="275" y="315" type="curve"/>
      <point x="278" y="382" type="line" smooth="yes"/>
      <point x="279" y="397"/>
      <point x="284" y="401"/>
      <point x="303" y="401" type="curve" smooth="yes"/>
      <point x="303" y="401"/>
      <point x="303" y="401"/>
      <point x="303" y="401" type="curve" smooth="yes"/>
      <point x="347" y="401"/>
      <point x="361" y="393"/>
      <point x="361" y="371" type="curve" smooth="yes"/>
      <point x="361" y="362"/>
      <point x="359" y="344"/>
      <point x="359" y="344" type="curve"/>
      <point x="484" y="351" type="line"/>
      <point x="487" y="418"/>
      <point x="498" y="500"/>
      <point x="498" y="500" type="curve"/>
      <point x="486" y="513" type="line"/>
      <point x="437" y="508"/>
      <point x="332" y="504"/>
      <point x="250" y="504" type="curve" smooth="yes"/>
      <point x="193" y="504" type="line" smooth="yes"/>
      <point x="122" y="505"/>
      <point x="47" y="506"/>
      <point x="47" y="506" type="curve"/>
      <point x="39" y="440" type="line"/>
      <point x="50" y="428" type="line"/>
      <point x="50" y="428"/>
      <point x="62" y="429"/>
      <point x="71" y="429" type="curve" smooth="yes"/>
      <point x="88" y="429"/>
      <point x="92" y="421"/>
      <point x="92" y="387" type="curve"/>
      <point x="91" y="189" type="line"/>
      <point x="33" y="189" type="line"/>
      <point x="25" y="130" type="line"/>
      <point x="31" y="125" type="line"/>
      <point x="90" y="125" type="line"/>
      <point x="86" y="87"/>
      <point x="76" y="74"/>
      <point x="39" y="70" type="curve"/>
    </contour>
  </outline>
</glyph>
<glyph name="lira" format="2">
  <advance width="511"/>
  <unicode hex="20A4"/>
  <outline>
    <contour>
      <point x="389" y="-12" type="curve" smooth="yes"/>
      <point x="459" y="-12"/>
      <point x="509" y="37"/>
      <point x="509" y="105" type="curve" smooth="yes"/>
      <point x="509" y="144"/>
      <point x="495" y="195"/>
      <point x="478" y="216" type="curve"/>
      <point x="447" y="216" type="line"/>
      <point x="447" y="171"/>
      <point x="425" y="141"/>
      <point x="393" y="141" type="curve" smooth="yes"/>
      <point x="364" y="141"/>
      <point x="310" y="158"/>
      <point x="287" y="158" type="curve"/>
      <point x="228" y="144" type="line"/>
      <point x="244" y="160"/>
      <point x="256" y="201"/>
      <point x="257" y="236" type="curve" smooth="yes"/>
      <point x="263" y="417" type="line" smooth="yes"/>
      <point x="265" y="465"/>
      <point x="275" y="481"/>
      <point x="311" y="481" type="curve" smooth="yes"/>
      <point x="340" y="481"/>
      <point x="370" y="470"/>
      <point x="425" y="438" type="curve"/>
      <point x="444" y="441" type="line"/>
      <point x="487" y="572" type="line"/>
      <point x="482" y="583" type="line"/>
      <point x="456" y="592"/>
      <point x="405" y="598"/>
      <point x="359" y="598" type="curve" smooth="yes"/>
      <point x="230" y="598"/>
      <point x="95" y="490"/>
      <point x="95" y="387" type="curve" smooth="yes"/>
      <point x="95" y="201" type="line" smooth="yes"/>
      <point x="95" y="158"/>
      <point x="69" y="124"/>
      <point x="15" y="96" type="curve"/>
      <point x="40" y="5" type="line"/>
      <point x="55" y="-1" type="line"/>
      <point x="106" y="29"/>
      <point x="148" y="42"/>
      <point x="192" y="42" type="curve" smooth="yes"/>
      <point x="255" y="42"/>
      <point x="326" y="-12"/>
    </contour>
    <contour>
      <point x="29" y="207" type="line"/>
      <point x="373" y="208" type="line"/>
      <point x="388" y="276" type="line"/>
      <point x="381" y="284" type="line"/>
      <point x="185" y="280" type="line"/>
      <point x="30" y="280" type="line"/>
      <point x="21" y="213" type="line"/>
    </contour>
    <contour>
      <point x="29" y="320" type="line"/>
      <point x="391" y="321" type="line"/>
      <point x="406" y="389" type="line"/>
      <point x="399" y="397" type="line"/>
      <point x="185" y="393" type="line"/>
      <point x="30" y="393" type="line"/>
      <point x="21" y="326" type="line"/>
    </contour>
  </outline>
</glyph>
<glyph name="peseta" format="2">
  <advance width="1356"/>
  <unicode hex="20A7"/>
  <anchor x="1148" y="0" name="bottom"/>
  <anchor x="773" y="236" name="center"/>
  <anchor x="1148" y="472" name="top"/>
  <outline>
    <contour>
      <point x="14" y="-9" type="line"/>
      <point x="14" y="-9"/>
      <point x="154" y="0"/>
      <point x="200" y="0" type="curve" smooth="yes"/>
      <point x="242" y="0"/>
      <point x="363" y="-4"/>
      <point x="363" y="-4" type="curve"/>
      <point x="373" y="82" type="line"/>
      <point x="368" y="90" type="line"/>
      <point x="368" y="90"/>
      <point x="349" y="88"/>
      <point x="335" y="88" type="curve" smooth="yes"/>
      <point x="294" y="88"/>
      <point x="285" y="106"/>
      <point x="285" y="160" type="curve"/>
      <point x="285" y="208" type="line"/>
      <point x="371" y="208" type="line" smooth="yes"/>
      <point x="505" y="208"/>
      <point x="621" y="318"/>
      <point x="621" y="445" type="curve" smooth="yes"/>
      <point x="621" y="523"/>
      <point x="589" y="653"/>
      <point x="350" y="653" type="curve" smooth="yes"/>
      <point x="350" y="653"/>
      <point x="215" y="647"/>
      <point x="170" y="647" type="curve" smooth="yes"/>
      <point x="121" y="647"/>
      <point x="75" y="647"/>
      <point x="27" y="647" type="curve"/>
      <point x="17" y="569" type="line"/>
      <point x="27" y="557" type="line"/>
      <point x="27" y="557"/>
      <point x="47" y="559"/>
      <point x="62" y="559" type="curve" smooth="yes"/>
      <point x="82" y="559"/>
      <point x="88" y="546"/>
      <point x="88" y="505" type="curve" smooth="yes"/>
      <point x="88" y="168" type="line" smooth="yes"/>
      <point x="88" y="112"/>
      <point x="72" y="91"/>
      <point x="23" y="83" type="curve"/>
    </contour>
    <contour>
      <point x="356" y="321" type="curve"/>
      <point x="287" y="331" type="line"/>
      <point x="289" y="394"/>
      <point x="292" y="455"/>
      <point x="295" y="506" type="curve" smooth="yes"/>
      <point x="296" y="525"/>
      <point x="298" y="528"/>
      <point x="312" y="528" type="curve" smooth="yes"/>
      <point x="383" y="528"/>
      <point x="415" y="500"/>
      <point x="415" y="435" type="curve" smooth="yes"/>
      <point x="415" y="371"/>
      <point x="396" y="335"/>
    </contour>
    <contour>
      <point x="811" y="-12" type="curve" smooth="yes"/>
      <point x="850" y="-12"/>
      <point x="943" y="90"/>
      <point x="943" y="90" type="curve"/>
      <point x="927" y="130" type="line"/>
      <point x="927" y="130"/>
      <point x="900" y="121"/>
      <point x="878" y="121" type="curve" smooth="yes"/>
      <point x="846" y="121"/>
      <point x="830" y="143"/>
      <point x="830" y="187" type="curve" smooth="yes"/>
      <point x="830" y="257"/>
      <point x="832" y="314"/>
      <point x="835" y="365" type="curve"/>
      <point x="921" y="362" type="line"/>
      <point x="932" y="447" type="line"/>
      <point x="927" y="454" type="line"/>
      <point x="843" y="451" type="line"/>
      <point x="850" y="513"/>
      <point x="858" y="551"/>
      <point x="858" y="551" type="curve"/>
      <point x="820" y="573" type="line"/>
      <point x="820" y="573"/>
      <point x="712" y="498"/>
      <point x="600" y="447" type="curve"/>
      <point x="592" y="376" type="line"/>
      <point x="608" y="367" type="line"/>
      <point x="650" y="367"/>
      <point x="659" y="357"/>
      <point x="659" y="309" type="curve" smooth="yes"/>
      <point x="659" y="114" type="line" smooth="yes"/>
      <point x="659" y="32"/>
      <point x="712" y="-12"/>
    </contour>
    <contour>
      <point x="1108" y="-12" type="curve" smooth="yes"/>
      <point x="1243" y="-12"/>
      <point x="1339" y="53"/>
      <point x="1339" y="145" type="curve" smooth="yes"/>
      <point x="1339" y="216"/>
      <point x="1308" y="250"/>
      <point x="1183" y="302" type="curve" smooth="yes"/>
      <point x="1150" y="316"/>
      <point x="1136" y="329"/>
      <point x="1136" y="346" type="curve" smooth="yes"/>
      <point x="1136" y="365"/>
      <point x="1151" y="376"/>
      <point x="1175" y="376" type="curve" smooth="yes"/>
      <point x="1211" y="376"/>
      <point x="1229" y="355"/>
      <point x="1230" y="309" type="curve" smooth="yes"/>
      <point x="1230" y="308"/>
      <point x="1230" y="305"/>
      <point x="1230" y="305" type="curve"/>
      <point x="1310" y="309" type="line"/>
      <point x="1316" y="377"/>
      <point x="1328" y="447"/>
      <point x="1328" y="447" type="curve"/>
      <point x="1319" y="464" type="line"/>
      <point x="1319" y="464"/>
      <point x="1271" y="484"/>
      <point x="1194" y="484" type="curve" smooth="yes"/>
      <point x="1052" y="484"/>
      <point x="960" y="419"/>
      <point x="960" y="318" type="curve" smooth="yes"/>
      <point x="960" y="252"/>
      <point x="996" y="209"/>
      <point x="1080" y="175" type="curve" smooth="yes"/>
      <point x="1147" y="148"/>
      <point x="1161" y="138"/>
      <point x="1161" y="118" type="curve" smooth="yes"/>
      <point x="1161" y="102"/>
      <point x="1145" y="92"/>
      <point x="1121" y="92" type="curve" smooth="yes"/>
      <point x="1078" y="92"/>
      <point x="1044" y="127"/>
      <point x="1043" y="171" type="curve"/>
      <point x="963" y="165" type="line"/>
      <point x="959" y="121"/>
      <point x="953" y="71"/>
      <point x="948" y="36" type="curve"/>
      <point x="958" y="22" type="line"/>
      <point x="958" y="22"/>
      <point x="1019" y="-12"/>
    </contour>
  </outline>
</glyph>
<glyph name="kip" format="2">
  <advance width="643"/>
  <unicode hex="20AD"/>
  <anchor x="401" y="0" name="bottom"/>
  <anchor x="351" y="507" name="top"/>
  <outline>
    <contour>
      <point x="38" y="222" type="line"/>
      <point x="572" y="223" type="line"/>
      <point x="587" y="291" type="line"/>
      <point x="580" y="299" type="line"/>
      <point x="287" y="295" type="line"/>
      <point x="39" y="295" type="line"/>
      <point x="30" y="228" type="line"/>
    </contour>
    <contour>
      <point x="290" y="272" type="line"/>
      <point x="286" y="247" type="line"/>
      <point x="385" y="50" type="line" smooth="yes"/>
      <point x="410" y="1"/>
      <point x="431" y="-13"/>
      <point x="476" y="-13" type="curve" smooth="yes"/>
      <point x="498" y="-13"/>
      <point x="611" y="-4"/>
      <point x="611" y="-4" type="curve"/>
      <point x="620" y="59" type="line"/>
      <point x="611" y="72" type="line"/>
      <point x="577" y="78"/>
      <point x="556" y="98"/>
      <point x="533" y="143" type="curve" smooth="yes"/>
      <point x="464" y="279" type="line"/>
      <point x="485" y="309" type="line" smooth="yes"/>
      <point x="528" y="368"/>
      <point x="569" y="408"/>
      <point x="611" y="432" type="curve"/>
      <point x="619" y="495" type="line"/>
      <point x="610" y="508" type="line"/>
      <point x="610" y="508"/>
      <point x="515" y="504"/>
      <point x="485" y="504" type="curve" smooth="yes"/>
      <point x="446" y="504"/>
      <point x="363" y="506"/>
      <point x="363" y="506" type="curve"/>
      <point x="355" y="437" type="line"/>
      <point x="361" y="428" type="line"/>
      <point x="385" y="427"/>
      <point x="392" y="421"/>
      <point x="392" y="403" type="curve" smooth="yes"/>
      <point x="392" y="391"/>
      <point x="386" y="377"/>
      <point x="376" y="368" type="curve" smooth="yes"/>
    </contour>
    <contour>
      <point x="103" y="390" type="curve" smooth="yes"/>
      <point x="103" y="132" type="line" smooth="yes"/>
      <point x="103" y="88"/>
      <point x="93" y="77"/>
      <point x="50" y="67" type="curve"/>
      <point x="44" y="-4" type="line"/>
      <point x="44" y="-4"/>
      <point x="133" y="0"/>
      <point x="187" y="0" type="curve" smooth="yes"/>
      <point x="222" y="0"/>
      <point x="331" y="-3"/>
      <point x="331" y="-3" type="curve"/>
      <point x="338" y="67" type="line"/>
      <point x="331" y="76" type="line"/>
      <point x="331" y="76"/>
      <point x="323" y="74"/>
      <point x="306" y="74" type="curve" smooth="yes"/>
      <point x="285" y="74"/>
      <point x="280" y="84"/>
      <point x="280" y="127" type="curve" smooth="yes"/>
      <point x="286" y="388" type="line" smooth="yes"/>
      <point x="287" y="415"/>
      <point x="294" y="421"/>
      <point x="335" y="431" type="curve"/>
      <point x="341" y="507" type="line"/>
      <point x="341" y="507"/>
      <point x="227" y="504"/>
      <point x="191" y="504" type="curve" smooth="yes"/>
      <point x="178" y="504"/>
      <point x="53" y="505"/>
      <point x="53" y="505" type="curve"/>
      <point x="45" y="441" type="line"/>
      <point x="53" y="429" type="line"/>
      <point x="53" y="429"/>
      <point x="65" y="429"/>
      <point x="74" y="429" type="curve" smooth="yes"/>
      <point x="97" y="429"/>
      <point x="103" y="422"/>
    </contour>
  </outline>
</glyph>
<glyph name="tugrik" format="2">
  <advance width="589"/>
  <unicode hex="20AE"/>
  <outline>
    <contour>
      <point x="118" y="-8" type="line"/>
      <point x="169" y="-5"/>
      <point x="252" y="0"/>
      <point x="292" y="0" type="curve" smooth="yes"/>
      <point x="317" y="0"/>
      <point x="378" y="-2"/>
      <point x="466" y="-5" type="curve"/>
      <point x="474" y="75" type="line"/>
      <point x="469" y="80" type="line"/>
      <point x="451" y="78"/>
      <point x="437" y="77"/>
      <point x="428" y="77" type="curve" smooth="yes"/>
      <point x="396" y="77"/>
      <point x="385" y="91"/>
      <point x="385" y="131" type="curve" smooth="yes"/>
      <point x="385" y="229"/>
      <point x="386" y="319"/>
      <point x="388" y="399" type="curve"/>
      <point x="421" y="399"/>
      <point x="427" y="389"/>
      <point x="434" y="322" type="curve"/>
      <point x="546" y="328" type="line"/>
      <point x="544" y="394"/>
      <point x="543" y="455"/>
      <point x="543" y="501" type="curve"/>
      <point x="531" y="513" type="line"/>
      <point x="427" y="504" type="line"/>
      <point x="166" y="504" type="line"/>
      <point x="63" y="513" type="line"/>
      <point x="52" y="501" type="line"/>
      <point x="51" y="423"/>
      <point x="48" y="348"/>
      <point x="46" y="302" type="curve"/>
      <point x="157" y="308" type="line"/>
      <point x="164" y="381"/>
      <point x="174" y="399"/>
      <point x="207" y="399" type="curve"/>
      <point x="207" y="131" type="line" smooth="yes"/>
      <point x="207" y="88"/>
      <point x="190" y="76"/>
      <point x="124" y="71" type="curve"/>
    </contour>
    <contour>
      <point x="102" y="95" type="line"/>
      <point x="493" y="132" type="line"/>
      <point x="500" y="201" type="line"/>
      <point x="494" y="208" type="line"/>
      <point x="269" y="184" type="line"/>
      <point x="98" y="167" type="line"/>
      <point x="95" y="100" type="line"/>
    </contour>
    <contour>
      <point x="102" y="198" type="line"/>
      <point x="493" y="235" type="line"/>
      <point x="500" y="304" type="line"/>
      <point x="494" y="311" type="line"/>
      <point x="269" y="287" type="line"/>
      <point x="98" y="270" type="line"/>
      <point x="95" y="203" type="line"/>
    </contour>
  </outline>
</glyph>
<glyph name="tenge" format="2">
  <advance width="512"/>
  <unicode hex="20B8"/>
  <outline>
    <contour>
      <point x="78" y="-8" type="line"/>
      <point x="129" y="-5"/>
      <point x="212" y="0"/>
      <point x="252" y="0" type="curve" smooth="yes"/>
      <point x="277" y="0"/>
      <point x="338" y="-2"/>
      <point x="426" y="-5" type="curve"/>
      <point x="434" y="75" type="line"/>
      <point x="429" y="80" type="line"/>
      <point x="411" y="78"/>
      <point x="397" y="77"/>
      <point x="388" y="77" type="curve" smooth="yes"/>
      <point x="356" y="77"/>
      <point x="345" y="91"/>
      <point x="345" y="131" type="curve" smooth="yes"/>
      <point x="345" y="233"/>
      <point x="345" y="258"/>
      <point x="346" y="291" type="curve"/>
      <point x="167" y="291" type="line"/>
      <point x="167" y="131" type="line" smooth="yes"/>
      <point x="167" y="88"/>
      <point x="150" y="76"/>
      <point x="84" y="71" type="curve"/>
    </contour>
    <contour>
      <point x="6" y="176" type="curve"/>
      <point x="120" y="182" type="line"/>
      <point x="125" y="250"/>
      <point x="130" y="257"/>
      <point x="172" y="257" type="curve"/>
      <point x="344" y="257" type="line"/>
      <point x="381" y="257"/>
      <point x="386" y="248"/>
      <point x="392" y="176" type="curve"/>
      <point x="506" y="182" type="line"/>
      <point x="504" y="241"/>
      <point x="503" y="303"/>
      <point x="503" y="349" type="curve"/>
      <point x="491" y="361" type="line"/>
      <point x="23" y="361" type="line"/>
      <point x="12" y="347" type="line"/>
      <point x="11" y="294"/>
      <point x="9" y="221"/>
    </contour>
    <contour>
      <point x="17" y="399" type="line"/>
      <point x="498" y="399" type="line"/>
      <point x="507" y="490" type="line"/>
      <point x="497" y="506" type="line"/>
      <point x="307" y="503" type="line"/>
      <point x="13" y="504" type="line"/>
      <point x="7" y="415" type="line"/>
    </contour>
  </outline>
</glyph>
<glyph name="liraTurkish" format="2">
  <advance width="542"/>
  <unicode hex="20BA"/>
  <outline>
    <contour>
      <point x="109" y="0" type="line"/>
      <point x="282" y="73" type="line"/>
      <point x="285" y="207"/>
      <point x="289" y="311"/>
      <point x="294" y="391" type="curve" smooth="yes"/>
      <point x="296" y="420"/>
      <point x="303" y="426"/>
      <point x="340" y="431" type="curve"/>
      <point x="346" y="507" type="line"/>
      <point x="297" y="506"/>
      <point x="223" y="504"/>
      <point x="197" y="504" type="curve" smooth="yes"/>
      <point x="151" y="504"/>
      <point x="110" y="504"/>
      <point x="59" y="504" type="curve"/>
      <point x="52" y="441" type="line"/>
      <point x="60" y="429" type="line"/>
      <point x="65" y="429"/>
      <point x="73" y="429"/>
      <point x="80" y="429" type="curve" smooth="yes"/>
      <point x="103" y="429"/>
      <point x="109" y="421"/>
      <point x="109" y="390" type="curve" smooth="yes"/>
    </contour>
    <contour>
      <point x="545" y="192" type="curve"/>
      <point x="533" y="209" type="line"/>
      <point x="381" y="209" type="line"/>
      <point x="368" y="145"/>
      <point x="334" y="119"/>
      <point x="263" y="119" type="curve"/>
      <point x="109" y="0" type="line"/>
      <point x="406" y="0"/>
      <point x="479" y="32"/>
    </contour>
    <contour>
      <point x="54" y="94" type="line"/>
      <point x="392" y="227" type="line"/>
      <point x="380" y="295" type="line"/>
      <point x="372" y="300" type="line"/>
      <point x="173" y="219" type="line"/>
      <point x="29" y="162" type="line"/>
      <point x="45" y="97" type="line"/>
    </contour>
    <contour>
      <point x="54" y="217" type="line"/>
      <point x="392" y="350" type="line"/>
      <point x="380" y="418" type="line"/>
      <point x="372" y="423" type="line"/>
      <point x="173" y="342" type="line"/>
      <point x="29" y="285" type="line"/>
      <point x="45" y="220" type="line"/>
    </contour>
  </outline>
</glyph>
<glyph name="northEastArrow" format="2">
  <advance width="555"/>
  <unicode hex="2197"/>
  <outline>
    <contour>
      <point x="396" y="52" type="line"/>
      <point x="485" y="112" type="line"/>
      <point x="474" y="241"/>
      <point x="471" y="399"/>
      <point x="471" y="399" type="curve"/>
      <point x="449" y="421" type="line"/>
      <point x="449" y="421"/>
      <point x="291" y="424"/>
      <point x="161" y="437" type="curve"/>
      <point x="101" y="346" type="line"/>
      <point x="118" y="329" type="line"/>
      <point x="360" y="311" type="line"/>
      <point x="379" y="69" type="line"/>
    </contour>
    <contour>
      <point x="168" y="24" type="line"/>
      <point x="422" y="295" type="line"/>
      <point x="345" y="373" type="line"/>
      <point x="67" y="114" type="line"/>
      <point x="140" y="27" type="line"/>
    </contour>
  </outline>
</glyph>
<glyph name="minus" format="2">
  <advance width="506"/>
  <unicode hex="2212"/>
  <outline>
    <contour>
      <point x="24" y="176" type="line"/>
      <point x="24" y="176"/>
      <point x="160" y="177"/>
      <point x="250" y="177" type="curve" smooth="yes"/>
      <point x="477" y="178" type="line"/>
      <point x="490" y="314" type="line"/>
      <point x="483" y="329" type="line"/>
      <point x="483" y="329"/>
      <point x="342" y="323"/>
      <point x="262" y="323" type="curve" smooth="yes"/>
      <point x="173" y="323"/>
      <point x="33" y="324"/>
      <point x="33" y="324" type="curve"/>
      <point x="15" y="189" type="line"/>
    </contour>
  </outline>
</glyph>
<glyph name="integral" format="2">
  <advance width="453"/>
  <unicode hex="222B"/>
  <outline>
    <contour>
      <point x="73" y="-164" type="curve" smooth="yes"/>
      <point x="191" y="-164"/>
      <point x="292" y="-47"/>
      <point x="299" y="99" type="curve" smooth="yes"/>
      <point x="316" y="412" type="line" smooth="yes"/>
      <point x="320" y="468"/>
      <point x="336" y="490"/>
      <point x="374" y="490" type="curve" smooth="yes"/>
      <point x="397" y="490"/>
      <point x="415" y="480"/>
      <point x="450" y="450" type="curve"/>
      <point x="468" y="453" type="line"/>
      <point x="482" y="475"/>
      <point x="508" y="555"/>
      <point x="508" y="575" type="curve" smooth="yes"/>
      <point x="508" y="587"/>
      <point x="464" y="598"/>
      <point x="414" y="598" type="curve" smooth="yes"/>
      <point x="286" y="598"/>
      <point x="145" y="486"/>
      <point x="145" y="384" type="curve" smooth="yes"/>
      <point x="144" y="46" type="line" smooth="yes"/>
      <point x="144" y="-30"/>
      <point x="131" y="-58"/>
      <point x="96" y="-58" type="curve" smooth="yes"/>
      <point x="66" y="-58"/>
      <point x="43" y="-32"/>
      <point x="38" y="5" type="curve"/>
      <point x="20" y="5" type="line"/>
      <point x="1" y="-18"/>
      <point x="-24" y="-87"/>
      <point x="-24" y="-114" type="curve" smooth="yes"/>
      <point x="-24" y="-137"/>
      <point x="29" y="-164"/>
    </contour>
  </outline>
</glyph>
<glyph name="rightBlackTriangle" format="2">
  <advance width="432"/>
  <unicode hex="25B6"/>
  <outline>
    <contour>
      <point x="80" y="80" type="line"/>
      <point x="391" y="236" type="line"/>
      <point x="80" y="391" type="line"/>
    </contour>
  </outline>
</glyph>
<glyph name="rightWhiteTriangle" format="2">
  <advance width="529"/>
  <unicode hex="25B7"/>
  <outline>
    <contour>
      <point x="80" y="31" type="line"/>
      <point x="488" y="236" type="line"/>
      <point x="80" y="439" type="line"/>
    </contour>
    <contour>
      <point x="140" y="129" type="line"/>
      <point x="140" y="343" type="line"/>
      <point x="354" y="236" type="line"/>
    </contour>
  </outline>
</glyph>
<glyph name="blackDiamond" format="2">
  <advance width="450"/>
  <unicode hex="25C6"/>
  <outline>
    <contour>
      <point x="225" y="20" type="line"/>
      <point x="434" y="229" type="line"/>
      <point x="225" y="438" type="line"/>
      <point x="16" y="229" type="line"/>
    </contour>
  </outline>
</glyph>
<glyph name="mediumBlackSquare" format="2">
  <advance width="472"/>
  <unicode hex="25FC"/>
  <outline>
    <contour>
      <point x="0" y="0" type="line"/>
      <point x="472" y="0" type="line"/>
      <point x="472" y="472" type="line"/>
      <point x="0" y="472" type="line"/>
    </contour>
  </outline>
</glyph>
<glyph name="rightanglebracket-math" format="2">
  <advance width="307"/>
  <unicode hex="27E9"/>
  <outline>
    <contour>
      <point x="133" y="-127" type="line"/>
      <point x="304" y="227" type="line"/>
      <point x="304" y="301" type="line"/>
      <point x="133" y="654" type="line"/>
      <point x="16" y="630" type="line"/>
      <point x="14" y="621" type="line"/>
      <point x="129" y="263" type="line"/>
      <point x="14" y="-92" type="line"/>
      <point x="16" y="-101" type="line"/>
    </contour>
  </outline>
</glyph>
